# Blender 5.1.0
# www.blender.org
mtllib model_0.mtl
o model_0
v -1.040305 0.739311 -2.050465
v -0.822266 0.207923 0.005519
v -1.057077 0.739311 0.005519
v -1.040305 0.739312 2.134931
v -0.805494 0.232077 -2.050465
v -0.889355 0.739309 -3.592453
v -0.738405 0.340768 -3.372169
v -0.520366 0.739309 -4.400161
v -0.453278 0.232076 -3.812737
v 0.016344 0.739309 -4.620445
v -0.470050 0.062998 -2.197321
v -0.470050 0.038845 0.005519
v -0.805494 0.232078 2.134931
v -0.889355 0.739314 3.676919
v -0.738405 0.340772 3.456635
v -0.520366 0.739313 4.484627
v -0.470050 0.063000 2.281787
v 0.016343 0.002613 0.005519
v 0.016343 0.038844 -2.270749
v 0.016344 0.207921 -4.033021
v 0.536282 0.739309 -4.400161
v 0.469192 0.232076 -3.812737
v 0.905270 0.739309 -3.592453
v 0.754319 0.340768 -3.372169
v 1.056220 0.739310 -2.050465
v 0.821408 0.232076 -2.050465
v 1.072992 0.739310 0.005519
v 0.485964 0.062998 -2.197321
v 0.485964 0.038845 0.005519
v 0.838181 0.207922 0.005519
v 0.821408 0.232078 2.134931
v 1.056220 0.739312 2.134931
v 0.754319 0.340772 3.456635
v 0.905270 0.739313 3.676919
v 0.469192 0.232079 3.897203
v 0.536282 0.739313 4.484627
v 0.485964 0.063000 2.281787
v 0.016343 0.038846 2.355215
v -0.453278 0.232079 3.897203
v 0.016344 0.739313 4.704911
v 0.016344 0.207925 4.117486
v -0.453278 1.246543 -3.812737
v 0.016344 1.270697 -4.033021
v -0.805494 1.246545 -2.050465
v -0.822266 1.270699 0.005519
v -0.738405 1.137852 -3.372169
v -0.805494 1.246546 2.134931
v -0.738405 1.137854 3.456635
v -0.453278 1.246547 3.897203
v -0.470050 1.476009 2.281787
v -0.470050 1.500162 0.005519
v 0.469193 1.246543 -3.812737
v 0.754320 1.137851 -3.372169
v 0.485965 1.476007 -2.197321
v 0.016344 1.536393 0.005519
v 0.016344 1.270701 4.117486
v 0.469193 1.246547 3.897203
v 0.754320 1.137854 3.456635
v 0.485965 1.500161 0.005519
v 0.821409 1.246544 -2.050465
v 0.838182 1.270698 0.005519
v 0.821409 1.246545 2.134931
v 0.474295 1.316342 -3.321362
v -0.681271 1.331521 -2.104849
v 0.302511 1.339894 -3.245170
v 0.716025 1.186107 -3.204515
v 0.016344 1.397021 -3.062857
v -0.465785 1.417657 -2.608113
v -0.315537 1.410787 -2.780468
v -0.470050 1.489251 -0.989587
v -0.470050 1.496682 -0.311927
v 0.016344 1.515928 -1.280149
v 0.016344 1.529472 -0.429299
v -0.711468 1.335284 -0.687439
v -0.783606 1.293235 -0.236270
v -0.399554 1.500162 -0.324393
v -0.221193 1.500162 -1.159103
v 0.747208 1.302645 -1.595673
v 0.333551 1.495605 -1.482396
v 0.119749 1.523097 -0.479522
v 0.485965 1.483096 -1.550856
v 0.485965 1.492140 -0.725990
v -0.432147 1.433579 -0.976646
v -0.432147 1.440305 -0.363208
v 0.008152 1.457729 -1.239673
v 0.008152 1.469989 -0.469457
v -0.650686 1.294204 -0.703133
v -0.715987 1.256139 -0.294721
v -0.368332 1.443456 -0.374493
v -0.206874 1.443456 -1.130098
v 0.669752 1.264658 -1.525295
v 0.295297 1.439331 -1.422753
v 0.101758 1.464218 -0.514921
v 0.433267 1.428007 -1.484725
v 0.433267 1.436194 -0.738031
v -0.510844 1.452229 -1.942184
v -0.806973 1.248676 -1.869104
v -0.675681 1.338923 -1.901505
v -0.027802 1.500161 -2.064150
v 0.483242 1.438745 -2.459643
v 0.016344 1.503076 -2.087631
v 0.279541 1.486624 -2.229597
v 0.637201 1.228574 -3.242616
v -0.470050 1.478660 -1.955513
v -0.442437 1.427384 -2.209121
v 0.015946 1.450146 -2.278321
v 0.447524 1.276912 -3.268429
v -0.641493 1.291218 -2.121975
v 0.285632 1.299108 -3.196625
v 0.015946 1.352946 -3.024811
v -0.438417 1.372393 -2.596256
v -0.296822 1.365918 -2.758687
v -0.480882 1.404974 -1.968678
v -0.636226 1.298194 -1.930341
v -0.025658 1.450146 -2.083619
v 0.455955 1.392267 -2.456337
v 0.015946 1.452892 -2.105748
v 0.263986 1.437388 -2.239538
v 0.601048 1.194200 -3.194219
v -0.442437 1.429883 -1.981239
v -0.204939 1.500162 1.286231
v -0.810959 1.254416 1.441077
v -0.470050 1.485797 1.359277
v 0.247554 1.506664 1.126201
v 0.612158 1.404752 0.806594
v -0.608948 1.395044 1.384128
v 0.016344 1.517677 1.219341
v 0.485965 1.489902 0.972489
v 0.835351 1.266622 0.364922
v 0.485965 1.499601 0.058333
v 0.069701 1.529533 0.264142
v 0.692542 1.365580 0.005519
v 0.716346 1.344808 0.325057
v -0.470050 1.493090 0.671985
v 0.016344 1.531816 0.302361
v -0.354491 1.500162 0.563767
v -0.705861 1.327579 1.411449
v -0.677210 1.355253 0.942971
v 0.016344 1.390666 3.196156
v -0.202769 1.363189 3.290532
v 0.694836 1.333129 2.190344
v 0.223062 1.384392 3.059107
v 0.597872 1.334996 2.771709
v -0.459068 1.325764 3.339519
v 0.479527 1.387920 2.901939
v -0.562531 1.246547 3.350570
v 0.485965 1.478014 2.092841
v 0.767880 1.285330 1.954201
v 0.714474 1.321831 1.980465
v -0.605717 1.246547 3.134491
v 0.016344 1.500613 2.326010
v -0.382728 1.439151 2.611350
v -0.465410 1.412527 2.728703
v 0.449664 1.480676 2.105836
v 0.573315 1.291768 2.728357
v 0.465726 1.427342 2.257334
v 0.459535 1.342651 2.853562
v 0.430825 1.431829 2.088170
v 0.013847 1.450973 2.300094
v -0.342308 1.450564 0.605591
v -0.198525 1.450564 1.300184
v 0.065520 1.478801 0.317524
v 0.236512 1.456814 1.146328
v 0.504477 1.421264 0.314875
v 0.587050 1.358835 0.839051
v -0.652577 1.311245 0.970166
v -0.586949 1.349500 1.394304
v 0.014221 1.480996 0.354270
v 0.014221 1.467403 1.235875
v 0.465726 1.440699 0.998545
v -0.453409 1.436753 1.370412
v -0.680123 1.284638 1.420571
v 0.465726 1.450024 0.119655
v 0.687219 1.301202 0.376090
v -0.453409 1.443764 0.709634
v 0.664333 1.321173 0.068879
v 0.014221 1.345291 3.136429
v -0.369455 1.391906 2.574183
v -0.196439 1.318875 3.227164
v 0.666539 1.289974 2.169419
v 0.212965 1.339259 3.004667
v -0.583842 1.206732 3.077144
v -0.542322 1.206732 3.284886
v -0.442850 1.282892 3.274261
v 0.465726 1.429269 2.075676
v 0.685419 1.279112 1.967636
v -0.448948 1.366309 2.687009
v 0.823042 1.248896 1.927659
vn -0.9978 -0.0510 -0.0433
vn -0.8266 -0.5627 -0.0002
vn -0.9890 0.1478 -0.0000
vn -0.9977 -0.0532 0.0424
vn 0.8798 0.4754 -0.0040
vn 0.2621 0.9650 -0.0031
vn 0.8154 0.5788 0.0130
vn 0.5209 0.8535 -0.0121
vn 0.5305 0.8476 0.0079
vn 0.7585 0.6185 0.2053
vn 0.3264 0.9410 0.0890
vn 0.3532 0.8648 0.3569
vn -0.7432 -0.6675 -0.0454
vn -0.9767 -0.0391 -0.2109
vn -0.7162 -0.6714 -0.1902
vn -0.7331 0.0782 -0.6756
vn -0.2911 -0.9154 -0.2781
vn -0.0000 -0.0062 -1.0000
vn 0.8551 0.5119 0.0827
vn 0.5027 0.8617 0.0690
vn 0.9767 0.0391 0.2109
vn 0.9977 0.0532 0.0424
vn 0.8225 0.5686 0.0122
vn -0.2237 -0.9736 -0.0462
vn 0.9890 -0.1478 -0.0000
vn -0.3022 -0.9532 -0.0000
vn -0.7419 -0.6690 0.0445
vn 0.9978 0.0510 -0.0433
vn -0.9767 -0.0391 0.2109
vn -0.7162 -0.6714 0.1902
vn -0.7332 0.0781 0.6756
vn 0.8431 0.5348 -0.0560
vn 0.9767 0.0391 -0.2109
vn 0.8258 0.5114 -0.2377
vn 0.5660 0.8176 -0.1060
vn 0.4626 0.8847 -0.0567
vn -0.2227 -0.9738 0.0453
vn 0.3506 0.9364 -0.0114
vn 0.0876 0.9878 -0.1286
vn -0.0169 -0.9999 -0.0000
vn 0.0006 -0.9987 -0.0508
vn 0.0480 -0.9553 -0.2916
vn 0.0169 0.9946 -0.1029
vn -0.0046 1.0000 -0.0051
vn 0.7403 -0.0736 -0.6683
vn 0.4771 -0.8419 -0.2521
vn 0.8398 -0.5277 -0.1279
vn 0.7872 -0.6153 -0.0413
vn 0.0479 0.9967 0.0659
vn -0.0431 0.9960 0.0787
vn 0.0476 0.9948 0.0905
vn 0.0101 0.9974 0.0716
vn -0.0043 0.9773 0.2119
vn 0.0686 0.9801 0.1861
vn -0.0575 0.8976 0.4371
vn 0.2540 -0.9658 -0.0519
vn 0.7403 -0.0736 0.6683
vn 0.1744 -0.9847 -0.0000
vn -0.0000 -0.0062 1.0000
vn 0.6824 -0.7310 -0.0002
vn -0.5195 0.7775 0.3544
vn -0.2985 0.9536 0.0384
vn -0.4759 0.8618 0.1756
vn 0.0765 0.9558 0.2841
vn 0.7883 -0.6139 0.0404
vn 0.8398 -0.5277 0.1279
vn 0.4771 -0.8419 0.2521
vn 0.0086 0.9998 -0.0197
vn 0.0278 0.9976 -0.0628
vn -0.0535 0.9980 -0.0343
vn -0.2878 0.9577 0.0039
vn -0.4543 0.8896 0.0464
vn 0.0176 0.9912 0.1310
vn -0.0281 0.9970 0.0716
vn 0.0038 0.9957 -0.0928
vn 0.0973 0.9684 -0.2295
vn 0.0429 0.9851 -0.1664
vn 0.2548 -0.9656 0.0509
vn 0.0532 0.9972 0.0532
vn 0.0963 0.9939 0.0542
vn 0.0011 -0.9988 0.0499
vn 0.4085 0.8049 -0.4305
vn 0.1326 0.9874 -0.0863
vn 0.3156 0.9480 -0.0402
vn -0.2911 -0.9154 0.2781
vn 0.3277 0.9398 -0.0966
vn 0.0480 -0.9553 0.2916
vn -0.0518 0.9215 -0.3850
vn -0.0605 0.9937 -0.0945
vn 0.0893 0.9954 -0.0345
vn 0.0675 0.9958 -0.0611
vn -0.0017 0.9965 -0.0839
vn -0.0889 0.9867 -0.1360
vn -0.0780 0.9934 -0.0845
vn -0.0913 0.9910 -0.0974
vn -0.5109 0.8092 -0.2900
vn -0.5129 0.8569 -0.0515
vn -0.8218 0.5697 0.0010
vn -0.5029 0.8191 -0.2759
vn -0.2620 0.9640 -0.0462
vn -0.5661 0.8210 -0.0741
vn -0.8140 0.5777 -0.0604
vn -0.4191 0.9039 -0.0855
vn -0.1662 0.9857 0.0276
vn -0.2484 0.8842 -0.3955
vn -0.2960 0.9538 0.0512
vn -0.8243 0.5643 0.0469
vn -0.5045 0.8634 0.0001
vn -0.8436 0.5368 -0.0132
vn -0.3004 0.9525 0.0504
vn -0.4907 0.8701 0.0467
vn -0.8398 0.5277 -0.1279
vn -0.8397 0.5278 0.1279
vn -0.8552 0.5182 0.0126
vn -0.1868 0.8874 -0.4216
vn 0.0035 0.9648 -0.2631
vn 0.1215 0.9893 -0.0807
vn -0.1742 0.9842 0.0310
vn 0.0557 0.9958 0.0724
vn 0.0370 0.9977 -0.0576
vn 0.1102 0.9922 0.0585
vn -0.0800 0.9938 -0.0775
vn -0.1029 0.9726 -0.2084
vn -0.2714 0.9593 0.0776
vn -0.3565 0.9263 0.1217
vn -0.1831 0.9764 0.1147
vn -0.0190 0.9985 0.0513
vn -0.0979 0.9939 -0.0515
vn 0.1313 0.9849 -0.1127
vn 0.4533 0.8786 0.1503
vn -0.4872 0.8730 0.0206
vn -0.3181 0.9279 -0.1943
vn -0.5622 0.8253 -0.0525
vn 0.4417 0.8910 0.1047
vn -0.0898 0.9893 -0.1146
vn -0.5024 0.8592 -0.0965
vn -0.0429 0.9987 0.0281
vn 0.1993 0.9799 -0.0106
vn 0.0052 0.9931 -0.1170
vn -0.5535 0.8320 -0.0376
vn 0.2274 0.9716 -0.0650
vn 0.0288 0.9799 -0.1973
vn -0.5856 0.7953 -0.1565
vn -0.0359 0.9953 -0.0902
vn -0.2033 0.9753 -0.0861
vn -0.1766 0.9178 -0.3557
vn 0.4062 0.9135 -0.0232
vn 0.5480 0.8339 0.0649
vn 0.5693 0.8221 0.0090
vn 0.1033 0.9904 0.0916
vn -0.0710 0.9968 -0.0369
vn -0.3662 0.9283 0.0645
vn -0.4844 0.8731 0.0560
vn -0.0760 0.9961 -0.0441
vn 0.4832 0.8753 -0.0157
vn 0.0326 0.9986 0.0424
vn 0.2445 0.9421 0.2294
vn 0.1896 0.9511 0.2439
vn -0.1815 0.9802 0.0797
vn 0.0301 0.9982 -0.0520
vn 0.1390 0.9897 -0.0354
vn -0.3643 0.9312 0.0069
vn -0.1036 0.9853 -0.1355
vn 0.0962 0.9941 0.0504
vn 0.3608 0.9271 -0.1013
vn 0.2807 0.9539 0.1062
vn 0.6169 0.7159 0.3268
vn 0.1973 0.9311 0.3067
vn -0.1208 0.9889 0.0860
vn 0.0717 0.9974 -0.0077
vn 0.2897 0.9565 0.0351
vn 0.3794 0.9040 0.1972
vn 0.1996 0.9787 -0.0473
vn -0.1262 0.9908 0.0491
vn -0.4698 0.8745 0.1201
vn -0.1567 0.9496 0.2715
vn -0.0314 0.9975 0.0634
vn 0.3441 0.9382 0.0370
vn 0.0855 0.9933 0.0773
vn -0.1613 0.9669 0.1976
vn 0.0244 0.9965 0.0802
vn -0.3715 0.9227 -0.1025
vn -0.5757 0.8028 -0.1551
vn 0.5540 0.8324 0.0120
vn 0.2244 0.9672 0.1189
vn -0.1892 0.9802 -0.0590
vn 0.3872 0.9215 0.0300
vn 0.4651 0.8460 0.2606
vt 0.372614 0.711396
vt 0.313692 0.497305
vt 0.372614 0.495584
vt 0.359905 0.280115
vt 0.873397 0.502697
vt 0.859211 0.470453
vt 0.873769 0.466911
vt 0.855902 0.667365
vt 0.855678 0.502175
vt 0.866990 0.163661
vt 0.835513 0.219364
vt 0.835901 0.124996
vt 0.316003 0.709331
vt 0.344256 0.868466
vt 0.307390 0.836341
vt 0.293946 0.947861
vt 0.276196 0.875006
vt 0.236180 0.969890
vt 0.875602 0.290671
vt 0.848498 0.230416
vt 0.903961 0.131536
vt 0.932319 0.288605
vt 0.875388 0.311309
vt 0.275566 0.721837
vt 0.932319 0.504418
vt 0.270840 0.498567
vt 0.303399 0.285508
vt 0.919610 0.719887
vt 0.322304 0.124996
vt 0.287329 0.159187
vt 0.267374 0.048584
vt 0.863104 0.714494
vt 0.882009 0.875006
vt 0.847034 0.840815
vt 0.843467 0.824246
vt 0.822037 0.724705
vt 0.262437 0.275296
vt 0.830545 0.501435
vt 0.827719 0.575578
vt 0.222316 0.499944
vt 0.229143 0.730327
vt 0.233869 0.890954
vt 0.790832 0.549523
vt 0.782021 0.500058
vt 0.177258 0.951418
vt 0.190702 0.877530
vt 0.122327 0.875006
vt 0.157302 0.840815
vt 0.084727 0.719887
vt 0.141233 0.714494
vt 0.072018 0.504418
vt 0.810327 0.203631
vt 0.791103 0.193025
vt 0.788726 0.272512
vt 0.751176 0.245450
vt 0.793574 0.109048
vt 0.182299 0.724705
vt 0.853651 0.052141
vt 0.173792 0.501435
vt 0.795885 0.030112
vt 0.736963 0.048584
vt 0.130940 0.502697
vt 0.750407 0.122472
vt 0.741899 0.275296
vt 0.744253 0.233016
vt 0.128734 0.290671
vt 0.072018 0.288605
vt 0.137347 0.163661
vt 0.100376 0.131536
vt 0.168435 0.124996
vt 0.150685 0.052141
vt 0.785547 0.381045
vt 0.808238 0.390813
vt 0.733497 0.498567
vt 0.735957 0.433196
vt 0.746647 0.444186
vt 0.782883 0.470953
vt 0.801447 0.727177
vt 0.820673 0.749522
vt 0.169066 0.278165
vt 0.778165 0.630118
vt 0.809050 0.651797
vt 0.215489 0.269674
vt 0.813635 0.877530
vt 0.799486 0.823348
vt 0.816191 0.831044
vt 0.253930 0.122472
vt 0.834573 0.826463
vt 0.827079 0.951418
vt 0.208452 0.030112
vt 0.210763 0.109048
vt 0.768157 0.969890
vt 0.770467 0.890954
vt 0.742016 0.775560
vt 0.773069 0.802526
vt 0.775743 0.711803
vt 0.771409 0.709292
vt 0.739540 0.532157
vt 0.732816 0.530742
vt 0.694829 0.521950
vt 0.690645 0.497305
vt 0.710390 0.947861
vt 0.728140 0.875006
vt 0.738494 0.365782
vt 0.721687 0.362847
vt 0.688334 0.709331
vt 0.728610 0.760787
vt 0.703309 0.713963
vt 0.704418 0.692935
vt 0.700938 0.285508
vt 0.710123 0.358852
vt 0.688538 0.690628
vt 0.631723 0.495584
vt 0.747470 0.175231
vt 0.735062 0.173043
vt 0.631723 0.711396
vt 0.696946 0.836341
vt 0.660081 0.868466
vt 0.717007 0.159187
vt 0.682032 0.124996
vt 0.644431 0.280115
vt 0.697584 0.354520
vt 0.780717 0.544045
vt 0.731362 0.599426
vt 0.702638 0.567937
vt 0.754831 0.617144
vt 0.729289 0.697329
vt 0.824534 0.659182
vt 0.724355 0.695831
vt 0.775194 0.730327
vt 0.728770 0.721837
vt 0.832552 0.406589
vt 0.862327 0.306427
vt 0.868742 0.308701
vt 0.763666 0.373808
vt 0.788763 0.272538
vt 0.711753 0.405873
vt 0.847495 0.422146
vt 0.830654 0.496255
vt 0.788071 0.474847
vt 0.831581 0.496585
vt 0.835271 0.278165
vt 0.834879 0.296698
vt 0.831155 0.295317
vt 0.770295 0.183941
vt 0.860384 0.285952
vt 0.728996 0.193034
vt 0.788848 0.269674
vt 0.835959 0.476110
s 1
usemtl Material.002
f 1/1/1 2/2/2 3/3/3
f 2/2/2 4/4/4 3/3/3
f 61/5/5 133/6/6 129/7/7
f 78/8/8 132/9/9 61/5/5
f 58/10/10 145/11/11 57/12/12
f 2/2/2 1/1/1 5/13/13
f 1/1/1 6/14/14 5/13/13
f 5/13/13 6/14/14 7/15/15
f 6/14/14 8/16/16 7/15/15
f 7/15/15 8/16/16 9/17/17
f 8/16/16 10/18/18 9/17/17
f 62/19/19 143/20/20 58/10/10
f 34/21/21 62/19/19 58/10/10
f 32/22/22 62/19/19 34/21/21
f 129/7/7 188/23/23 32/22/22
f 9/17/17 11/24/24 7/15/15
f 27/25/25 61/5/5 32/22/22
f 7/15/15 11/24/24 5/13/13
f 11/24/24 12/26/26 5/13/13
f 5/13/13 12/26/26 2/2/2
f 12/26/26 13/27/27 2/2/2
f 2/2/2 13/27/27 4/4/4
f 25/28/28 61/5/5 27/25/25
f 4/4/4 13/27/27 14/29/29
f 13/27/27 15/30/30 14/29/29
f 14/29/29 15/30/30 16/31/31
f 60/32/32 61/5/5 25/28/28
f 23/33/33 60/32/32 25/28/28
f 53/34/34 60/32/32 23/33/33
f 60/32/32 66/35/35 54/36/36
f 15/30/30 13/27/27 17/37/37
f 59/38/38 78/8/8 82/39/39
f 13/27/27 12/26/26 17/37/37
f 17/37/37 12/26/26 18/40/40
f 12/26/26 11/24/24 18/40/40
f 18/40/40 11/24/24 19/41/41
f 11/24/24 9/17/17 19/41/41
f 19/41/41 9/17/17 20/42/42
f 9/17/17 10/18/18 20/42/42
f 59/38/38 80/43/43 55/44/44
f 10/18/18 21/45/45 20/42/42
f 20/42/42 21/45/45 22/46/46
f 21/45/45 23/47/33 22/46/46
f 22/46/46 23/47/33 24/48/47
f 23/47/33 25/49/28 24/48/47
f 24/48/47 25/49/28 26/50/48
f 25/49/28 27/51/25 26/50/48
f 142/52/49 177/53/50 139/53/51
f 151/54/52 178/55/53 159/54/54
f 57/12/12 145/11/11 142/52/49
f 57/12/12 139/53/51 56/56/55
f 24/48/47 26/50/48 22/46/46
f 26/50/48 28/57/56 22/46/46
f 22/46/46 28/57/56 20/42/42
f 36/58/57 34/21/21 58/10/10
f 20/42/42 28/57/56 19/41/41
f 28/57/56 29/59/58 19/41/41
f 19/41/41 29/59/58 18/40/40
f 57/12/12 36/58/57 58/10/10
f 40/60/59 36/58/57 57/12/12
f 56/56/55 40/60/59 57/12/12
f 16/61/31 40/60/59 56/56/55
f 29/59/58 28/57/56 30/62/60
f 49/63/61 16/61/31 56/56/55
f 28/57/56 26/50/48 30/62/60
f 50/64/62 153/65/63 152/55/64
f 26/50/48 27/51/25 30/62/60
f 30/62/60 27/51/25 31/66/65
f 27/51/25 32/67/22 31/66/65
f 31/66/65 32/67/22 33/68/66
f 32/67/22 34/69/21 33/68/66
f 33/68/66 34/69/21 35/70/67
f 34/69/21 36/71/57 35/70/67
f 127/72/68 163/73/69 169/72/70
f 51/74/71 134/75/72 136/76/73
f 51/74/71 135/77/74 55/44/44
f 102/78/75 116/79/76 118/78/77
f 33/68/66 35/70/67 31/66/65
f 35/70/67 37/80/78 31/66/65
f 31/66/65 37/80/78 30/62/60
f 102/78/75 72/81/79 79/82/80
f 30/62/60 37/80/78 29/59/58
f 37/80/78 38/83/81 29/59/58
f 29/59/58 38/83/81 18/40/40
f 52/84/82 65/85/83 63/86/84
f 18/40/40 38/83/81 17/37/37
f 38/83/81 39/87/85 17/37/37
f 17/37/37 39/87/85 15/30/30
f 52/84/82 103/88/86 66/35/35
f 15/30/30 39/87/85 16/31/31
f 21/89/45 53/34/34 23/33/33
f 16/31/31 39/87/85 40/90/59
f 39/87/85 41/91/87 40/90/59
f 40/90/59 41/91/87 36/71/57
f 52/84/82 53/34/34 21/89/45
f 36/71/57 41/91/87 35/70/67
f 10/92/18 52/84/82 21/89/45
f 35/70/67 41/91/87 37/80/78
f 43/93/88 52/84/82 10/92/18
f 37/80/78 41/91/87 38/83/81
f 41/91/87 39/87/85 38/83/81
f 69/94/89 110/95/90 67/95/91
f 101/96/92 115/97/93 99/97/94
f 51/74/71 76/98/95 71/99/96
f 51/74/71 75/100/97 45/101/98
f 8/102/16 42/103/99 43/93/88
f 50/64/62 123/104/100 126/105/101
f 42/103/99 69/94/89 43/93/88
f 44/106/102 68/107/103 42/103/99
f 64/108/104 114/109/105 108/108/106
f 47/110/107 50/64/62 137/111/108
f 97/112/109 3/113/3 45/101/98
f 49/63/61 144/114/110 146/115/111
f 3/113/3 44/106/102 1/116/1
f 44/106/102 46/117/112 1/116/1
f 1/116/1 46/117/112 6/118/14
f 46/117/112 42/103/99 6/118/14
f 6/118/14 42/103/99 8/102/16
f 48/119/113 49/63/61 146/115/111
f 14/120/29 16/61/31 49/63/61
f 48/119/113 14/120/29 49/63/61
f 4/121/4 14/120/29 48/119/113
f 8/102/16 43/93/88 10/92/18
f 47/110/107 4/121/4 48/119/113
f 3/113/3 4/121/4 47/110/107
f 3/113/3 122/122/114 45/101/98
f 42/103/99 46/117/112 44/106/102
f 102/78/75 117/96/115 101/96/92
f 65/85/83 43/93/88 67/95/91
f 66/35/35 100/79/116 54/36/36
f 69/94/89 67/95/91 43/93/88
f 67/95/91 109/85/117 65/85/83
f 68/107/103 108/108/106 111/107/118
f 85/81/119 93/43/120 92/82/121
f 80/43/43 86/123/122 73/123/123
f 80/43/43 73/123/123 55/44/44
f 70/124/124 87/125/125 83/124/126
f 77/126/127 104/127/128 70/124/124
f 72/81/79 92/82/121 79/82/80
f 76/98/95 55/44/44 73/123/123
f 80/43/43 95/39/129 93/43/120
f 79/82/80 81/128/130 54/36/36
f 74/125/131 88/100/132 87/125/125
f 70/124/124 96/129/133 74/125/131
f 79/82/80 94/128/134 81/128/130
f 78/8/8 54/36/36 81/128/130
f 89/98/135 83/124/126 84/99/136
f 90/126/137 86/123/122 85/81/119
f 95/39/129 92/82/121 93/43/120
f 84/99/136 87/125/125 88/100/132
f 95/39/129 91/8/138 94/128/134
f 71/99/96 88/100/132 75/100/97
f 77/126/127 83/124/126 90/126/137
f 81/128/130 91/8/138 78/8/8
f 76/98/95 84/99/136 71/99/96
f 82/39/39 91/8/138 95/39/129
f 77/126/127 85/81/119 72/81/79
f 73/123/123 89/98/135 76/98/95
f 106/130/139 115/97/93 117/96/115
f 96/129/133 98/109/140 74/125/131
f 98/109/140 44/106/102 97/112/109
f 96/129/133 114/109/105 98/109/140
f 99/97/94 72/81/79 101/96/92
f 100/79/116 102/78/75 54/36/36
f 103/88/86 107/86/141 119/88/142
f 104/127/128 113/129/143 96/129/133
f 100/79/116 119/88/142 116/79/76
f 106/130/139 109/85/117 110/95/90
f 106/130/139 112/94/144 105/131/145
f 108/108/106 113/129/143 105/131/145
f 111/107/118 108/108/106 105/131/145
f 107/86/141 118/78/77 116/79/76
f 112/94/144 111/107/118 105/131/145
f 117/96/115 118/78/77 106/130/139
f 115/97/93 105/131/145 120/127/146
f 116/79/76 119/88/142 107/86/141
f 113/129/143 120/127/146 105/131/145
f 65/85/83 107/86/141 63/86/84
f 99/97/94 120/127/146 104/127/128
f 69/94/89 111/107/118 112/94/144
f 74/125/131 98/109/140 97/112/109
f 97/112/109 75/100/97 74/125/131
f 128/132/147 149/133/148 148/134/149
f 143/20/20 157/11/150 145/11/11
f 127/72/68 121/135/151 151/136/52
f 137/111/108 166/137/152 138/137/153
f 121/135/151 169/72/70 161/135/154
f 122/122/114 138/137/153 45/101/98
f 121/135/151 50/64/62 151/136/52
f 129/7/7 133/6/6 125/138/155
f 145/11/11 181/52/156 142/52/49
f 130/139/157 55/44/44 131/140/158
f 138/137/153 175/75/159 134/75/72
f 124/73/160 170/132/161 163/73/69
f 146/115/111 184/114/162 183/115/163
f 135/77/74 162/140/164 131/140/158
f 130/141/157 132/9/9 59/38/38
f 135/77/74 131/140/158 55/44/44
f 134/75/72 45/101/98 138/137/153
f 128/132/147 165/138/165 170/132/161
f 156/142/166 185/143/167 158/144/168
f 139/53/51 140/145/169 56/56/55
f 140/145/169 49/63/61 56/56/55
f 141/146/170 155/20/171 143/20/20
f 130/141/157 176/9/172 132/9/9
f 140/145/169 184/114/162 144/114/110
f 133/6/6 176/9/172 174/6/173
f 139/53/51 179/145/174 140/145/169
f 149/133/148 62/19/19 148/134/149
f 152/55/64 151/54/52 50/64/62
f 150/147/175 183/115/163 182/147/176
f 134/75/72 160/76/177 136/76/73
f 147/143/178 124/73/160 154/144/179
f 153/65/63 182/147/176 187/65/180
f 154/144/179 127/72/68 151/136/52
f 153/65/63 47/110/107 150/147/175
f 159/148/54 156/142/166 158/144/168
f 178/55/53 177/53/50 159/54/54
f 170/132/161 162/140/164 163/73/69
f 163/73/69 168/77/181 169/72/70
f 171/104/182 166/137/152 167/105/183
f 165/138/165 174/6/173 164/149/184
f 160/76/177 169/72/70 168/77/181
f 175/75/159 161/135/154 160/76/177
f 170/132/161 164/149/184 173/139/185
f 176/9/172 164/149/184 174/6/173
f 166/137/152 172/111/186 167/105/183
f 155/20/171 180/146/187 156/142/166
f 184/114/162 182/147/176 183/115/163
f 157/11/150 159/148/54 181/52/156
f 157/11/150 155/20/171 156/142/166
f 177/53/50 181/52/156 159/148/54
f 180/146/187 185/143/167 156/142/166
f 187/65/180 179/145/174 178/55/53
f 126/105/101 171/104/182 167/105/183
f 137/111/108 167/105/183 172/111/186
f 121/135/151 171/104/182 123/104/100
f 154/144/179 185/143/167 147/143/178
f 125/138/155 174/6/173 165/138/165
f 152/55/64 187/65/180 178/55/53
f 131/140/158 173/139/185 130/139/157
f 149/133/148 185/143/167 186/133/188
f 154/144/179 159/136/54 158/144/168
f 136/76/73 168/77/181 135/77/74
f 149/133/148 180/146/187 141/146/170
f 146/115/111 150/147/175 48/119/113
f 150/147/175 47/110/107 48/119/113
f 137/111/108 122/122/114 47/110/107
f 137/111/108 50/64/62 126/105/101
f 125/138/155 188/23/23 129/7/7
f 188/23/23 148/134/149 62/19/19
f 118/78/77 109/85/117 106/130/139
f 109/85/117 118/78/77 107/86/141
f 61/5/5 132/9/9 133/6/6
f 61/5/5 60/32/32 78/8/8
f 78/8/8 59/38/38 132/9/9
f 58/10/10 143/20/20 145/11/11
f 62/19/19 141/146/170 143/20/20
f 32/22/22 61/5/5 129/7/7
f 188/23/23 62/19/19 32/22/22
f 60/32/32 53/34/34 66/35/35
f 59/38/38 82/39/39 80/43/43
f 142/52/49 181/52/156 177/53/50
f 151/54/52 152/55/64 178/55/53
f 57/12/12 142/52/49 139/53/51
f 127/72/68 124/73/160 163/73/69
f 51/74/71 136/76/73 135/77/74
f 102/78/75 100/79/116 116/79/76
f 79/82/80 54/36/36 102/78/75
f 102/78/75 101/96/92 72/81/79
f 66/35/35 53/34/34 52/84/82
f 52/84/82 63/86/84 103/88/86
f 69/94/89 112/94/144 110/95/90
f 101/96/92 117/96/115 115/97/93
f 51/74/71 71/99/96 75/100/97
f 42/103/99 68/107/103 69/94/89
f 44/106/102 64/108/104 68/107/103
f 64/108/104 98/109/140 114/109/105
f 97/112/109 44/106/102 3/113/3
f 3/113/3 47/110/107 122/122/114
f 102/78/75 118/78/77 117/96/115
f 65/85/83 52/84/82 43/93/88
f 66/35/35 103/88/86 100/79/116
f 67/95/91 110/95/90 109/85/117
f 68/107/103 64/108/104 108/108/106
f 85/81/119 86/123/122 93/43/120
f 80/43/43 93/43/120 86/123/122
f 70/124/124 74/125/131 87/125/125
f 77/126/127 99/97/94 104/127/128
f 72/81/79 85/81/119 92/82/121
f 76/98/95 51/74/71 55/44/44
f 80/43/43 82/39/39 95/39/129
f 74/125/131 75/100/97 88/100/132
f 70/124/124 104/127/128 96/129/133
f 79/82/80 92/82/121 94/128/134
f 78/8/8 60/32/32 54/36/36
f 89/98/135 90/126/137 83/124/126
f 90/126/137 89/98/135 86/123/122
f 95/39/129 94/128/134 92/82/121
f 84/99/136 83/124/126 87/125/125
f 71/99/96 84/99/136 88/100/132
f 77/126/127 70/124/124 83/124/126
f 81/128/130 94/128/134 91/8/138
f 76/98/95 89/98/135 84/99/136
f 82/39/39 78/8/8 91/8/138
f 77/126/127 90/126/137 85/81/119
f 73/123/123 86/123/122 89/98/135
f 98/109/140 64/108/104 44/106/102
f 96/129/133 113/129/143 114/109/105
f 99/97/94 77/126/127 72/81/79
f 103/88/86 63/86/84 107/86/141
f 104/127/128 120/127/146 113/129/143
f 100/79/116 103/88/86 119/88/142
f 106/130/139 110/95/90 112/94/144
f 108/108/106 114/109/105 113/129/143
f 115/97/93 106/130/139 105/131/145
f 65/85/83 109/85/117 107/86/141
f 99/97/94 115/97/93 120/127/146
f 69/94/89 68/107/103 111/107/118
f 97/112/109 45/101/98 75/100/97
f 148/134/149 125/138/155 128/132/147
f 128/132/147 147/143/178 149/133/148
f 143/20/20 155/20/171 157/11/150
f 137/111/108 172/111/186 166/137/152
f 121/135/151 127/72/68 169/72/70
f 122/122/114 137/111/108 138/137/153
f 121/135/151 123/104/100 50/64/62
f 145/11/11 157/11/150 181/52/156
f 130/139/157 59/38/38 55/44/44
f 138/137/153 166/137/152 175/75/159
f 124/73/160 128/132/147 170/132/161
f 146/115/111 144/114/110 184/114/162
f 135/77/74 168/77/181 162/140/164
f 134/75/72 51/74/71 45/101/98
f 128/132/147 125/138/155 165/138/165
f 140/145/169 144/114/110 49/63/61
f 141/146/170 180/146/187 155/20/171
f 130/141/157 173/141/185 176/9/172
f 140/145/169 179/145/174 184/114/162
f 133/6/6 132/9/9 176/9/172
f 139/53/51 177/53/50 179/145/174
f 149/133/148 141/146/170 62/19/19
f 150/147/175 146/115/111 183/115/163
f 134/75/72 175/75/159 160/76/177
f 147/143/178 128/132/147 124/73/160
f 153/65/63 150/147/175 182/147/176
f 154/144/179 124/73/160 127/72/68
f 153/65/63 50/64/62 47/110/107
f 178/55/53 179/145/174 177/53/50
f 170/132/161 173/139/185 162/140/164
f 163/73/69 162/140/164 168/77/181
f 171/104/182 175/75/159 166/137/152
f 160/76/177 161/135/154 169/72/70
f 175/75/159 171/104/182 161/135/154
f 170/132/161 165/138/165 164/149/184
f 176/9/172 173/141/185 164/149/184
f 184/114/162 187/65/180 182/147/176
f 157/11/150 156/142/166 159/148/54
f 180/146/187 186/133/188 185/143/167
f 187/65/180 184/114/162 179/145/174
f 126/105/101 123/104/100 171/104/182
f 137/111/108 126/105/101 167/105/183
f 121/135/151 161/135/154 171/104/182
f 154/144/179 158/144/168 185/143/167
f 125/138/155 133/6/6 174/6/173
f 152/55/64 153/65/63 187/65/180
f 131/140/158 162/140/164 173/139/185
f 149/133/148 147/143/178 185/143/167
f 154/144/179 151/136/52 159/136/54
f 136/76/73 160/76/177 168/77/181
f 149/133/148 186/133/188 180/146/187
f 125/138/155 148/134/149 188/23/23
