# Blender 5.1.0
# www.blender.org
mtllib model_0.mtl
o model_0
v -1.048258 -1.526471 0.754733
v -0.830219 0.529513 1.286121
v -1.065030 0.529513 0.754733
v -1.048258 2.658925 0.754732
v -0.813447 -1.526471 1.261967
v -0.897308 -3.068459 0.754733
v -0.746358 -2.848175 1.153274
v -0.528319 -3.876167 0.754733
v -0.461231 -3.288743 1.261967
v 0.008391 -4.096451 0.754733
v -0.478003 -1.673327 1.431045
v -0.478003 0.529513 1.455199
v -0.813447 2.658925 1.261966
v -0.897308 4.200913 0.754732
v -0.746358 3.980629 1.153273
v -0.528319 5.008621 0.754732
v -0.478003 2.805781 1.431044
v 0.008391 0.529513 1.491430
v 0.008391 -1.746755 1.455199
v 0.008391 -3.509027 1.286121
v 0.528329 -3.876167 0.754733
v 0.461240 -3.288743 1.261967
v 0.897317 -3.068459 0.754733
v 0.746367 -2.848175 1.153274
v 1.048267 -1.526471 0.754733
v 0.813456 -1.526471 1.261967
v 1.065039 0.529513 0.754733
v 0.478012 -1.673327 1.431045
v 0.478012 0.529513 1.455199
v 0.830229 0.529513 1.286121
v 0.813456 2.658925 1.261966
v 1.048267 2.658925 0.754732
v 0.746367 3.980629 1.153273
v 0.897317 4.200913 0.754732
v 0.461240 4.421197 1.261966
v 0.528329 5.008621 0.754732
v 0.478012 2.805781 1.431044
v 0.008391 2.879209 1.455198
v -0.461231 4.421197 1.261966
v 0.008391 5.228905 0.754732
v 0.008391 4.641481 1.286120
v -0.461231 -3.288743 0.247499
v 0.008391 -3.509027 0.223345
v -0.813447 -1.526471 0.247499
v -0.830219 0.529513 0.223345
v -0.746358 -2.848175 0.356192
v -0.813447 2.658925 0.247498
v -0.746358 3.980629 0.356191
v -0.461231 4.421197 0.247498
v -0.478003 2.805781 0.018035
v -0.478003 0.529513 -0.006118
v 0.461240 -3.288743 0.247499
v 0.746367 -2.848175 0.356192
v 0.478012 -1.673327 0.018036
v 0.008391 0.529513 -0.042349
v 0.008391 4.641481 0.223344
v 0.461240 4.421197 0.247498
v 0.746367 3.980629 0.356191
v 0.478012 0.529513 -0.006118
v 0.813456 -1.526471 0.247499
v 0.830229 0.529513 0.223345
v 0.813456 2.658925 0.247498
v 0.466342 -2.797368 0.177701
v -0.689224 -1.580855 0.162523
v 0.294558 -2.721176 0.154149
v 0.708072 -2.680520 0.307936
v 0.008391 -2.538863 0.097022
v -0.473738 -2.084119 0.076387
v -0.323490 -2.256474 0.083257
v -0.478003 -0.465593 0.004793
v -0.478003 0.212067 -0.002638
v 0.008391 -0.756155 -0.021885
v 0.008391 0.094695 -0.035428
v -0.719421 -0.163445 0.158760
v -0.791559 0.287724 0.200809
v -0.407507 0.199601 -0.006118
v -0.229146 -0.635109 -0.006118
v 0.739255 -1.071679 0.191398
v 0.325598 -0.958402 -0.001562
v 0.111796 0.044472 -0.029053
v 0.478012 -1.026862 0.010947
v 0.478012 -0.201996 0.001903
v -0.440100 -0.452652 0.060465
v -0.440100 0.160786 0.053739
v 0.000199 -0.715679 0.036315
v 0.000199 0.054537 0.024055
v -0.658639 -0.179139 0.199840
v -0.723940 0.229273 0.237905
v -0.376285 0.149501 0.050588
v -0.214827 -0.606104 0.050588
v 0.661799 -1.001301 0.229385
v 0.287344 -0.898759 0.054712
v 0.093805 0.009073 0.029826
v 0.425314 -0.960731 0.066036
v 0.425314 -0.214037 0.057849
v -0.518797 -1.418190 0.041815
v -0.814926 -1.345110 0.245368
v -0.683634 -1.377511 0.155121
v -0.035755 -1.540156 -0.006118
v 0.475289 -1.935649 0.055298
v 0.008391 -1.563637 -0.009033
v 0.271588 -1.705603 0.007419
v 0.629248 -2.718622 0.265469
v -0.478003 -1.431519 0.015384
v -0.450390 -1.685127 0.066660
v 0.007993 -1.754327 0.043897
v 0.439571 -2.744435 0.217131
v -0.649446 -1.597981 0.202826
v 0.277679 -2.672631 0.194935
v 0.007993 -2.500817 0.141097
v -0.446370 -2.072262 0.121651
v -0.304775 -2.234692 0.128125
v -0.488835 -1.444684 0.089070
v -0.644179 -1.406347 0.195850
v -0.033611 -1.559625 0.043897
v 0.448002 -1.932343 0.101776
v 0.007993 -1.581754 0.041151
v 0.256033 -1.715544 0.056655
v 0.593095 -2.670225 0.299843
v -0.450390 -1.457245 0.064161
v -0.212892 1.810225 -0.006118
v -0.818912 1.965071 0.239628
v -0.478003 1.883271 0.008247
v 0.239601 1.650195 -0.012620
v 0.604205 1.330588 0.089291
v -0.616901 1.908122 0.099000
v 0.008391 1.743335 -0.023633
v 0.478012 1.496483 0.004142
v 0.827398 0.888916 0.227421
v 0.478012 0.582327 -0.005558
v 0.061748 0.788136 -0.035489
v 0.684589 0.529513 0.128463
v 0.708393 0.849051 0.149235
v -0.478003 1.195979 0.000954
v 0.008391 0.826355 -0.037772
v -0.362444 1.087761 -0.006118
v -0.713814 1.935443 0.166465
v -0.685163 1.466965 0.138791
v 0.008391 3.720150 0.103379
v -0.210722 3.814526 0.130856
v 0.686883 2.714338 0.160915
v 0.215109 3.583101 0.109653
v 0.589919 3.295704 0.159049
v -0.467021 3.863513 0.168281
v 0.471574 3.425933 0.106125
v -0.570484 3.874564 0.247498
v 0.478012 2.616835 0.016030
v 0.783184 2.466757 0.224611
v 0.706521 2.504459 0.172212
v -0.613670 3.658486 0.247498
v 0.008391 2.850004 -0.006569
v -0.390681 3.135344 0.054894
v -0.473363 3.252697 0.081518
v 0.441711 2.629830 0.013368
v 0.565362 3.252351 0.202277
v 0.457773 2.781328 0.066702
v 0.451582 3.377556 0.151394
v 0.422872 2.612164 0.062215
v 0.005894 2.824088 0.043071
v -0.350261 1.129585 0.043480
v -0.206478 1.824178 0.043480
v 0.057567 0.841518 0.015243
v 0.228559 1.670322 0.037230
v 0.496524 0.838869 0.072779
v 0.579097 1.363045 0.135209
v -0.660530 1.494160 0.182799
v -0.594902 1.918298 0.144544
v 0.006268 0.878264 0.013048
v 0.006268 1.759869 0.026641
v 0.457773 1.522539 0.053345
v -0.461362 1.894406 0.057291
v -0.688076 1.944565 0.209406
v 0.457773 0.643649 0.044019
v 0.679266 0.900084 0.192841
v -0.461362 1.233628 0.050280
v 0.656380 0.592873 0.172870
v 0.006268 3.660423 0.148754
v -0.377408 3.098177 0.102139
v -0.204392 3.751158 0.175170
v 0.658586 2.693413 0.204070
v 0.205012 3.528661 0.154786
v -0.591795 3.601138 0.287313
v -0.550275 3.808880 0.287313
v -0.450803 3.798255 0.211153
v 0.457773 2.599671 0.064775
v 0.677466 2.491630 0.214932
v -0.456901 3.211003 0.127736
v 0.815089 2.451653 0.245147
vn -0.9978 -0.0433 0.0510
vn -0.8267 -0.0002 0.5626
vn -0.9890 -0.0000 -0.1479
vn -0.9977 0.0424 0.0532
vn 0.8688 -0.0019 -0.4951
vn 0.5233 0.0176 -0.8520
vn 0.1357 -0.0348 -0.9901
vn 0.8100 0.0130 -0.5863
vn 0.7947 -0.0479 -0.6051
vn 0.4908 -0.0123 -0.8712
vn 0.3884 -0.0107 -0.9214
vn 0.7528 0.2012 -0.6268
vn 0.4786 0.0857 -0.8738
vn 0.3192 0.0797 -0.9443
vn 0.3622 0.3458 -0.8656
vn -0.7432 -0.0454 0.6675
vn -0.9767 -0.2109 0.0391
vn -0.7162 -0.1902 0.6714
vn -0.7332 -0.6755 -0.0782
vn -0.2910 -0.2781 0.9154
vn -0.0000 -1.0000 0.0062
vn 0.8753 0.0574 -0.4802
vn 0.4339 0.0617 -0.8988
vn 0.9767 0.2109 -0.0391
vn 0.9977 0.0424 -0.0532
vn 0.8320 0.0128 -0.5547
vn -0.2237 -0.0462 0.9736
vn 0.9890 -0.0000 0.1479
vn -0.3022 -0.0000 0.9532
vn -0.7419 0.0445 0.6690
vn 0.9978 -0.0433 -0.0510
vn -0.9767 0.2109 0.0391
vn -0.7162 0.1902 0.6714
vn -0.7332 0.6755 -0.0782
vn 0.9767 -0.2109 -0.0391
vn 0.7656 -0.2017 -0.6108
vn 0.3746 -0.0521 -0.9257
vn 0.5610 -0.1081 -0.8207
vn -0.2227 0.0453 0.9738
vn 0.0682 -0.1176 -0.9907
vn -0.0169 -0.0000 0.9999
vn 0.0006 -0.0508 0.9987
vn 0.0480 -0.2914 0.9554
vn -0.0009 -0.0028 -1.0000
vn 0.0169 -0.1027 -0.9946
vn 0.7403 -0.6682 0.0737
vn 0.4771 -0.2521 0.8419
vn 0.8398 -0.1279 0.5276
vn 0.7872 -0.0413 0.6153
vn 0.0406 0.0792 -0.9960
vn 0.0701 0.0814 -0.9942
vn 0.0365 0.0668 -0.9971
vn -0.0508 0.0630 -0.9967
vn 0.0132 0.0677 -0.9976
vn 0.1584 0.3880 -0.9079
vn -0.0191 0.2034 -0.9789
vn 0.0645 0.1965 -0.9784
vn -0.0464 0.3951 -0.9175
vn 0.2540 -0.0519 0.9658
vn 0.7403 0.6682 0.0737
vn 0.1744 -0.0000 0.9847
vn -0.0000 1.0000 0.0062
vn 0.6824 -0.0002 0.7310
vn -0.5195 0.3544 -0.7775
vn -0.3443 0.0505 -0.9375
vn -0.4660 0.1857 -0.8651
vn 0.7883 0.0404 0.6139
vn 0.8398 0.1279 0.5276
vn 0.4771 0.2521 0.8419
vn 0.0054 -0.0309 -0.9995
vn 0.0367 -0.0315 -0.9988
vn 0.0396 -0.0459 -0.9982
vn -0.0533 -0.0476 -0.9974
vn -0.3119 0.0025 -0.9501
vn -0.4367 0.0644 -0.8973
vn 0.0008 0.1077 -0.9942
vn -0.0016 0.1093 -0.9940
vn 0.0039 -0.0928 -0.9957
vn -0.0378 -0.2954 -0.9546
vn -0.0167 -0.2523 -0.9675
vn 0.0136 -0.2011 -0.9795
vn 0.2548 0.0509 0.9656
vn 0.0006 -0.0509 -0.9987
vn 0.0594 0.0548 -0.9967
vn 0.0979 0.0559 -0.9936
vn 0.0011 0.0499 0.9988
vn 0.3710 -0.3920 -0.8419
vn 0.1443 -0.0680 -0.9872
vn 0.3928 -0.0237 -0.9193
vn -0.2910 0.2781 0.9154
vn 0.3074 -0.1369 -0.9417
vn 0.0480 0.2914 0.9554
vn -0.0565 -0.3690 -0.9277
vn 0.0946 -0.0670 -0.9933
vn -0.0605 -0.0945 -0.9937
vn 0.0021 -0.0501 -0.9987
vn 0.0492 -0.0486 -0.9976
vn -0.0718 -0.0665 -0.9952
vn -0.1993 -0.4417 -0.8747
vn -0.1105 -0.2317 -0.9665
vn -0.1035 -0.1469 -0.9837
vn -0.5246 -0.2029 -0.8268
vn -0.8179 0.0010 -0.5753
vn -0.4754 -0.0830 -0.8758
vn -0.5053 -0.2723 -0.8188
vn -0.1484 -0.0382 -0.9882
vn -0.5691 -0.0963 -0.8166
vn -0.2909 -0.1045 -0.9510
vn -0.8449 -0.0475 -0.5328
vn -0.4967 -0.0727 -0.8649
vn -0.5392 -0.0585 -0.8401
vn -0.4153 -0.2198 -0.8827
vn -0.2486 0.0473 -0.9675
vn -0.8448 0.0400 -0.5335
vn -0.5240 0.0042 -0.8517
vn -0.8397 -0.0132 -0.5430
vn -0.2013 0.0733 -0.9768
vn -0.4555 0.0402 -0.8894
vn -0.8398 -0.1279 -0.5276
vn -0.8398 0.1279 -0.5277
vn -0.8552 0.0126 -0.5181
vn 0.1268 -0.0681 -0.9896
vn -0.0360 0.0971 -0.9946
vn 0.1098 0.0632 -0.9919
vn 0.0257 0.0647 -0.9976
vn -0.0458 -0.0902 -0.9949
vn 0.0186 -0.0891 -0.9958
vn -0.0973 -0.1485 -0.9841
vn -0.1757 0.0561 -0.9829
vn -0.4812 0.0331 -0.8760
vn -0.2798 0.1310 -0.9511
vn -0.2491 0.1194 -0.9611
vn -0.0213 0.0486 -0.9986
vn -0.2417 -0.0613 -0.9684
vn 0.0530 -0.1414 -0.9885
vn 0.4978 0.1060 -0.8608
vn -0.4240 -0.1136 -0.8985
vn -0.5630 -0.0567 -0.8245
vn 0.3044 0.0933 -0.9479
vn -0.3934 -0.1204 -0.9114
vn -0.0868 -0.0955 -0.9916
vn -0.0182 0.0677 -0.9975
vn 0.1994 -0.0107 -0.9799
vn 0.0005 -0.1083 -0.9941
vn -0.5897 -0.2414 -0.7707
vn 0.2274 -0.0650 -0.9716
vn 0.0357 -0.1409 -0.9894
vn -0.1343 -0.2338 -0.9630
vn -0.1836 -0.0950 -0.9784
vn 0.5084 -0.0133 -0.8610
vn 0.3872 -0.0346 -0.9213
vn 0.4303 0.0450 -0.9016
vn 0.5543 0.0473 -0.8310
vn 0.5585 0.0108 -0.8294
vn 0.2666 0.0065 -0.9638
vn 0.0885 0.0700 -0.9936
vn -0.0709 -0.0371 -0.9968
vn -0.4821 0.0430 -0.8751
vn 0.1475 -0.1115 -0.9828
vn -0.3268 0.1045 -0.9393
vn -0.0850 -0.0523 -0.9950
vn 0.1834 0.2260 -0.9567
vn 0.2649 0.2887 -0.9201
vn -0.2218 0.0814 -0.9717
vn 0.1239 -0.0472 -0.9912
vn -0.3197 0.0324 -0.9470
vn -0.4811 0.0054 -0.8767
vn 0.0065 0.0700 -0.9975
vn 0.0978 0.0657 -0.9930
vn 0.2946 -0.1094 -0.9493
vn 0.2489 0.1087 -0.9624
vn 0.6169 0.3269 -0.7159
vn 0.3272 0.5874 -0.7402
vn -0.1244 0.0716 -0.9896
vn 0.2681 0.0111 -0.9633
vn 0.2607 0.0871 -0.9615
vn 0.3794 0.1969 -0.9040
vn -0.1026 0.0655 -0.9926
vn 0.2135 -0.0262 -0.9766
vn -0.4759 0.1342 -0.8692
vn -0.0796 0.2455 -0.9661
vn -0.0200 0.0745 -0.9970
vn 0.0833 0.0596 -0.9947
vn -0.1203 0.2218 -0.9677
vn -0.5632 -0.0922 -0.8212
vn -0.3114 -0.0810 -0.9468
vn 0.5541 0.0120 -0.8324
vn 0.4534 0.2841 -0.8448
vt 0.372614 0.711396
vt 0.313692 0.497305
vt 0.372614 0.495584
vt 0.359905 0.280115
vt 0.873397 0.502697
vt 0.855678 0.502175
vt 0.859211 0.470453
vt 0.873769 0.466911
vt 0.863104 0.714494
vt 0.855902 0.667365
vt 0.830545 0.501435
vt 0.866990 0.163661
vt 0.848498 0.230416
vt 0.835513 0.219364
vt 0.835901 0.124996
vt 0.316003 0.709331
vt 0.344256 0.868466
vt 0.307390 0.836341
vt 0.293946 0.947861
vt 0.276196 0.875006
vt 0.236180 0.969890
vt 0.875602 0.290671
vt 0.860384 0.285952
vt 0.903961 0.131536
vt 0.932319 0.288605
vt 0.875388 0.311309
vt 0.275566 0.721837
vt 0.932319 0.504418
vt 0.270840 0.498567
vt 0.303399 0.285508
vt 0.919610 0.719887
vt 0.322304 0.124996
vt 0.287329 0.159187
vt 0.267374 0.048584
vt 0.882009 0.875006
vt 0.847034 0.840815
vt 0.822037 0.724705
vt 0.843467 0.824246
vt 0.262437 0.275296
vt 0.827719 0.575578
vt 0.222316 0.499944
vt 0.229143 0.730327
vt 0.233869 0.890954
vt 0.782021 0.500058
vt 0.790832 0.549523
vt 0.177258 0.951418
vt 0.190702 0.877530
vt 0.122327 0.875006
vt 0.157302 0.840815
vt 0.084727 0.719887
vt 0.141233 0.714494
vt 0.072018 0.504418
vt 0.791103 0.193025
vt 0.810327 0.203631
vt 0.788726 0.272512
vt 0.751176 0.245450
vt 0.788726 0.272512
vt 0.793574 0.109048
vt 0.182299 0.724705
vt 0.853651 0.052141
vt 0.173792 0.501435
vt 0.795885 0.030112
vt 0.736963 0.048584
vt 0.130940 0.502697
vt 0.750407 0.122472
vt 0.741899 0.275296
vt 0.744253 0.233016
vt 0.128734 0.290671
vt 0.072018 0.288605
vt 0.137347 0.163661
vt 0.100376 0.131536
vt 0.168435 0.124996
vt 0.150685 0.052141
vt 0.785547 0.381045
vt 0.808238 0.390813
vt 0.733497 0.498567
vt 0.735957 0.433196
vt 0.746647 0.444186
vt 0.782883 0.470953
vt 0.801447 0.727177
vt 0.820673 0.749522
vt 0.169066 0.278165
vt 0.775743 0.711803
vt 0.778165 0.630118
vt 0.809050 0.651797
vt 0.215489 0.269674
vt 0.813635 0.877530
vt 0.799486 0.823348
vt 0.816191 0.831044
vt 0.253930 0.122472
vt 0.834573 0.826463
vt 0.827079 0.951418
vt 0.208452 0.030112
vt 0.210763 0.109048
vt 0.768157 0.969890
vt 0.770467 0.890954
vt 0.773069 0.802526
vt 0.742016 0.775560
vt 0.771409 0.709292
vt 0.739540 0.532157
vt 0.732816 0.530742
vt 0.690645 0.497305
vt 0.694829 0.521950
vt 0.710390 0.947861
vt 0.728140 0.875006
vt 0.738494 0.365782
vt 0.721687 0.362847
vt 0.728610 0.760787
vt 0.688334 0.709331
vt 0.703309 0.713963
vt 0.704418 0.692935
vt 0.700938 0.285508
vt 0.710123 0.358852
vt 0.688538 0.690628
vt 0.631723 0.495584
vt 0.747470 0.175231
vt 0.735062 0.173043
vt 0.631723 0.711396
vt 0.696946 0.836341
vt 0.660081 0.868466
vt 0.717007 0.159187
vt 0.682032 0.124996
vt 0.644431 0.280115
vt 0.697584 0.354520
vt 0.780717 0.544045
vt 0.731362 0.599426
vt 0.702638 0.567937
vt 0.754831 0.617144
vt 0.729289 0.697329
vt 0.824534 0.659182
vt 0.724355 0.695831
vt 0.775194 0.730327
vt 0.728770 0.721837
vt 0.847495 0.422146
vt 0.832552 0.406589
vt 0.834879 0.296698
vt 0.862327 0.306427
vt 0.871536 0.309691
vt 0.763666 0.373808
vt 0.788763 0.272538
vt 0.711753 0.405873
vt 0.788763 0.272538
vt 0.788071 0.474847
vt 0.830654 0.496255
vt 0.831581 0.496585
vt 0.835271 0.278165
vt 0.831155 0.295317
vt 0.770295 0.183941
vt 0.728996 0.193034
vt 0.788848 0.269674
vt 0.835959 0.476110
s 1
usemtl Material
f 1/1/1 2/2/2 3/3/3
f 2/2/2 4/4/4 3/3/3
f 61/5/5 132/6/6 133/7/7 129/8/8
f 60/9/9 78/10/10 59/11/11 132/6/6 61/5/5
f 58/12/12 143/13/13 145/14/14 57/15/15
f 2/2/2 1/1/1 5/16/16
f 1/1/1 6/17/17 5/16/16
f 5/16/16 6/17/17 7/18/18
f 6/17/17 8/19/19 7/18/18
f 7/18/18 8/19/19 9/20/20
f 8/19/19 10/21/21 9/20/20
f 62/22/22 141/23/23 143/13/13 58/12/12
f 34/24/24 62/22/22 58/12/12
f 32/25/25 62/22/22 34/24/24
f 61/5/5 129/8/8 188/26/26 62/22/22 32/25/25
f 9/20/20 11/27/27 7/18/18
f 27/28/28 61/5/5 32/25/25
f 7/18/18 11/27/27 5/16/16
f 11/27/27 12/29/29 5/16/16
f 5/16/16 12/29/29 2/2/2
f 12/29/29 13/30/30 2/2/2
f 2/2/2 13/30/30 4/4/4
f 25/31/31 61/5/5 27/28/28
f 4/4/4 13/30/30 14/32/32
f 13/30/30 15/33/33 14/32/32
f 14/32/32 15/33/33 16/34/34
f 60/9/9 61/5/5 25/31/31
f 23/35/35 60/9/9 25/31/31
f 53/36/36 60/9/9 23/35/35
f 54/37/37 60/9/9 53/36/36 66/38/38
f 15/33/33 13/30/30 17/39/39
f 59/11/11 78/10/10 82/40/40
f 13/30/30 12/29/29 17/39/39
f 17/39/39 12/29/29 18/41/41
f 12/29/29 11/27/27 18/41/41
f 18/41/41 11/27/27 19/42/42
f 11/27/27 9/20/20 19/42/42
f 19/42/42 9/20/20 20/43/43
f 9/20/20 10/21/21 20/43/43
f 55/44/44 59/11/11 82/40/40 80/45/45
f 10/21/21 21/46/46 20/43/43
f 20/43/43 21/46/46 22/47/47
f 21/46/46 23/48/35 22/47/47
f 22/47/47 23/48/35 24/49/48
f 23/48/35 25/50/31 24/49/48
f 24/49/48 25/50/31 26/51/49
f 25/50/31 27/52/28 26/51/49
f 139/53/50 142/54/51 181/54/52 177/53/53
f 151/55/54 152/56/55 178/56/56 159/57/57
f 57/15/15 145/14/14 142/54/51
f 56/58/58 57/15/15 142/54/51 139/53/50
f 24/49/48 26/51/49 22/47/47
f 26/51/49 28/59/59 22/47/47
f 22/47/47 28/59/59 20/43/43
f 36/60/60 34/24/24 58/12/12
f 20/43/43 28/59/59 19/42/42
f 28/59/59 29/61/61 19/42/42
f 19/42/42 29/61/61 18/41/41
f 57/15/15 36/60/60 58/12/12
f 40/62/62 36/60/60 57/15/15
f 56/58/58 40/62/62 57/15/15
f 16/63/34 40/62/62 56/58/58
f 29/61/61 28/59/59 30/64/63
f 49/65/64 16/63/34 56/58/58
f 28/59/59 26/51/49 30/64/63
f 50/66/65 153/67/66 152/56/55
f 26/51/49 27/52/28 30/64/63
f 30/64/63 27/52/28 31/68/67
f 27/52/28 32/69/25 31/68/67
f 31/68/67 32/69/25 33/70/68
f 32/69/25 34/71/24 33/70/68
f 33/70/68 34/71/24 35/72/69
f 34/71/24 36/73/60 35/72/69
f 127/74/70 124/75/71 163/75/72 169/74/73
f 51/76/74 134/77/75 136/78/76
f 55/44/44 51/76/74 136/78/76 135/79/77
f 102/80/78 100/81/79 116/81/80 118/80/81
f 33/70/68 35/72/69 31/68/67
f 35/72/69 37/82/82 31/68/67
f 31/68/67 37/82/82 30/64/63
f 54/37/37 102/80/78 101/83/83 72/84/84 79/85/85
f 30/64/63 37/82/82 29/61/61
f 37/82/82 38/86/86 29/61/61
f 29/61/61 38/86/86 18/41/41
f 52/87/87 65/88/88 63/89/89
f 18/41/41 38/86/86 17/39/39
f 38/86/86 39/90/90 17/39/39
f 17/39/39 39/90/90 15/33/33
f 53/36/36 52/87/87 63/89/89 103/91/91 66/38/38
f 15/33/33 39/90/90 16/34/34
f 21/92/46 53/36/36 23/35/35
f 16/34/34 39/90/90 40/93/62
f 39/90/90 41/94/92 40/93/62
f 40/93/62 41/94/92 36/73/60
f 52/87/87 53/36/36 21/92/46
f 36/73/60 41/94/92 35/72/69
f 10/95/21 52/87/87 21/92/46
f 35/72/69 41/94/92 37/82/82
f 43/96/93 52/87/87 10/95/21
f 37/82/82 41/94/92 38/86/86
f 41/94/92 39/90/90 38/86/86
f 67/97/94 69/98/95 112/98/96 110/97/97
f 99/99/98 101/83/83 117/83/99 115/99/100
f 51/76/74 76/100/101 71/101/102
f 45/102/103 51/76/74 71/101/102 75/103/104
f 8/104/19 42/105/105 43/96/93
f 50/66/65 123/106/106 126/107/107
f 43/96/93 42/105/105 68/108/108 69/98/95
f 42/105/105 44/109/109 64/110/110 68/108/108
f 64/110/110 98/111/111 114/111/112 108/110/113
f 47/112/114 50/66/65 137/113/115
f 45/102/103 97/114/116 44/109/109 3/115/3
f 49/65/64 144/116/117 146/117/118
f 3/115/3 44/109/109 1/118/1
f 44/109/109 46/119/119 1/118/1
f 1/118/1 46/119/119 6/120/17
f 46/119/119 42/105/105 6/120/17
f 6/120/17 42/105/105 8/104/19
f 48/121/120 49/65/64 146/117/118
f 14/122/32 16/63/34 49/65/64
f 48/121/120 14/122/32 49/65/64
f 4/123/4 14/122/32 48/121/120
f 8/104/19 43/96/93 10/95/21
f 47/112/114 4/123/4 48/121/120
f 3/115/3 4/123/4 47/112/114
f 45/102/103 3/115/3 47/112/114 122/124/121
f 42/105/105 46/119/119 44/109/109
f 101/83/83 102/80/78 118/80/81 117/83/99
f 67/97/94 65/88/88 52/87/87 43/96/93
f 66/38/38 103/91/91 100/81/79 54/37/37
f 69/98/95 67/97/94 43/96/93
f 65/88/88 67/97/94 110/97/97 109/88/122
f 68/108/108 64/110/110 108/110/113 111/108/123
f 92/85/124 85/84/125 86/125/126 93/45/127
f 73/125/128 80/45/45 93/45/127 86/125/126
f 80/45/45 73/125/128 55/44/44
f 70/126/129 74/127/130 87/127/131 83/126/132
f 70/126/129 77/128/133 99/99/98 104/129/134
f 79/85/85 72/84/84 85/84/125 92/85/124
f 73/125/128 76/100/101 51/76/74 55/44/44
f 80/45/45 82/40/40 95/40/135 93/45/127
f 79/85/85 81/130/136 54/37/37
f 74/127/130 75/103/104 88/103/137 87/127/131
f 74/127/130 70/126/129 104/129/134 96/131/138
f 81/130/136 79/85/85 92/85/124 94/130/139
f 81/130/136 78/10/10 60/9/9 54/37/37
f 84/101/140 89/100/141 90/128/142 83/126/132
f 85/84/125 90/128/142 89/100/141 86/125/126
f 93/45/127 95/40/135 94/130/139 92/85/124
f 88/103/137 84/101/140 83/126/132 87/127/131
f 95/40/135 91/10/143 94/130/139
f 75/103/104 71/101/102 84/101/140 88/103/137
f 77/128/133 70/126/129 83/126/132 90/128/142
f 78/10/10 81/130/136 94/130/139 91/10/143
f 71/101/102 76/100/101 89/100/141 84/101/140
f 82/40/40 78/10/10 91/10/143 95/40/135
f 72/84/84 77/128/133 90/128/142 85/84/125
f 76/100/101 73/125/128 86/125/126 89/100/141
f 106/132/144 115/99/100 117/83/99
f 96/131/138 98/111/111 74/127/130
f 98/111/111 64/110/110 44/109/109 97/114/116
f 98/111/111 96/131/138 113/131/145 114/111/112
f 101/83/83 99/99/98 77/128/133 72/84/84
f 100/81/79 102/80/78 54/37/37
f 103/91/91 63/89/89 107/89/146 119/91/147
f 96/131/138 104/129/134 120/129/148 113/131/145
f 100/81/79 103/91/91 119/91/147 116/81/80
f 106/132/144 109/88/122 110/97/97
f 105/133/149 106/132/144 110/97/97 112/98/96
f 105/133/149 108/110/113 114/111/112 113/131/145
f 111/108/123 108/110/113 105/133/149
f 107/89/146 118/80/81 116/81/80
f 112/98/96 111/108/123 105/133/149
f 117/83/99 118/80/81 106/132/144
f 120/129/148 115/99/100 106/132/144 105/133/149
f 116/81/80 119/91/147 107/89/146
f 113/131/145 120/129/148 105/133/149
f 63/89/89 65/88/88 109/88/122 107/89/146
f 104/129/134 99/99/98 115/99/100 120/129/148
f 69/98/95 68/108/108 111/108/123 112/98/96
f 74/127/130 98/111/111 97/114/116
f 97/114/116 45/102/103 75/103/104 74/127/130
f 125/134/150 128/135/151 147/136/152 149/137/153 148/138/154
f 145/14/14 143/13/13 155/13/155 157/14/156
f 127/74/70 121/139/157 151/140/54
f 138/141/158 137/113/115 172/113/159 166/141/160
f 121/139/157 127/74/70 169/74/73 161/139/161
f 122/124/121 137/113/115 138/141/158 45/102/103
f 121/139/157 123/106/106 50/66/65 151/142/54
f 129/8/8 133/7/7 125/134/150
f 142/54/51 145/14/14 157/14/156 181/54/52
f 131/143/162 130/144/163 59/11/11 55/44/44
f 134/77/75 138/141/158 166/141/160 175/77/164
f 124/75/71 128/135/151 170/135/165 163/75/72
f 146/117/118 144/116/117 184/116/166 183/117/167
f 131/143/162 135/79/77 168/79/168 162/143/169
f 130/145/163 132/6/6 59/11/11
f 135/79/77 131/143/162 55/44/44
f 138/141/158 134/77/75 51/76/74 45/102/103
f 128/135/151 125/134/150 165/134/170 170/135/165
f 156/146/171 185/136/172 158/147/173
f 139/53/50 140/148/174 56/58/58
f 140/148/174 144/116/117 49/65/64 56/58/58
f 143/13/13 141/23/23 180/23/175 155/13/155
f 132/6/6 130/145/163 173/145/176 176/6/177
f 144/116/117 140/148/174 179/148/178 184/116/166
f 133/7/7 132/6/6 176/6/177 174/7/179
f 140/148/174 139/53/50 177/53/53 179/148/178
f 148/138/154 149/137/153 141/23/23 62/22/22
f 152/56/55 151/55/54 50/66/65
f 150/149/180 146/117/118 183/117/167 182/149/181
f 136/78/76 134/77/75 175/77/164 160/78/182
f 154/147/183 147/136/152 128/135/151 124/75/71
f 153/67/66 150/149/180 182/149/181 187/67/184
f 151/140/54 154/147/183 124/75/71 127/74/70
f 150/149/180 153/67/66 50/66/65 47/112/114
f 159/150/57 156/146/171 158/147/173
f 159/57/57 178/56/56 179/148/178 177/53/53
f 163/75/72 170/135/165 173/144/176 162/143/169
f 169/74/73 163/75/72 162/143/169 168/79/168
f 167/107/185 171/106/186 175/77/164 166/141/160
f 165/134/170 174/7/179 164/151/187
f 168/79/168 160/78/182 161/139/161 169/74/73
f 160/78/182 175/77/164 171/106/186 161/139/161
f 173/144/176 170/135/165 165/134/170 164/151/187
f 174/7/179 176/6/177 173/145/176 164/151/187
f 166/141/160 172/113/159 167/107/185
f 155/13/155 180/23/175 156/146/171
f 183/117/167 184/116/166 187/67/184 182/149/181
f 181/54/52 157/14/156 156/146/171 159/150/57
f 157/14/156 155/13/155 156/146/171
f 177/53/53 181/54/52 159/150/57
f 180/23/175 186/137/188 185/136/172 156/146/171
f 178/56/56 187/67/184 184/116/166 179/148/178
f 126/107/107 123/106/106 171/106/186 167/107/185
f 137/113/115 126/107/107 167/107/185 172/113/159
f 123/106/106 121/139/157 161/139/161 171/106/186
f 147/136/152 154/147/183 158/147/173 185/136/172
f 125/134/150 133/7/7 174/7/179 165/134/170
f 152/56/55 153/67/66 187/67/184 178/56/56
f 130/144/163 131/143/162 162/143/169 173/144/176
f 149/137/153 147/136/152 185/136/172 186/137/188
f 154/147/183 151/140/54 159/140/57 158/147/173
f 135/79/77 136/78/76 160/78/182 168/79/168
f 141/23/23 149/137/153 186/137/188 180/23/175
f 146/117/118 150/149/180 48/121/120
f 150/149/180 47/112/114 48/121/120
f 137/113/115 122/124/121 47/112/114
f 137/113/115 50/66/65 126/107/107
f 125/134/150 148/138/154 188/26/26 129/8/8
f 188/26/26 148/138/154 62/22/22
f 118/80/81 109/88/122 106/132/144
f 109/88/122 118/80/81 107/89/146
