mtllib model_3.mtl
o model_3
v -0.6232906579971313 -0.030741596594452858 -0.2603340148925781 
v -0.6436153650283813 -0.028449054807424545 -0.25406280159950256 
v -0.6342347264289856 0.0002751454012468457 -0.24926717579364777 
v -0.6486965417861938 -0.015547888353466988 -0.24852938950061798 
v -0.6092196702957153 -0.028224295005202293 -0.2581206262111664 
v -0.6225089430809021 0.008276565931737423 -0.24484045803546906 
v -0.38134831190109253 0.008276565931737423 -0.019077323377132416 
v -0.369231641292572 -0.028224295005202293 -0.03346418961882591 
v -0.37626710534095764 0.0002751454012468457 -0.007641610223799944 
v -0.365713894367218 -0.030741596594452858 -0.019446218386292458 
v -0.3707950711250305 -0.028449054807424545 0.0015807399759069085 
v -0.375876247882843 -0.015547888353466988 0.006745256017893553 
v -0.3805665671825409 -0.03002236783504486 0.014123136177659035 
v -0.3840843141078949 -0.011367370374500751 0.015598711557686329 
v -0.3911198079586029 -0.018155092373490334 0.02334548532962799 
v -0.4083176255226135 -0.007366660516709089 0.027772214263677597 
v -0.41027194261550903 -0.03577619791030884 0.03293672949075699 
v -0.42277947068214417 -0.03793388605117798 0.02961668372154236 
v -0.3946375548839569 0.0062986863777041435 0.011171983554959297 
v -0.42082515358924866 -0.002781576942652464 0.023714380338788033 
v -0.6627675294876099 -0.002781576942652464 -0.20278653502464294 
v -0.4047999083995819 0.013895540498197079 0.003794104093685746 
v -0.3922923803329468 -0.03204520046710968 0.025927744805812836 
v -0.6440061926841736 0.013895540498197079 -0.21975566446781158 
v -0.6518234014511108 0.0062986863777041435 -0.22934690117835999 
v -0.6572954654693604 -0.011367370374500751 -0.23967593908309937 
v -0.6557320356369019 -0.03002236783504486 -0.2433648705482483 
v -0.6682395339012146 -0.03793388605117798 -0.2002042829990387 
v -0.6674578189849854 -0.007366660516709089 -0.2149600386619568 
v -0.6725389957427979 -0.03577619791030884 -0.21237778663635254 
v -0.6643309593200684 -0.018155092373490334 -0.23229806125164032 
v -0.6666761040687561 -0.03204520046710968 -0.23082247376441956 
v -0.3805665671825409 -0.03002236783504486 0.014123136177659035 
v -0.37118592858314514 -0.04211440309882164 0.00416299793869257 
v -0.3707950711250305 -0.028449054807424545 0.0015807399759069085 
v -0.365713894367218 -0.030741596594452858 -0.019446218386292458 
v -0.36805906891822815 -0.056633833795785904 -0.01317501999437809 
v -0.3723585307598114 -0.061758339405059814 -0.026086309924721718 
v -0.369231641292572 -0.028224295005202293 -0.03346418961882591 
v -0.6162551641464233 -0.061758339405059814 -0.25406280159950256 
v -0.6092196702957153 -0.028224295005202293 -0.2581206262111664 
v -0.6232906579971313 -0.030741596594452858 -0.2603340148925781 
v -0.6291535496711731 -0.056633833795785904 -0.2577517330646515 
v -0.6463513970375061 -0.04211440309882164 -0.2533250153064728 
v -0.6440061926841736 -0.06535448133945465 -0.2422581911087036 
v -0.6537777185440063 -0.04926173761487007 -0.24631603062152863 
v -0.6557320356369019 -0.03002236783504486 -0.2433648705482483 
v -0.6436153650283813 -0.028449054807424545 -0.25406280159950256 
v -0.6338438391685486 -0.06953500211238861 -0.23488031327724457 
v -0.3907289505004883 -0.06953500211238861 -0.007272716145962477 
v -0.3825208842754364 -0.06535448133945465 0.002318528015166521 
v -0.3778305649757385 -0.04926173761487007 0.012278665788471699 
v -0.38642948865890503 -0.045440834015607834 0.021132122725248337 
v -0.3922923803329468 -0.03204520046710968 0.025927744805812836 
v -0.4008913040161133 -0.058746568858623505 0.02186991088092327 
v -0.41027194261550903 -0.03577619791030884 0.03293672949075699 
v -0.42277947068214417 -0.03793388605117798 0.02961668372154236 
v -0.4126170873641968 -0.06301698833703995 0.01670539379119873 
v -0.6682395339012146 -0.03793388605117798 -0.2002042829990387 
v -0.6561228632926941 -0.06301698833703995 -0.21127109229564667 
v -0.6623766422271729 -0.058746568858623505 -0.22270680963993073 
v -0.6725389957427979 -0.03577619791030884 -0.21237778663635254 
v -0.6666761040687561 -0.03204520046710968 -0.23082247376441956 
v -0.6619857549667358 -0.045440834015607834 -0.23709367215633392 
v -0.3278004825115204 -0.028224295005202293 0.018549863249063492 
v -0.328191339969635 -0.061758339405059814 0.02629663795232773 
v -0.16363927721977234 -0.028224295005202293 0.02851000241935253 
v -0.16168497502803802 -0.061758339405059814 0.03662566840648651 
v -0.15230433642864227 -0.030741596594452858 0.037363458424806595 
v -0.14995917677879333 -0.056633833795785904 0.04363465681672096 
v -0.14136025309562683 -0.04211440309882164 0.05912820249795914 
v -0.14292369782924652 -0.028449054807424545 0.05691483989357948 
v -0.14214198291301727 -0.03002236783504486 0.07277727872133255 
v -0.16324841976165771 -0.06953500211238861 0.06244824826717377 
v -0.3297547698020935 -0.06953500211238861 0.05248811095952988 
v -0.331709086894989 -0.06301698833703995 0.08495078235864639 
v -0.16520272195339203 -0.06301698833703995 0.09491091966629028 
v -0.3328816592693329 -0.03793388605117798 0.10118211805820465 
v -0.1648118644952774 -0.03793388605117798 0.11151114851236343 
v -0.1526951938867569 -0.058746568858623505 0.09159087389707565 
v -0.15308606624603271 -0.03577619791030884 0.10634663701057434 
v -0.14370541274547577 -0.03204520046710968 0.0893775150179863 
v -0.1425328403711319 -0.045440834015607834 0.08163073658943176 
v -0.14136025309562683 -0.04926173761487007 0.06945723295211792 
v -0.1511317640542984 -0.06535448133945465 0.06503050774335861 
v -0.3328816592693329 -0.03793388605117798 0.10118211805820465 
v -0.16676616668701172 -0.002781576942652464 0.10560885071754456 
v -0.1648118644952774 -0.03793388605117798 0.11151114851236343 
v -0.15504035353660583 -0.007366660516709089 0.10081322491168976 
v -0.15308606624603271 -0.03577619791030884 0.10634663701057434 
v -0.1444871425628662 -0.018155092373490334 0.08642636239528656 
v -0.14370541274547577 -0.03204520046710968 0.0893775150179863 
v -0.14214198291301727 -0.03002236783504486 0.07277727872133255 
v -0.1440962851047516 -0.011367370374500751 0.07609732449054718 
v -0.15504035353660583 0.0062986863777041435 0.07941737771034241 
v -0.16754788160324097 0.013895540498197079 0.08015516400337219 
v -0.33249080181121826 -0.002781576942652464 0.09564871340990067 
v -0.33092737197875977 0.013895540498197079 0.0701950266957283 
v -0.32897305488586426 0.008276565931737423 0.037363458424806595 
v -0.16403013467788696 0.008276565931737423 0.04769248887896538 
v -0.16363927721977234 -0.028224295005202293 0.02851000241935253 
v -0.1526951938867569 0.0002751454012468457 0.05285700783133507 
v -0.14331455528736115 -0.015547888353466988 0.06392382830381393 
v -0.14292369782924652 -0.028449054807424545 0.05691483989357948 
v -0.15230433642864227 -0.030741596594452858 0.037363458424806595 
v -0.3278004825115204 -0.028224295005202293 0.018549863249063492 
v -0.33249080181121826 -0.002781576942652464 0.09564871340990067 
v -0.33092737197875977 0.013895540498197079 0.0701950266957283 
v -0.3328816592693329 -0.03793388605117798 0.10118211805820465 
v -0.3278004825115204 -0.028224295005202293 0.018549863249063492 
v -0.3297547698020935 -0.06953500211238861 0.05248811095952988 
v -0.328191339969635 -0.061758339405059814 0.02629663795232773 
v -0.32897305488586426 0.008276565931737423 0.037363458424806595 
v -0.331709086894989 -0.06301698833703995 0.08495078235864639 
v 0.1126987412571907 -0.03002236783504486 0.47597843408584595 
v 0.12207937985658646 -0.04211440309882164 0.46601828932762146 
v 0.12247023731470108 -0.028449054807424545 0.4634360373020172 
v 0.12755142152309418 -0.030741596594452858 0.44240906834602356 
v 0.12559711933135986 -0.056633833795785904 0.4486802816390991 
v 0.12090680003166199 -0.061758339405059814 0.4357689917087555 
v 0.1244245395064354 -0.028224295005202293 0.42839109897613525 
v -0.12298984080553055 -0.061758339405059814 0.2077924907207489 
v -0.11556349694728851 -0.028224295005202293 0.2037346512079239 
v -0.13002532720565796 -0.030741596594452858 0.20152129232883453 
v -0.1358882188796997 -0.056633833795785904 0.20410354435443878 
v -0.15308606624603271 -0.04211440309882164 0.2085302770137787 
v -0.15074090659618378 -0.06535448133945465 0.21959710121154785 
v -0.16051240265369415 -0.04926173761487007 0.21553926169872284 
v -0.16246670484542847 -0.03002236783504486 0.21849040687084198 
v -0.15035003423690796 -0.028449054807424545 0.2077924907207489 
v -0.14057853817939758 -0.06953500211238861 0.2269749790430069 
v 0.10292723774909973 -0.06953500211238861 0.4545825719833374 
v 0.11074443906545639 -0.06535448133945465 0.464173823595047 
v 0.11582562327384949 -0.04926173761487007 0.4741339683532715 
v 0.10683584213256836 -0.045440834015607834 0.4829874038696289 
v 0.10097294300794601 -0.03204520046710968 0.4877830445766449 
v 0.09237401932477951 -0.058746568858623505 0.4837251901626587 
v 0.08103907853364944 -0.06301698833703995 0.4785606861114502 
v -0.1628575623035431 -0.06301698833703995 0.2502152919769287 
v -0.16872045397758484 -0.058746568858623505 0.23914848268032074 
v -0.1749742180109024 -0.03793388605117798 0.26165100932121277 
v -0.17927367985248566 -0.03577619791030884 0.24947750568389893 
v 0.08299338072538376 -0.03577619791030884 0.49479201436042786 
v 0.07048586010932922 -0.03793388605117798 0.4914719760417938 
v -0.16872045397758484 -0.045440834015607834 0.22476160526275635 
v -0.17341077327728271 -0.03204520046710968 0.23103280365467072 
v -0.13002532720565796 -0.030741596594452858 0.20152129232883453 
v -0.14057853817939758 0.0002751454012468457 0.2125881016254425 
v -0.15035003423690796 -0.028449054807424545 0.2077924907207489 
v -0.15504035353660583 -0.015547888353466988 0.21332590281963348 
v -0.11556349694728851 -0.028224295005202293 0.2037346512079239 
v -0.12924359738826752 0.008276565931737423 0.2170148342847824 
v 0.11191701889038086 0.008276565931737423 0.44277796149253845 
v 0.1244245395064354 -0.028224295005202293 0.42839109897613525 
v 0.11738906055688858 0.0002751454012468457 0.4538447856903076 
v 0.12755142152309418 -0.030741596594452858 0.44240906834602356 
v 0.12247023731470108 -0.028449054807424545 0.4634360373020172 
v 0.11738906055688858 -0.015547888353466988 0.4686005413532257 
v 0.1126987412571907 -0.03002236783504486 0.47597843408584595 
v 0.1091810017824173 -0.011367370374500751 0.4774540066719055 
v 0.10214552283287048 -0.018155092373490334 0.48520076274871826 
v 0.0853385403752327 -0.007366660516709089 0.48962751030921936 
v 0.08299338072538376 -0.03577619791030884 0.49479201436042786 
v 0.07048586010932922 -0.03793388605117798 0.4914719760417938 
v 0.09862778335809708 0.0062986863777041435 0.4730272591114044 
v 0.07244016230106354 -0.002781576942652464 0.48556965589523315 
v -0.16950218379497528 -0.002781576942652464 0.2590687572956085 
v -0.1749742180109024 -0.03793388605117798 0.26165100932121277 
v 0.10097294300794601 -0.03204520046710968 0.4877830445766449 
v 0.08846542239189148 0.013895540498197079 0.46564939618110657 
v -0.15035003423690796 0.013895540498197079 0.24209962785243988 
v -0.15855810046195984 0.0062986863777041435 0.23250839114189148 
v -0.17380164563655853 -0.007366660516709089 0.24689525365829468 
v -0.17927367985248566 -0.03577619791030884 0.24947750568389893 
v -0.17106561362743378 -0.018155092373490334 0.22955723106861115 
v -0.17341077327728271 -0.03204520046710968 0.23103280365467072 
v -0.16246670484542847 -0.03002236783504486 0.21849040687084198 
v -0.16363927721977234 -0.011367370374500751 0.2221793532371521 
v -0.04833557829260826 0.016098178923130035 0.317722886800766 
v -0.043645258992910385 0.011827757582068443 0.31882956624031067 
v -0.04677214100956917 0.015333998017013073 0.3110828101634979 
v -0.042472679167985916 0.010883769951760769 0.3110828101634979 
v -0.035828061401844025 0.010434252209961414 0.31993627548217773 
v -0.03504633903503418 0.00949026457965374 0.3121894896030426 
v -0.030746880918741226 0.012277276255190372 0.3206740617752075 
v -0.029574299231171608 0.011198433116078377 0.3118205964565277 
v -0.00260495999827981 0.014390010386705399 0.3542433977127075 
v -0.0037775400560349226 0.014704673551023006 0.356087863445282 
v -0.0072952802293002605 0.01101862546056509 0.35166114568710327 
v -0.011594739742577076 0.012187371961772442 0.3594079315662384 
v -0.018630219623446465 0.014165251515805721 0.3546122908592224 
v -0.014330759644508362 0.01304145622998476 0.34723442792892456 
v -0.02058451995253563 0.018255865201354027 0.3498166799545288 
v -0.020193660631775856 0.019109949469566345 0.34723442792892456 
v 0.008729980327188969 0.015109239146113396 0.4010929465293884 
v 0.012247719801962376 0.01304145622998476 0.3970351219177246 
v 0.006775679998099804 0.014929432421922684 0.39961737394332886 
v 0.005603100173175335 0.012457082979381084 0.3922394812107086 
v 0.009902560152113438 0.015963323414325714 0.38596829771995544 
v 0.016547180712223053 0.01654769666492939 0.39113280177116394 
v 0.013811159878969193 0.021087829023599625 0.38486161828041077 
v 0.015765460208058357 0.022481335327029228 0.38559940457344055 
v -0.06983287632465363 0.011692903004586697 0.27234894037246704 
v -0.069442018866539 0.012457082979381084 0.2734556198120117 
v -0.07100546360015869 0.008366469293832779 0.2734556198120117 
v -0.06787858158349991 0.012771746143698692 0.2797268033027649 
v -0.06006138026714325 0.009355409070849419 0.2782512307167053 
v -0.06357911974191666 0.0049501326866447926 0.27198004722595215 
v -0.06240653991699219 0.006972963456064463 0.2730867266654968 
v -0.06318826228380203 0.005894120316952467 0.27124226093292236 
v 0.027491260319948196 0.015154191292822361 0.4014618396759033 
v 0.02553695999085903 0.015154191292822361 0.402568519115448 
v 0.02788211964070797 0.014120299369096756 0.4018307328224182 
v 0.02006492018699646 0.014165251515805721 0.40515077114105225 
v 0.016547180712223053 0.0140303960070014 0.3974040150642395 
v 0.024364380165934563 0.013940492644906044 0.3940839469432831 
v 0.021628359332680702 0.017311878502368927 0.39519062638282776 
v 0.02280093915760517 0.017311878502368927 0.394452840089798 
v 0.01420202013105154 0.0140303960070014 0.3564567565917969 
v 0.01537459995597601 0.013580878265202045 0.3564567565917969 
v 0.012247719801962376 0.011737854219973087 0.3583012521266937 
v 0.019283199682831764 0.008815987035632133 0.356087863445282 
v 0.01615631952881813 0.006748204585164785 0.349078893661499 
v 0.009120839647948742 0.009670071303844452 0.3512922525405884 
v 0.011466000229120255 0.009804926812648773 0.3501855731010437 
v 0.00951169990003109 0.01047920435667038 0.3509233593940735 
v -0.10383769869804382 0.012816697359085083 0.26755329966545105 
v -0.10188339650630951 0.012726793996989727 0.26644662022590637 
v -0.10383769869804382 0.011737854219973087 0.26792222261428833 
v -0.09680221974849701 0.011288336478173733 0.26275768876075745 
v -0.09172104299068451 0.011917661875486374 0.2697666883468628 
v -0.09875652194023132 0.012367179617285728 0.2749311923980713 
v -0.09641136229038239 0.01569361239671707 0.2730867266654968 
v -0.09758394211530685 0.015783516690135002 0.2738245129585266 
v -0.026447419077157974 0.009040746837854385 0.3782215118408203 
v -0.026447419077157974 0.007916951552033424 0.3778526186943054 
v -0.025274839252233505 0.010074637830257416 0.37637704610824585 
v -0.022538820281624794 0.012232324108481407 0.3704747259616852 
v -0.014330759644508362 0.01151309534907341 0.3741636872291565 
v -0.01784849911928177 0.007242674473673105 0.38154155015945435 
v -0.017066780477762222 0.011917661875486374 0.38080376386642456 
v -0.01784849911928177 0.011288336478173733 0.38191044330596924 
v -0.06826943904161453 0.016502745449543 0.32842081785202026 
v -0.06983287632465363 0.013131360523402691 0.3228874206542969 
v -0.07295975834131241 0.012771746143698692 0.3317408561706543 
v -0.07491406053304672 0.008546276949346066 0.3273141384124756 
v -0.07491406053304672 0.012322227470576763 0.3162473142147064 
v -0.07999523729085922 0.007782096043229103 0.3206740617752075 
v -0.07921352237462997 0.014300107024610043 0.3129272758960724 
v -0.08507642149925232 0.009040746837854385 0.3180917799472809 
v -0.07530491799116135 0.016098178923130035 0.2797268033027649 
v -0.08351297676563263 0.012097468599677086 0.27935791015625 
v -0.07491406053304672 0.01452486589550972 0.27714455127716064 
v -0.07765007764101028 0.009939782321453094 0.27234894037246704 
v -0.0846855565905571 0.009445312432944775 0.26644662022590637 
v -0.09054846316576004 0.011558047495782375 0.2734556198120117 
v -0.09172104299068451 0.015199143439531326 0.26755329966545105 
v -0.0932844802737236 0.015783516690135002 0.2693977952003479 
v -0.04833557829260826 0.011647950857877731 0.29595816135406494 
v -0.047553859651088715 0.010389300063252449 0.29485148191452026 
v -0.049117300659418106 0.010928722098469734 0.2966959476470947 
v -0.04442698135972023 0.005714313127100468 0.29190030694007874 
v -0.03817322105169296 0.006793156266212463 0.2970648407936096 
v -0.042472679167985916 0.012052517384290695 0.30149155855178833 
v -0.039736658334732056 0.012816697359085083 0.2981715202331543 
v -0.040909238159656525 0.013670781627297401 0.2989093065261841 
v -0.10071081668138504 0.01645779423415661 0.29153141379356384 
v -0.10031995922327042 0.015423902310431004 0.29153141379356384 
v -0.10266511887311935 0.016053227707743645 0.29079362750053406 
v -0.1085280179977417 0.013760684989392757 0.2893180549144745 
v -0.10657372325658798 0.013760684989392757 0.28083351254463196 
v -0.09797479957342148 0.015423902310431004 0.2830468714237213 
v -0.10149253904819489 0.018345769494771957 0.28194019198417664 
v -0.10031995922327042 0.01866043172776699 0.2826779782772064 
v -0.02722913958132267 0.011827757582068443 0.3741636872291565 
v -0.026447419077157974 0.010793866589665413 0.3682613670825958 
v -0.03660978004336357 0.010659011080861092 0.3708436191082001 
v -0.03387375921010971 0.009804926812648773 0.3653102219104767 
v -0.03152859956026077 0.012816697359085083 0.35793232917785645 
v -0.023711400106549263 0.013805637136101723 0.360883504152298 
v -0.024102259427309036 0.018975093960762024 0.35719454288482666 
v -0.030356019735336304 0.018300816416740417 0.3538745045661926 
v -0.051462460309267044 0.020368600264191628 0.3184606730937958 
v -0.04950816184282303 0.015199143439531326 0.325838565826416 
v -0.05380761995911598 0.019109949469566345 0.31882956624031067 
v -0.058107081800699234 0.014659721404314041 0.322518527507782 
v -0.06123396009206772 0.01349097490310669 0.3313719630241394 
v -0.05263504013419151 0.0140303960070014 0.3346920311450958 
v -0.05732535943388939 0.017986154183745384 0.33801206946372986 
v -0.05498019978404045 0.018121009692549706 0.33911874890327454 
v 0.030227279290556908 0.00598402414470911 0.3594079315662384 
v 0.030227279290556908 0.007197722792625427 0.36125239729881287 
v 0.029836419969797134 0.0049051810055971146 0.3597768247127533 
v 0.02944556064903736 0.00998473446816206 0.36752358078956604 
v 0.020846640691161156 0.013131360523402691 0.3649413287639618 
v 0.021628359332680702 0.008051807060837746 0.35682564973831177 
v 0.02280093915760517 0.012726793996989727 0.35793232917785645 
v 0.023191800341010094 0.011917661875486374 0.35682564973831177 
v -0.09406620264053345 0.014479913748800755 0.3125583827495575 
v -0.09367533773183823 0.014569818042218685 0.31034502387046814 
v -0.09680221974849701 0.0073775299824774265 0.3110828101634979 
v -0.0948479175567627 0.011647950857877731 0.30481159687042236 
v -0.10071081668138504 0.008366469293832779 0.30038487911224365 
v -0.10305597633123398 0.004096048418432474 0.3070249855518341 
v -0.10774630308151245 0.006928011775016785 0.3040738105773926 
v -0.10813716053962708 0.005804216954857111 0.30591827630996704 
v 0.03335415944457054 0.016098178923130035 0.4173242747783661 
v 0.031399860978126526 0.009849878959357738 0.4213820993900299 
v 0.03179071843624115 0.015244094654917717 0.4158487021923065 
v 0.027491260319948196 0.010928722098469734 0.41474202275276184 
v 0.02123750001192093 0.007871999405324459 0.4180620610713959 
v 0.02514610067009926 0.006793156266212463 0.4250710606575012 
v 0.019674060866236687 0.009310456924140453 0.4254399538040161 
v 0.020455779507756233 0.009040746837854385 0.4272844195365906 
v -0.01784849911928177 0.004815277177840471 0.31071391701698303 
v -0.008467859588563442 -0.0010734086390584707 0.31034502387046814 
v -0.017066780477762222 0.003376819659024477 0.3173539936542511 
v -0.00885871984064579 -0.0017027338035404682 0.3169851005077362 
v -0.006513560190796852 0.001398940454237163 0.325838565826416 
v -0.01472161989659071 0.006478493567556143 0.3262074589729309 
v -0.010422159917652607 0.011108528822660446 0.32989639043807983 
v -0.0033866800367832184 0.007017915602773428 0.3306341767311096 
v 0.006775679998099804 0.014659721404314041 0.3844927251338959 
v 0.005212239921092987 0.014659721404314041 0.3833860158920288 
v 0.006775679998099804 0.01362583041191101 0.3844927251338959 
v -0.0002597999991849065 0.013670781627297401 0.38080376386642456 
v 0.0032579400576651096 0.013940492644906044 0.3737947940826416 
v 0.010293420404195786 0.013895540498197079 0.3774837255477905 
v 0.007948259823024273 0.017087118700146675 0.37600815296173096 
v 0.009120839647948742 0.017132069915533066 0.37674593925476074 
v 0.05446060001850128 0.011288336478173733 0.38486161828041077 
v 0.05055199936032295 0.007647240534424782 0.382648229598999 
v 0.05289715901017189 0.012097468599677086 0.38633719086647034 
v 0.045470818877220154 0.010659011080861092 0.3885505497455597 
v 0.039217058569192886 0.011423191986978054 0.3830171227455139 
v 0.044298239052295685 0.008411421440541744 0.37711483240127563 
v 0.03843533992767334 0.013940492644906044 0.3774837255477905 
v 0.03882620111107826 0.0140303960070014 0.3749014735221863 
v -0.08077695965766907 0.019020045176148415 0.29042473435401917 
v -0.08585813641548157 0.014839529059827328 0.29226920008659363 
v -0.07843180000782013 0.018930142745375633 0.2966959476470947 
v -0.08194953948259354 0.014614769257605076 0.29964709281921387 
v -0.09289362281560898 0.013760684989392757 0.29595816135406494 
v -0.08937588334083557 0.013580878265202045 0.3033360242843628 
v -0.09758394211530685 0.015963323414325714 0.2981715202331543 
v -0.09367533773183823 0.01569361239671707 0.3066560924053192 
v -0.040909238159656525 0.016997214406728745 0.32952749729156494 
v -0.03856407850980759 0.015289046801626682 0.32362520694732666 
v -0.03660978004336357 0.013221263885498047 0.3321097493171692 
v -0.03426462039351463 0.011063577607274055 0.32510077953338623 
v -0.029183439910411835 0.012322227470576763 0.3346920311450958 
v -0.026838280260562897 0.010164541192352772 0.3273141384124756 
v -0.024102259427309036 0.014434962533414364 0.3357987105846405 
v -0.021366240456700325 0.011962613090872765 0.3273141384124756 
vn -0.031828369945287704 0.09054753184318542 -0.9953833818435669 
vn -0.45364442467689514 0.12318288534879684 -0.882628321647644 
vn -0.25055697560310364 0.5246447920799255 -0.8136147856712341 
vn -0.5393378138542175 0.2525399327278137 -0.8033295273780823 
vn 0.45054370164871216 0.13408081233501434 -0.882628321647644 
vn 0.16122129559516907 0.7693838477134705 -0.6181069612503052 
vn 0.6072856187820435 0.7684323787689209 -0.2017817199230194 
vn 0.8505606055259705 0.12801939249038696 -0.5100564956665039 
vn 0.8265120983123779 0.5287208557128906 0.19321508705615997 
vn 0.9952097535133362 0.09043646603822708 -0.03713129088282585 
vn 0.9115226864814758 0.12032119184732437 0.3932546079158783 
vn 0.8379408121109009 0.24568410217761993 0.48733407258987427 
vn 0.7408318519592285 0.06775743514299393 0.6682642698287964 
vn 0.6642335057258606 0.3414073586463928 0.6650074124336243 
vn 0.5244743227958679 0.20603367686271667 0.8261215686798096 
vn 0.1098586693406105 0.42090755701065063 0.9004265069961548 
vn 0.02933972142636776 -0.10949733108282089 0.9935539960861206 
vn -0.46803975105285645 -0.19794389605522156 0.8612531423568726 
vn 0.4122936725616455 0.7115990519523621 0.5688942670822144 
vn -0.3576160669326782 0.5390275716781616 0.762600839138031 
vn -0.7378213405609131 0.5397905707359314 0.405272513628006 
vn 0.04903212562203407 0.9476052522659302 0.31565824151039124 
vn 0.5004042983055115 -0.015048232860863209 0.865661084651947 
vn -0.318926066160202 0.9473540782928467 -0.028397228568792343 
vn -0.5929129123687744 0.7114986181259155 -0.37712597846984863 
vn -0.7073073387145996 0.34301623702049255 -0.6181069612503052 
vn -0.7138512134552002 0.06793440133333206 -0.6969945430755615 
vn -0.8277333974838257 -0.19804249703884125 0.5250110030174255 
vn -0.9058276414871216 0.42065849900245667 -0.05022686347365379 
vn -0.993730366230011 -0.10545703768730164 0.03713129088282585 
vn -0.8593478202819824 0.20582562685012817 -0.46814218163490295 
vn -0.8974846601486206 -0.01132401917129755 -0.4409002661705017 
vn 0.7408318519592285 0.06775743514299393 0.6682642698287964 
vn 0.8874300122261047 -0.1054142564535141 0.4487268626689911 
vn 0.9115226864814758 0.12032119184732437 0.3932546079158783 
vn 0.9952097535133362 0.09043646603822708 -0.03713129088282585 
vn 0.8866559863090515 -0.45092663168907166 0.10250037163496017 
vn 0.6850976943969727 -0.6503937244415283 -0.3280687630176544 
vn 0.8505606055259705 0.12801939249038696 -0.5100564956665039 
vn 0.28088998794555664 -0.6497639417648315 -0.7063339352607727 
vn 0.45054370164871216 0.13408081233501434 -0.882628321647644 
vn -0.031828369945287704 0.09054753184318542 -0.9953833818435669 
vn -0.16123279929161072 -0.4497387409210205 -0.8784868121147156 
vn -0.5056356191635132 -0.10129912197589874 -0.8567795157432556 
vn -0.40402182936668396 -0.7904403805732727 -0.46040233969688416 
vn -0.6428752541542053 -0.30360010266304016 -0.7032341957092285 
vn -0.7138512134552002 0.06793440133333206 -0.6969945430755615 
vn -0.45364442467689514 0.12318288534879684 -0.882628321647644 
vn -0.09052342176437378 -0.9817193746566772 -0.16742929816246033 
vn 0.17638273537158966 -0.9810041785240173 0.08074574917554855 
vn 0.4841735064983368 -0.7933483719825745 0.3690181374549866 
vn 0.7430185079574585 -0.3087892532348633 0.5937783122062683 
vn 0.5370433926582336 -0.2132786512374878 0.8161473870277405 
vn 0.5004042983055115 -0.015048232860863209 0.865661084651947 
vn 0.18422195315361023 -0.6304454207420349 0.7540562748908997 
vn 0.02933972142636776 -0.10949733108282089 0.9935539960861206 
vn -0.46803975105285645 -0.19794389605522156 0.8612531423568726 
vn -0.221800297498703 -0.8071193695068359 0.5471406579017639 
vn -0.8277333974838257 -0.19804249703884125 0.5250110030174255 
vn -0.5323843359947205 -0.8065277934074402 0.25706008076667786 
vn -0.7648827433586121 -0.6303168535232544 -0.1328723281621933 
vn -0.993730366230011 -0.10545703768730164 0.03713129088282585 
vn -0.8974846601486206 -0.01132401917129755 -0.4409002661705017 
vn -0.8480613231658936 -0.21680915355682373 -0.4835140109062195 
vn 0.05851801484823227 0.12648461759090424 -0.9902410507202148 
vn 0.041561610996723175 -0.6846870183944702 -0.7276512384414673 
vn 0.32900819182395935 0.1327015608549118 -0.9349566102027893 
vn 0.31594622135162354 -0.6504684686660767 -0.6907016038894653 
vn 0.7442688941955566 0.09037060290575027 -0.661737859249115 
vn 0.7504953742027283 -0.44638791680336 -0.48733407258987427 
vn 0.9700345396995544 -0.10549761354923248 -0.21886809170246124 
vn 0.9529561400413513 0.1205386221408844 -0.2781098484992981 
vn 0.9968317151069641 0.0678563341498375 0.04149730131030083 
vn 0.1858094483613968 -0.9813012480735779 -0.05022686347365379 
vn 0.005664747674018145 -0.9989317059516907 -0.04586252197623253 
vn -0.032059334218502045 -0.8291774392127991 0.5580654144287109 
vn 0.18147483468055725 -0.8072025775909424 0.5616858005523682 
vn -0.06269130110740662 -0.20747102797031403 0.976230263710022 
vn 0.18884404003620148 -0.19549356400966644 0.962351381778717 
vn 0.6194802522659302 -0.6301484704017639 0.46814218163490295 
vn 0.654999315738678 -0.10507716238498688 0.7482877969741821 
vn 0.9371400475502014 -0.015099317766726017 0.34862664341926575 
vn 0.9332146048545837 -0.21686895191669464 0.2864931523799896 
vn 0.9523355960845947 -0.3046688437461853 -0.0152922747656703 
vn 0.6105802655220032 -0.7915897369384766 -0.024029340595006943 
vn -0.06269130110740662 -0.20747102797031403 0.976230263710022 
vn 0.20977377891540527 0.5384221076965332 0.8161473870277405 
vn 0.18884404003620148 -0.19549356400966644 0.962351381778717 
vn 0.6605039238929749 0.42122185230255127 0.6215357780456543 
vn 0.654999315738678 -0.10507716238498688 0.7482877969741821 
vn 0.9312062859535217 0.20230810344219208 0.30319350957870483 
vn 0.9371400475502014 -0.015099317766726017 0.34862664341926575 
vn 0.9968317151069641 0.0678563341498375 0.04149730131030083 
vn 0.9360688328742981 0.34025487303733826 0.08945280313491821 
vn 0.6831302642822266 0.7098168730735779 0.17173540592193604 
vn 0.23537090420722961 0.9488733410835266 0.2103329300880432 
vn -0.05450354143977165 0.5425800681114197 0.838234007358551 
vn -0.009429831057786942 0.9784940481185913 0.2060592919588089 
vn 0.03589196130633354 0.8064171075820923 -0.590256929397583 
vn 0.3342764973640442 0.7699940204620361 -0.5434780716896057 
vn 0.32900819182395935 0.1327015608549118 -0.9349566102027893 
vn 0.7627930641174316 0.5252834558486938 -0.37712597846984863 
vn 0.9560657739639282 0.24641096591949463 -0.15880759060382843 
vn 0.9529561400413513 0.1205386221408844 -0.2781098484992981 
vn 0.7442688941955566 0.09037060290575027 -0.661737859249115 
vn 0.05851801484823227 0.12648461759090424 -0.9902410507202148 
vn -0.9982536435127258 0.0037739125546067953 -0.058952588587999344 
vn -0.9982536435127258 0.0037739125546067953 -0.058952588587999344 
vn -0.9982536435127258 0.0037739125546067953 -0.058952588587999344 
vn -0.9982536435127258 0.0037739125546067953 -0.058952588587999344 
vn -0.9982536435127258 0.0037739125546067953 -0.058952588587999344 
vn -0.9982536435127258 0.0037739125546067953 -0.058952588587999344 
vn -0.9982536435127258 0.0037739125546067953 -0.058952588587999344 
vn -0.9982536435127258 0.0037739125546067953 -0.058952588587999344 
vn 0.7408318519592285 0.06775743514299393 0.6682642698287964 
vn 0.8874300122261047 -0.1054142564535141 0.4487268626689911 
vn 0.9115226864814758 0.12032119184732437 0.3932546079158783 
vn 0.9952097535133362 0.09043646603822708 -0.03713129088282585 
vn 0.8866559863090515 -0.45092663168907166 0.10250037163496017 
vn 0.6850976943969727 -0.6503937244415283 -0.3280687630176544 
vn 0.8505606055259705 0.12801939249038696 -0.5100564956665039 
vn 0.28088998794555664 -0.6497639417648315 -0.7063339352607727 
vn 0.45054370164871216 0.13408081233501434 -0.882628321647644 
vn -0.031828369945287704 0.09054753184318542 -0.9953833818435669 
vn -0.16123279929161072 -0.4497387409210205 -0.8784868121147156 
vn -0.5056356191635132 -0.10129912197589874 -0.8567795157432556 
vn -0.40402182936668396 -0.7904403805732727 -0.46040233969688416 
vn -0.6428752541542053 -0.30360010266304016 -0.7032341957092285 
vn -0.7138512134552002 0.06793440133333206 -0.6969945430755615 
vn -0.45364442467689514 0.12318288534879684 -0.882628321647644 
vn -0.09052342176437378 -0.9817193746566772 -0.16742929816246033 
vn 0.17638273537158966 -0.9810041785240173 0.08074574917554855 
vn 0.4841735064983368 -0.7933483719825745 0.3690181374549866 
vn 0.7430185079574585 -0.3087892532348633 0.5937783122062683 
vn 0.5370433926582336 -0.2132786512374878 0.8161473870277405 
vn 0.5004042983055115 -0.015048232860863209 0.865661084651947 
vn 0.18422195315361023 -0.6304454207420349 0.7540562748908997 
vn -0.221800297498703 -0.8071193695068359 0.5471406579017639 
vn -0.5323843359947205 -0.8065277934074402 0.25706008076667786 
vn -0.7648827433586121 -0.6303168535232544 -0.1328723281621933 
vn -0.8277333974838257 -0.19804249703884125 0.5250110030174255 
vn -0.993730366230011 -0.10545703768730164 0.03713129088282585 
vn 0.02933972142636776 -0.10949733108282089 0.9935539960861206 
vn -0.46803975105285645 -0.19794389605522156 0.8612531423568726 
vn -0.8480613231658936 -0.21680915355682373 -0.4835140109062195 
vn -0.8974846601486206 -0.01132401917129755 -0.4409002661705017 
vn -0.031828369945287704 0.09054753184318542 -0.9953833818435669 
vn -0.25055697560310364 0.5246447920799255 -0.8136147856712341 
vn -0.45364442467689514 0.12318288534879684 -0.882628321647644 
vn -0.5393378138542175 0.2525399327278137 -0.8033295273780823 
vn 0.45054370164871216 0.13408081233501434 -0.882628321647644 
vn 0.16122129559516907 0.7693838477134705 -0.6181069612503052 
vn 0.6072856187820435 0.7684323787689209 -0.2017817199230194 
vn 0.8505606055259705 0.12801939249038696 -0.5100564956665039 
vn 0.8265120983123779 0.5287208557128906 0.19321508705615997 
vn 0.9952097535133362 0.09043646603822708 -0.03713129088282585 
vn 0.9115226864814758 0.12032119184732437 0.3932546079158783 
vn 0.8379408121109009 0.24568410217761993 0.48733407258987427 
vn 0.7408318519592285 0.06775743514299393 0.6682642698287964 
vn 0.6642335057258606 0.3414073586463928 0.6650074124336243 
vn 0.5244743227958679 0.20603367686271667 0.8261215686798096 
vn 0.1098586693406105 0.42090755701065063 0.9004265069961548 
vn 0.02933972142636776 -0.10949733108282089 0.9935539960861206 
vn -0.46803975105285645 -0.19794389605522156 0.8612531423568726 
vn 0.4122936725616455 0.7115990519523621 0.5688942670822144 
vn -0.3576160669326782 0.5390275716781616 0.762600839138031 
vn -0.7378213405609131 0.5397905707359314 0.405272513628006 
vn -0.8277333974838257 -0.19804249703884125 0.5250110030174255 
vn 0.5004042983055115 -0.015048232860863209 0.865661084651947 
vn 0.04903212562203407 0.9476052522659302 0.31565824151039124 
vn -0.318926066160202 0.9473540782928467 -0.028397228568792343 
vn -0.5929129123687744 0.7114986181259155 -0.37712597846984863 
vn -0.9058276414871216 0.42065849900245667 -0.05022686347365379 
vn -0.993730366230011 -0.10545703768730164 0.03713129088282585 
vn -0.8593478202819824 0.20582562685012817 -0.46814218163490295 
vn -0.8974846601486206 -0.01132401917129755 -0.4409002661705017 
vn -0.7138512134552002 0.06793440133333206 -0.6969945430755615 
vn -0.7073073387145996 0.34301623702049255 -0.6181069612503052 
vn 0.6541964411735535 0.7528866529464722 0.07203252613544464 
vn 0.45783838629722595 0.8885818123817444 -0.028397228568792343 
vn 0.7012627124786377 0.71193528175354 0.03713129088282585 
vn 0.46965670585632324 0.8814192414283752 -0.05022686347365379 
vn -0.066038116812706 0.9895030856132507 -0.12854042649269104 
vn -0.08110194653272629 0.9883824586868286 -0.12854042649269104 
vn -0.32054755091667175 0.9352524280548096 -0.15017375349998474 
vn -0.32054755091667175 0.9352524280548096 -0.15017375349998474 
vn -0.42351728677749634 0.8291211724281311 -0.3649536371231079 
vn -0.42351728677749634 0.8291211724281311 -0.3649536371231079 
vn -0.07547423243522644 0.9782492518424988 -0.19321508705615997 
vn 0.039641644805669785 0.9909116625785828 -0.12854042649269104 
vn 0.45274606347084045 0.8823255300521851 0.12854042649269104 
vn 0.45274606347084045 0.8823255300521851 0.12854042649269104 
vn 0.6744896173477173 0.673154890537262 0.30319350957870483 
vn 0.6769315600395203 0.6609295010566711 0.3239381015300751 
vn 0.1670902520418167 0.9282933473587036 -0.33219319581985474 
vn -0.0829704999923706 0.9964921474456787 -0.010923261754214764 
vn 0.1670902520418167 0.9282933473587036 -0.33219319581985474 
vn -0.1559310257434845 0.9833037853240967 0.09380380809307098 
vn -0.4232580065727234 0.7733497619628906 0.4719987213611603 
vn -0.4264962077140808 0.773914635181427 0.46814218163490295 
vn -0.5575355887413025 0.5055593252182007 0.6584556698799133 
vn -0.5708484649658203 0.4948699474334717 0.6551609039306641 
vn 0.9227266311645508 -0.3827168345451355 -0.04586252197623253 
vn 0.9152593016624451 -0.3755362033843994 -0.1458524912595749 
vn 0.7129412293434143 0.3840174376964569 -0.5867242813110352 
vn 0.4906516373157501 0.5893047451972961 -0.641857385635376 
vn 0.11485058814287186 0.7963897585868835 -0.5937783122062683 
vn -0.48381054401397705 0.8178565502166748 -0.31150925159454346 
vn -0.9195509552955627 0.304337739944458 0.24860523641109467 
vn -0.9195509552955627 0.304337739944458 0.24860523641109467 
vn -0.4115670919418335 -0.14087100327014923 -0.9004265069961548 
vn -0.4115670919418335 -0.14087100327014923 -0.9004265069961548 
vn -0.29063013195991516 0.6942408084869385 -0.6584556698799133 
vn -0.04906744882464409 0.9915763735771179 -0.11986933648586273 
vn 0.12974031269550323 0.9529641270637512 0.27391019463539124 
vn 0.22908064723014832 0.8172956705093384 0.528724730014801 
vn 0.37847834825515747 0.022531764581799507 0.9253358840942383 
vn 0.3019445836544037 -0.044967472553253174 0.9522643685340881 
vn -0.29330578446388245 -0.35739412903785706 -0.8867024183273315 
vn -0.34825313091278076 -0.27357780933380127 -0.8965907096862793 
vn -0.011346711777150631 0.5561354756355286 -0.8310141563415527 
vn 0.12039528787136078 0.760145902633667 -0.6385006904602051 
vn 0.2953889071941376 0.9140023589134216 -0.2781098484992981 
vn 0.4498836398124695 0.8169264197349548 0.36088213324546814 
vn 0.3510722219944 0.15356212854385376 0.9236704111099243 
vn 0.3510722219944 0.15356212854385376 0.9236704111099243 
vn 0.5682551860809326 -0.05265659838914871 0.8211658596992493 
vn 0.5682551860809326 -0.05265659838914871 0.8211658596992493 
vn 0.4036857783794403 0.7569921612739563 0.5138099193572998 
vn 0.06037835404276848 0.998173177242279 0.002184694167226553 
vn -0.185691699385643 0.9202277064323425 -0.34452807903289795 
vn -0.3235807418823242 0.7614489793777466 -0.5616858005523682 
vn -0.5405835509300232 -0.07164597511291504 -0.838234007358551 
vn -0.4722934067249298 -0.14154142141342163 -0.8700028657913208 
vn 0.9166864156723022 -0.17993642389774323 0.3568037748336792 
vn 0.5476663112640381 0.5676680207252502 0.6146662831306458 
vn 0.9166864156723022 -0.17993642389774323 0.3568037748336792 
vn -0.03584840148687363 0.8703399896621704 0.4911448359489441 
vn -0.41556471586227417 0.8604456782341003 0.2948545813560486 
vn -0.6394020318984985 0.7620096802711487 0.10250037163496017 
vn -0.8886807560920715 0.09429065138101578 -0.4487268626689911 
vn -0.840761661529541 0.07545317709445953 -0.5361219048500061 
vn -0.676487147808075 0.7031798362731934 -0.21886809170246124 
vn -0.6224662065505981 0.7822777032852173 0.024029340595006943 
vn -0.7215840220451355 0.6509020924568176 -0.23588760197162628 
vn -0.6457353830337524 0.7630330324172974 0.028397228568792343 
vn -0.3100898563861847 0.8274582624435425 0.46814218163490295 
vn -0.30317994952201843 0.8256223201751709 0.4758462607860565 
vn -0.12020394951105118 0.7685814499855042 0.6283578276634216 
vn -0.12020394951105118 0.7685814499855042 0.6283578276634216 
vn -0.3478313982486725 0.7533766031265259 -0.5580654144287109 
vn -0.0904724970459938 0.9282127022743225 -0.36088213324546814 
vn -0.34808409214019775 0.7638514637947083 -0.5434780716896057 
vn -0.0904724970459938 0.9282127022743225 -0.36088213324546814 
vn 0.2972467839717865 0.9538984894752502 -0.04149730131030083 
vn 0.38931387662887573 0.9201699495315552 0.04149730131030083 
vn 0.6344941258430481 0.7091900110244751 0.30735430121421814 
vn 0.6344941258430481 0.7091900110244751 0.30735430121421814 
vn 0.74003666639328 0.03771320730447769 0.6715083718299866 
vn 0.74003666639328 0.03771320730447769 0.6715083718299866 
vn 0.7727872729301453 0.6342101097106934 0.024029340595006943 
vn 0.3913258910179138 0.770932674407959 -0.5025205612182617 
vn 0.0396527498960495 0.6784045696258545 -0.7336177229881287 
vn -0.20504893362522125 0.5209770798683167 -0.8285757899284363 
vn -0.7610294818878174 -0.16124692559242249 -0.6283578276634216 
vn -0.7346700429916382 -0.25578585267066956 -0.6283578276634216 
vn 0.26363605260849 -0.11737833172082901 -0.9574540853500366 
vn 0.04717983305454254 0.6969643831253052 -0.715552031993866 
vn 0.26363605260849 -0.11737833172082901 -0.9574540853500366 
vn -0.15233668684959412 0.9775073528289795 -0.1458524912595749 
vn -0.24983516335487366 0.929968535900116 0.26970529556274414 
vn -0.3112398386001587 0.7846674919128418 0.5361219048500061 
vn -0.2843002676963806 -0.007507253438234329 0.9587059020996094 
vn -0.34331488609313965 -0.08939224481582642 0.9349566102027893 
vn -0.056586913764476776 0.981177031993866 -0.18463370203971863 
vn -0.1428711861371994 0.9888709783554077 0.04149730131030083 
vn -0.056586913764476776 0.981177031993866 -0.18463370203971863 
vn -0.1448194980621338 0.9879510402679443 0.05459024757146835 
vn -0.3252546787261963 0.7840022444725037 0.528724730014801 
vn -0.31118595600128174 0.7796120047569275 0.5434780716896057 
vn -0.3896624743938446 0.5645235776901245 0.7276512384414673 
vn -0.4287217855453491 0.5971352458000183 0.677958071231842 
vn -0.30142688751220703 0.7375597953796387 0.6042742133140564 
vn -0.1763182133436203 0.9323474168777466 0.31565824151039124 
vn -0.2876553535461426 0.7486661076545715 0.5972883701324463 
vn -0.17813381552696228 0.9305887818336487 0.3198012113571167 
vn -0.003775994060561061 0.9879868030548096 -0.15449213981628418 
vn 0.03775833547115326 0.9610137939453125 -0.27391019463539124 
vn 0.17611762881278992 0.7716217637062073 -0.6112139225006104 
vn 0.17611762881278992 0.7716217637062073 -0.6112139225006104 
vn -0.9439576268196106 0.23924759030342102 -0.22738653421401978 
vn -0.9439576268196106 0.23924759030342102 -0.22738653421401978 
vn -0.33092647790908813 0.7841244339942932 -0.5250110030174255 
vn 0.3314838409423828 0.8101435899734497 -0.4835140109062195 
vn 0.6999369263648987 0.6278539299964905 -0.34042292833328247 
vn 0.8802673816680908 0.43708088994026184 -0.18463370203971863 
vn 0.8964235782623291 -0.3111022114753723 0.31565824151039124 
vn 0.8553666472434998 -0.3175714612007141 0.40926313400268555 
vn -0.9148578643798828 0.39272886514663696 -0.09380380809307098 
vn -0.9152205586433411 0.39646264910697937 -0.07203252613544464 
vn -0.7653419971466064 0.6268801093101501 0.1458524912595749 
vn -0.7667073011398315 0.6241856813430786 0.15017375349998474 
vn -0.38389402627944946 0.8257440328598022 0.41324591636657715 
vn -0.26363399624824524 0.8455437421798706 0.4642767012119293 
vn 0.12954649329185486 0.8070770502090454 0.5760593414306641 
vn 0.12954649329185486 0.8070770502090454 0.5760593414306641 
vn -0.7111824154853821 0.5278888940811157 0.4642767012119293 
vn -0.4640621244907379 0.7937235832214355 0.3932546079158783 
vn -0.6969236731529236 0.5399208664894104 0.4719987213611603 
vn -0.46102824807167053 0.79349285364151 0.3972681760787964 
vn -0.04714440554380417 0.9824742674827576 0.18033768236637115 
vn 0.06598491221666336 0.9911098480224609 0.11553031951189041 
vn 0.40339240431785583 0.9097475409507751 -0.0981530249118805 
vn 0.40339240431785583 0.9097475409507751 -0.0981530249118805 
vn 0.5214910507202148 0.8453992009162903 0.11553031951189041 
vn 0.5214910507202148 0.8453992009162903 0.11553031951189041 
vn 0.5185664892196655 0.8453201651573181 -0.12854042649269104 
vn 0.5165954232215881 0.8444517850875854 -0.1415284425020218 
vn 0.4149323105812073 0.6481882929801941 -0.6385006904602051 
vn 0.38744881749153137 0.6584816575050354 -0.6452018022537231 
vn 0.3028828799724579 0.44904232025146484 -0.8406086564064026 
vn 0.36132413148880005 0.4600171148777008 -0.8110666871070862 
vn 0.4455612897872925 -0.0900721624493599 -0.8907088041305542 
vn 0.4455612897872925 -0.0900721624493599 -0.8907088041305542 
vn 0.31245505809783936 0.7271790504455566 -0.6112139225006104 
vn 0.041528113186359406 0.9968428611755371 -0.06767380982637405 
vn -0.1540241539478302 0.9362886548042297 0.31565824151039124 
vn -0.29005199670791626 0.7877191305160522 0.5434780716896057 
vn -0.484709769487381 -0.02634521573781967 0.87427818775177 
vn -0.5489234924316406 -0.08999143540859222 0.8310141563415527 
vn -0.32409828901290894 0.7071964144706726 -0.6283578276634216 
vn -0.0037754031363874674 0.8916917443275452 -0.45262736082077026 
vn -0.32409828901290894 0.7071964144706726 -0.6283578276634216 
vn 0.09989187121391296 0.9190928936004639 -0.3811691105365753 
vn 0.4764077365398407 0.8780274987220764 -0.04586252197623253 
vn 0.4776316285133362 0.8775796294212341 -0.04149730131030083 
vn 0.6627148389816284 0.7187274098396301 0.2103329300880432 
vn 0.6565195918083191 0.7178615927696228 0.23163928091526031 
vn -0.5844730734825134 0.781337320804596 0.21886809170246124 
vn -0.36286070942878723 0.9142267107963562 0.18033768236637115 
vn -0.6005764007568359 0.7496418356895447 0.2781098484992981 
vn -0.36267808079719543 0.9088477492332458 0.2060592919588089 
vn 0.12794172763824463 0.9910863637924194 -0.03713129088282585 
vn 0.1428711861371994 0.9888709783554077 -0.04149730131030083 
vn 0.3454207479953766 0.9263543486595154 -0.15017375349998474 
vn 0.3454207479953766 0.9263543486595154 -0.15017375349998474 
vn 0.6270426511764526 0.7776336669921875 0.04586252197623253 
vn 0.6797127723693848 0.7330846786499023 0.024029340595006943 
vn 0.4427889585494995 0.890237033367157 -0.10684575140476227 
vn 0.4608674943447113 0.8787343502044678 -0.1242060661315918 
vn -0.05660116672515869 0.952564537525177 -0.2990269064903259 
vn -0.07354273647069931 0.9500869512557983 -0.30319350957870483 
vn -0.3006312847137451 0.8861210346221924 -0.3527185618877411 
vn -0.3006312847137451 0.8861210346221924 -0.3527185618877411 
vt 0.2904904782772064 0.053087018430233 
vt 0.21835869550704956 0.028800219297409058 
vt 0.2159300148487091 0.11598983407020569 
vt 0.19030743837356567 0.06729479879140854 
vt 0.32291337847709656 0.08854574710130692 
vt 0.22685907781124115 0.14901988208293915 
vt 0.2397310733795166 0.8574658632278442 
vt 0.34841451048851013 0.9183042645454407 
vt 0.2296520620584488 0.8928031325340271 
vt 0.3136843740940094 0.9586203694343567 
vt 0.23535946011543274 0.9866716265678406 
vt 0.2039080411195755 0.9456269145011902 
vt 0.17257808148860931 0.9961434602737427 
vt 0.16893506050109863 0.9338478446006775 
vt 0.13554070889949799 0.9448983073234558 
vt 0.10736801475286484 0.8962032794952393 
vt 0.039850715547800064 0.9567988514900208 
vt 0.00390625 0.9253474473953247 
vt 0.16541346907615662 0.8800525665283203 
vt 0.09546748548746109 0.8628089427947998 
vt 0.08854574710130692 0.14671263098716736 
vt 0.16407769918441772 0.8455653190612793 
vt 0.10858235508203506 0.9840000867843628 
vt 0.15497013926506042 0.16274192929267883 
vt 0.1553344428539276 0.12971188127994537 
vt 0.15776312351226807 0.07919532805681229 
vt 0.16019180417060852 0.021028444170951843 
vt 0.00390625 0.08806001394987106 
vt 0.09996054321527481 0.11501836031675339 
vt 0.03705773130059242 0.05891585350036621 
vt 0.12619028985500336 0.06911630928516388 
vt 0.10081057995557785 0.03292897716164589 
vt 0.4960782527923584 0.00390625 
vt 0.5309298038482666 0.05029403790831566 
vt 0.5535165071487427 0.01240663044154644 
vt 0.6182408332824707 0.05721577629446983 
vt 0.5535165071487427 0.10238922387361526 
vt 0.5662671327590942 0.13299059867858887 
vt 0.6560068130493164 0.09182446449995041 
vt 0.5718530416488647 0.8673020005226135 
vt 0.6560068130493164 0.907739520072937 
vt 0.6206695437431335 0.9411338567733765 
vt 0.5586167573928833 0.8975390791893005 
vt 0.535908579826355 0.9492699503898621 
vt 0.5091931223869324 0.8931674361228943 
vt 0.5051857829093933 0.9372479915618896 
vt 0.5017856359481812 0.9960220456123352 
vt 0.5587381720542908 0.9861858487129211 
vt 0.5104074478149414 0.8635375499725342 
vt 0.5060358643531799 0.13602644205093384 
vt 0.5047000646591187 0.10663941502571106 
vt 0.5003284215927124 0.06268030405044556 
vt 0.46814844012260437 0.05345132201910019 
vt 0.4370613396167755 0.016778254881501198 
vt 0.4436187744140625 0.09583178907632828 
vt 0.38229459524154663 0.05454422906041145 
vt 0.35873639583587646 0.08806001394987106 
vt 0.43171823024749756 0.12546168267726898 
vt 0.3601936101913452 0.9125968813896179 
vt 0.4360898435115814 0.8742237091064453 
vt 0.44799038767814636 0.9042178988456726 
vt 0.3850875794887543 0.9470841288566589 
vt 0.4419187009334564 0.98436439037323 
vt 0.4730058014392853 0.9468412399291992 
vt 0.6560068130493164 0.4997212588787079 
vt 0.5690600872039795 0.5000855922698975 
vt 0.6560068130493164 0.09182446449995041 
vt 0.5662671327590942 0.13299059867858887 
vt 0.6182408332824707 0.05721577629446983 
vt 0.5535165071487427 0.10238922387361526 
vt 0.5309298038482666 0.05029403790831566 
vt 0.5535165071487427 0.01240663044154644 
vt 0.4960782527923584 0.00390625 
vt 0.5060358643531799 0.13602644205093384 
vt 0.5082216262817383 0.49984270334243774 
vt 0.4339040517807007 0.49984270334243774 
vt 0.43171823024749756 0.12546168267726898 
vt 0.35946500301361084 0.5003284215927124 
vt 0.35873639583587646 0.08806001394987106 
vt 0.4436187744140625 0.09583178907632828 
vt 0.38229459524154663 0.05454422906041145 
vt 0.4370613396167755 0.016778254881501198 
vt 0.46814844012260437 0.05345132201910019 
vt 0.5003284215927124 0.06268030405044556 
vt 0.5047000646591187 0.10663941502571106 
vt 0.00390625 0.5067644715309143 
vt 0.09546748548746109 0.8628089427947998 
vt 0.00390625 0.9253474473953247 
vt 0.10736801475286484 0.8962032794952393 
vt 0.039850715547800064 0.9567988514900208 
vt 0.13554070889949799 0.9448983073234558 
vt 0.10858235508203506 0.9840000867843628 
vt 0.17257808148860931 0.9961434602737427 
vt 0.16893506050109863 0.9338478446006775 
vt 0.16541346907615662 0.8800525665283203 
vt 0.16407769918441772 0.8455653190612793 
vt 0.09194590151309967 0.5048214793205261 
vt 0.159584641456604 0.5040928721427917 
vt 0.23329508304595947 0.5032428503036499 
vt 0.2397310733795166 0.8574658632278442 
vt 0.34841451048851013 0.9183042645454407 
vt 0.2296520620584488 0.8928031325340271 
vt 0.2039080411195755 0.9456269145011902 
vt 0.23535946011543274 0.9866716265678406 
vt 0.3136843740940094 0.9586203694343567 
vt 0.33566394448280334 0.5034857392311096 
vt 0.7592257261276245 0.008763610385358334 
vt 0.6778649687767029 0.09583178907632828 
vt 0.8987534046173096 0.0105851199477911 
vt 0.8065850138664246 0.32400625944137573 
vt 0.9887359738349915 0.22042307257652283 
vt 0.9414981603622437 0.3162344992160797 
vt 0.6778649687767029 0.22698050737380981 
vt 0.9850929975509644 0.09061012417078018 
vt 0.4960782527923584 0.00390625 
vt 0.5309298038482666 0.05029403790831566 
vt 0.5535165071487427 0.01240663044154644 
vt 0.6182408332824707 0.05721577629446983 
vt 0.5535165071487427 0.10238922387361526 
vt 0.5662671327590942 0.13299059867858887 
vt 0.6560068130493164 0.09182446449995041 
vt 0.5718530416488647 0.8673020005226135 
vt 0.6560068130493164 0.907739520072937 
vt 0.6206695437431335 0.9411338567733765 
vt 0.5586167573928833 0.8975390791893005 
vt 0.535908579826355 0.9492699503898621 
vt 0.5091931223869324 0.8931674361228943 
vt 0.5051857829093933 0.9372479915618896 
vt 0.5017856359481812 0.9960220456123352 
vt 0.5587381720542908 0.9861858487129211 
vt 0.5104074478149414 0.8635375499725342 
vt 0.5060358643531799 0.13602644205093384 
vt 0.5047000646591187 0.10663941502571106 
vt 0.5003284215927124 0.06268030405044556 
vt 0.46814844012260437 0.05345132201910019 
vt 0.4370613396167755 0.016778254881501198 
vt 0.4436187744140625 0.09583178907632828 
vt 0.43171823024749756 0.12546168267726898 
vt 0.4360898435115814 0.8742237091064453 
vt 0.44799038767814636 0.9042178988456726 
vt 0.3601936101913452 0.9125968813896179 
vt 0.3850875794887543 0.9470841288566589 
vt 0.38229459524154663 0.05454422906041145 
vt 0.35873639583587646 0.08806001394987106 
vt 0.4730058014392853 0.9468412399291992 
vt 0.4419187009334564 0.98436439037323 
vt 0.2904904782772064 0.053087018430233 
vt 0.2159300148487091 0.11598983407020569 
vt 0.21835869550704956 0.028800219297409058 
vt 0.19030743837356567 0.06729479879140854 
vt 0.32291337847709656 0.08854574710130692 
vt 0.22685907781124115 0.14901988208293915 
vt 0.2397310733795166 0.8574658632278442 
vt 0.34841451048851013 0.9183042645454407 
vt 0.2296520620584488 0.8928031325340271 
vt 0.3136843740940094 0.9586203694343567 
vt 0.23535946011543274 0.9866716265678406 
vt 0.2039080411195755 0.9456269145011902 
vt 0.17257808148860931 0.9961434602737427 
vt 0.16893506050109863 0.9338478446006775 
vt 0.13554070889949799 0.9448983073234558 
vt 0.10736801475286484 0.8962032794952393 
vt 0.039850715547800064 0.9567988514900208 
vt 0.00390625 0.9253474473953247 
vt 0.16541346907615662 0.8800525665283203 
vt 0.09546748548746109 0.8628089427947998 
vt 0.08854574710130692 0.14671263098716736 
vt 0.00390625 0.08806001394987106 
vt 0.10858235508203506 0.9840000867843628 
vt 0.16407769918441772 0.8455653190612793 
vt 0.15497013926506042 0.16274192929267883 
vt 0.1553344428539276 0.12971188127994537 
vt 0.09996054321527481 0.11501836031675339 
vt 0.03705773130059242 0.05891585350036621 
vt 0.12619028985500336 0.06911630928516388 
vt 0.10081057995557785 0.03292897716164589 
vt 0.16019180417060852 0.021028444170951843 
vt 0.15776312351226807 0.07919532805681229 
vt 0.7779265642166138 0.5674814581871033 
vt 0.7801123857498169 0.5055500864982605 
vt 0.7151451706886292 0.5620169043540955 
vt 0.7053090333938599 0.5055500864982605 
vt 0.7801123857498169 0.43074676394462585 
vt 0.7053090333938599 0.43074676394462585 
vt 0.7816910147666931 0.37804439663887024 
vt 0.6949871182441711 0.37804439663887024 
vt 0.9895860552787781 0.3403998613357544 
vt 0.9895860552787781 0.3603150546550751 
vt 0.9378551244735718 0.33663541078567505 
vt 0.9378551244735718 0.4114387631416321 
vt 0.8630517721176147 0.4114387631416321 
vt 0.8630517721176147 0.33663541078567505 
vt 0.8101065754890442 0.3875162601470947 
vt 0.7975988984107971 0.3680868148803711 
vt 0.9895860552787781 0.3403998613357544 
vt 0.9378551244735718 0.33663541078567505 
vt 0.9895860552787781 0.3603150546550751 
vt 0.9378551244735718 0.4114387631416321 
vt 0.8630517721176147 0.4114387631416321 
vt 0.8630517721176147 0.33663541078567505 
vt 0.8101065754890442 0.3875162601470947 
vt 0.7975988984107971 0.3680868148803711 
vt 0.9444125890731812 0.5187864303588867 
vt 0.8940174579620361 0.5201221704483032 
vt 0.9985721707344055 0.6454420685768127 
vt 0.6847866773605347 0.6454420685768127 
vt 0.6847866773605347 0.9592275023460388 
vt 0.9985721707344055 0.9592275023460388 
vt 0.9163613319396973 0.9985721707344055 
vt 0.9922575950622559 0.9985721707344055 
vt 0.9922575950622559 0.9985721707344055 
vt 0.9163613319396973 0.9985721707344055 
vt 0.9985721707344055 0.9592275023460388 
vt 0.6847866773605347 0.9592275023460388 
vt 0.6847866773605347 0.6454420685768127 
vt 0.9985721707344055 0.6454420685768127 
vt 0.8940174579620361 0.5201221704483032 
vt 0.9444125890731812 0.5187864303588867 
vt 0.9444125890731812 0.5187864303588867 
vt 0.8940174579620361 0.5201221704483032 
vt 0.9985721707344055 0.6454420685768127 
vt 0.6847866773605347 0.6454420685768127 
vt 0.6847866773605347 0.9592275023460388 
vt 0.9985721707344055 0.9592275023460388 
vt 0.9163613319396973 0.9985721707344055 
vt 0.9922575950622559 0.9985721707344055 
vt 0.9922575950622559 0.9985721707344055 
vt 0.9163613319396973 0.9985721707344055 
vt 0.9985721707344055 0.9592275023460388 
vt 0.6847866773605347 0.9592275023460388 
vt 0.6847866773605347 0.6454420685768127 
vt 0.9985721707344055 0.6454420685768127 
vt 0.8940174579620361 0.5201221704483032 
vt 0.9444125890731812 0.5187864303588867 
vt 0.9922575950622559 0.9985721707344055 
vt 0.9985721707344055 0.9592275023460388 
vt 0.9163613319396973 0.9985721707344055 
vt 0.6847866773605347 0.9592275023460388 
vt 0.6847866773605347 0.6454420685768127 
vt 0.9985721707344055 0.6454420685768127 
vt 0.8940174579620361 0.5201221704483032 
vt 0.9444125890731812 0.5187864303588867 
vt 0.7779265642166138 0.5674814581871033 
vt 0.7801123857498169 0.5055500864982605 
vt 0.7151451706886292 0.5620169043540955 
vt 0.7053090333938599 0.5055500864982605 
vt 0.7801123857498169 0.43074676394462585 
vt 0.7053090333938599 0.43074676394462585 
vt 0.7816910147666931 0.37804439663887024 
vt 0.6949871182441711 0.37804439663887024 
vt 0.7975988984107971 0.3680868148803711 
vt 0.8630517721176147 0.33663541078567505 
vt 0.8101065754890442 0.3875162601470947 
vt 0.8630517721176147 0.4114387631416321 
vt 0.9378551244735718 0.4114387631416321 
vt 0.9378551244735718 0.33663541078567505 
vt 0.9895860552787781 0.3603150546550751 
vt 0.9895860552787781 0.3403998613357544 
vt 0.9922575950622559 0.9985721707344055 
vt 0.9163613319396973 0.9985721707344055 
vt 0.9985721707344055 0.9592275023460388 
vt 0.6847866773605347 0.9592275023460388 
vt 0.6847866773605347 0.6454420685768127 
vt 0.9985721707344055 0.6454420685768127 
vt 0.8940174579620361 0.5201221704483032 
vt 0.9444125890731812 0.5187864303588867 
vt 0.9922575950622559 0.9985721707344055 
vt 0.9985721707344055 0.9592275023460388 
vt 0.9163613319396973 0.9985721707344055 
vt 0.6847866773605347 0.9592275023460388 
vt 0.6847866773605347 0.6454420685768127 
vt 0.9985721707344055 0.6454420685768127 
vt 0.8940174579620361 0.5201221704483032 
vt 0.9444125890731812 0.5187864303588867 
vt 0.6949871182441711 0.37804439663887024 
vt 0.7053090333938599 0.43074676394462585 
vt 0.7816910147666931 0.37804439663887024 
vt 0.7801123857498169 0.43074676394462585 
vt 0.7801123857498169 0.5055500864982605 
vt 0.7053090333938599 0.5055500864982605 
vt 0.7151451706886292 0.5620169043540955 
vt 0.7779265642166138 0.5674814581871033 
vt 0.7975988984107971 0.3680868148803711 
vt 0.8630517721176147 0.33663541078567505 
vt 0.8101065754890442 0.3875162601470947 
vt 0.8630517721176147 0.4114387631416321 
vt 0.9378551244735718 0.4114387631416321 
vt 0.9378551244735718 0.33663541078567505 
vt 0.9895860552787781 0.3603150546550751 
vt 0.9895860552787781 0.3403998613357544 
vt 0.9922575950622559 0.9985721707344055 
vt 0.9163613319396973 0.9985721707344055 
vt 0.9985721707344055 0.9592275023460388 
vt 0.6847866773605347 0.9592275023460388 
vt 0.6847866773605347 0.6454420685768127 
vt 0.9985721707344055 0.6454420685768127 
vt 0.8940174579620361 0.5201221704483032 
vt 0.9444125890731812 0.5187864303588867 
vt 0.7975988984107971 0.3680868148803711 
vt 0.8101065754890442 0.3875162601470947 
vt 0.8630517721176147 0.33663541078567505 
vt 0.8630517721176147 0.4114387631416321 
vt 0.9378551244735718 0.4114387631416321 
vt 0.9378551244735718 0.33663541078567505 
vt 0.9895860552787781 0.3603150546550751 
vt 0.9895860552787781 0.3403998613357544 
vt 0.7975988984107971 0.3680868148803711 
vt 0.8630517721176147 0.33663541078567505 
vt 0.8101065754890442 0.3875162601470947 
vt 0.8630517721176147 0.4114387631416321 
vt 0.9378551244735718 0.4114387631416321 
vt 0.9378551244735718 0.33663541078567505 
vt 0.9895860552787781 0.3603150546550751 
vt 0.9895860552787781 0.3403998613357544 
vt 0.6949871182441711 0.37804439663887024 
vt 0.7816910147666931 0.37804439663887024 
vt 0.7053090333938599 0.43074676394462585 
vt 0.7801123857498169 0.43074676394462585 
vt 0.7801123857498169 0.5055500864982605 
vt 0.7053090333938599 0.5055500864982605 
vt 0.7151451706886292 0.5620169043540955 
vt 0.7779265642166138 0.5674814581871033 
vt 0.9922575950622559 0.9985721707344055 
vt 0.9163613319396973 0.9985721707344055 
vt 0.9985721707344055 0.9592275023460388 
vt 0.6847866773605347 0.9592275023460388 
vt 0.6847866773605347 0.6454420685768127 
vt 0.9985721707344055 0.6454420685768127 
vt 0.8940174579620361 0.5201221704483032 
vt 0.9444125890731812 0.5187864303588867 
vt 0.9895860552787781 0.3403998613357544 
vt 0.9378551244735718 0.33663541078567505 
vt 0.9895860552787781 0.3603150546550751 
vt 0.9378551244735718 0.4114387631416321 
vt 0.8630517721176147 0.4114387631416321 
vt 0.8630517721176147 0.33663541078567505 
vt 0.8101065754890442 0.3875162601470947 
vt 0.7975988984107971 0.3680868148803711 
vt 0.7779265642166138 0.5674814581871033 
vt 0.7801123857498169 0.5055500864982605 
vt 0.7151451706886292 0.5620169043540955 
vt 0.7053090333938599 0.5055500864982605 
vt 0.7801123857498169 0.43074676394462585 
vt 0.7053090333938599 0.43074676394462585 
vt 0.7816910147666931 0.37804439663887024 
vt 0.6949871182441711 0.37804439663887024 
vt 0.7779265642166138 0.5674814581871033 
vt 0.7151451706886292 0.5620169043540955 
vt 0.7801123857498169 0.5055500864982605 
vt 0.7053090333938599 0.5055500864982605 
vt 0.7801123857498169 0.43074676394462585 
vt 0.7053090333938599 0.43074676394462585 
vt 0.7816910147666931 0.37804439663887024 
vt 0.6949871182441711 0.37804439663887024 
s on 
f 1/1/1 2/2/2 3/3/3 
f 2/2/2 4/4/4 3/3/3 
f 3/3/3 4/4/4 4/4/4 
f 4/4/4 1/1/1 4/4/4 
f 4/4/4 1/1/1 1/1/1 
f 1/1/1 3/3/3 1/1/1 
f 1/1/1 3/3/3 5/5/5 
f 3/3/3 6/6/6 5/5/5 
f 5/5/5 6/6/6 5/5/5 
f 6/6/6 7/7/7 5/5/5 
f 5/5/5 7/7/7 8/8/8 
f 7/7/7 9/9/9 8/8/8 
f 8/8/8 9/9/9 10/10/10 
f 9/9/9 9/9/9 10/10/10 
f 10/10/10 9/9/9 11/11/11 
f 9/9/9 12/12/12 11/11/11 
f 11/11/11 12/12/12 13/13/13 
f 12/12/12 14/14/14 13/13/13 
f 13/13/13 14/14/14 15/15/15 
f 14/14/14 16/16/16 15/15/15 
f 15/15/15 16/16/16 17/17/17 
f 16/16/16 18/18/18 17/17/17 
f 17/17/17 18/18/18 18/18/18 
f 18/18/18 12/12/12 18/18/18 
f 18/18/18 12/12/12 12/12/12 
f 12/12/12 9/9/9 12/12/12 
f 12/12/12 9/9/9 14/14/14 
f 9/9/9 19/19/19 14/14/14 
f 14/14/14 19/19/19 16/16/16 
f 19/19/19 20/20/20 16/16/16 
f 16/16/16 20/20/20 18/18/18 
f 20/20/20 20/20/20 18/18/18 
f 18/18/18 20/20/20 21/21/21 
f 20/20/20 20/20/20 21/21/21 
f 21/21/21 20/20/20 22/22/22 
f 20/20/20 19/19/19 22/22/22 
f 22/22/22 19/19/19 7/7/7 
f 19/19/19 9/9/9 7/7/7 
f 7/7/7 9/9/9 9/9/9 
f 9/9/9 13/13/13 9/9/9 
f 9/9/9 13/13/13 13/13/13 
f 13/13/13 15/15/15 13/13/13 
f 13/13/13 15/15/15 23/23/23 
f 15/15/15 17/17/17 23/23/23 
f 23/23/23 17/17/17 17/17/17 
f 17/17/17 7/7/7 17/17/17 
f 17/17/17 7/7/7 7/7/7 
f 7/7/7 6/6/6 7/7/7 
f 7/7/7 6/6/6 22/22/22 
f 6/6/6 24/24/24 22/22/22 
f 22/22/22 24/24/24 21/21/21 
f 24/24/24 24/24/24 21/21/21 
f 21/21/21 24/24/24 25/25/25 
f 24/24/24 6/6/6 25/25/25 
f 25/25/25 6/6/6 25/25/25 
f 6/6/6 3/3/3 25/25/25 
f 25/25/25 3/3/3 26/26/26 
f 3/3/3 4/4/4 26/26/26 
f 26/26/26 4/4/4 27/27/27 
f 4/4/4 2/2/2 27/27/27 
f 27/27/27 2/2/2 2/2/2 
f 2/2/2 18/18/18 2/2/2 
f 2/2/2 18/18/18 18/18/18 
f 18/18/18 21/21/21 18/18/18 
f 18/18/18 21/21/21 28/28/28 
f 21/21/21 29/29/29 28/28/28 
f 28/28/28 29/29/29 30/30/30 
f 29/29/29 31/31/31 30/30/30 
f 30/30/30 31/31/31 32/32/32 
f 31/31/31 31/31/31 32/32/32 
f 32/32/32 31/31/31 27/27/27 
f 31/31/31 31/31/31 27/27/27 
f 27/27/27 31/31/31 26/26/26 
f 31/31/31 29/29/29 26/26/26 
f 26/26/26 29/29/29 25/25/25 
f 29/29/29 21/21/21 25/25/25 
f 25/25/25 21/21/21 21/21/21 
f 21/21/21 33/33/33 21/21/21 
f 21/21/21 33/33/33 33/33/33 
f 33/33/33 34/34/34 33/33/33 
f 33/33/33 34/34/34 35/35/35 
f 34/34/34 34/34/34 35/35/35 
f 35/35/35 34/34/34 36/36/36 
f 34/34/34 37/37/37 36/36/36 
f 36/36/36 37/37/37 36/36/36 
f 37/37/37 38/38/38 36/36/36 
f 36/36/36 38/38/38 39/39/39 
f 38/38/38 40/40/40 39/39/39 
f 39/39/39 40/40/40 41/41/41 
f 40/40/40 40/40/40 41/41/41 
f 41/41/41 40/40/40 42/42/42 
f 40/40/40 43/43/43 42/42/42 
f 42/42/42 43/43/43 44/44/44 
f 43/43/43 45/45/45 44/44/44 
f 44/44/44 45/45/45 44/44/44 
f 45/45/45 46/46/46 44/44/44 
f 44/44/44 46/46/46 44/44/44 
f 46/46/46 47/47/47 44/44/44 
f 44/44/44 47/47/47 44/44/44 
f 47/47/47 48/48/48 44/44/44 
f 44/44/44 48/48/48 42/42/42 
f 48/48/48 42/42/42 42/42/42 
f 42/42/42 42/42/42 45/45/45 
f 42/42/42 45/45/45 45/45/45 
f 45/45/45 45/45/45 49/49/49 
f 45/45/45 43/43/43 49/49/49 
f 49/49/49 43/43/43 49/49/49 
f 43/43/43 40/40/40 49/49/49 
f 49/49/49 40/40/40 50/50/50 
f 40/40/40 38/38/38 50/50/50 
f 50/50/50 38/38/38 50/50/50 
f 38/38/38 37/37/37 50/50/50 
f 50/50/50 37/37/37 51/51/51 
f 37/37/37 34/34/34 51/51/51 
f 51/51/51 34/34/34 52/52/52 
f 34/34/34 33/33/33 52/52/52 
f 52/52/52 33/33/33 53/53/53 
f 33/33/33 54/54/54 53/53/53 
f 53/53/53 54/54/54 55/55/55 
f 54/54/54 56/56/56 55/55/55 
f 55/55/55 56/56/56 55/55/55 
f 56/56/56 57/57/57 55/55/55 
f 55/55/55 57/57/57 58/58/58 
f 57/57/57 59/59/59 58/58/58 
f 58/58/58 59/59/59 60/60/60 
f 59/59/59 61/61/61 60/60/60 
f 60/60/60 61/61/61 60/60/60 
f 61/61/61 49/49/49 60/60/60 
f 60/60/60 49/49/49 60/60/60 
f 49/49/49 50/50/50 60/60/60 
f 60/60/60 50/50/50 58/58/58 
f 50/50/50 50/50/50 58/58/58 
f 58/58/58 50/50/50 55/55/55 
f 50/50/50 51/51/51 55/55/55 
f 55/55/55 51/51/51 55/55/55 
f 51/51/51 52/52/52 55/55/55 
f 55/55/55 52/52/52 53/53/53 
f 52/52/52 53/53/53 53/53/53 
f 53/53/53 53/53/53 59/59/59 
f 53/53/53 59/59/59 59/59/59 
f 59/59/59 59/59/59 61/61/61 
f 59/59/59 62/62/62 61/61/61 
f 61/61/61 62/62/62 61/61/61 
f 62/62/62 63/63/63 61/61/61 
f 61/61/61 63/63/63 64/64/64 
f 63/63/63 47/47/47 64/64/64 
f 64/64/64 47/47/47 64/64/64 
f 47/47/47 46/46/46 64/64/64 
f 64/64/64 46/46/46 61/61/61 
f 46/46/46 45/45/45 61/61/61 
f 61/61/61 45/45/45 49/49/49 
f 45/45/45 49/49/49 49/49/49 
f 49/49/49 49/49/49 65/65/65 
f 49/49/49 65/65/65 65/65/65 
f 65/65/65 65/65/65 66/66/66 
f 65/65/65 67/67/67 66/66/66 
f 66/66/66 67/67/67 68/68/68 
f 67/67/67 69/69/69 68/68/68 
f 68/68/68 69/69/69 70/70/70 
f 69/69/69 69/69/69 70/70/70 
f 70/70/70 69/69/69 71/71/71 
f 69/69/69 72/72/72 71/71/71 
f 71/71/71 72/72/72 73/73/73 
f 72/72/72 73/73/73 73/73/73 
f 73/73/73 73/73/73 66/66/66 
f 73/73/73 66/66/66 66/66/66 
f 66/66/66 66/66/66 74/74/74 
f 66/66/66 68/68/68 74/74/74 
f 74/74/74 68/68/68 70/70/70 
f 68/68/68 70/70/70 70/70/70 
f 70/70/70 70/70/70 66/66/66 
f 70/70/70 66/66/66 66/66/66 
f 66/66/66 66/66/66 75/75/75 
f 66/66/66 74/74/74 75/75/75 
f 75/75/75 74/74/74 76/76/76 
f 74/74/74 77/77/77 76/76/76 
f 76/76/76 77/77/77 78/78/78 
f 77/77/77 77/77/77 78/78/78 
f 78/78/78 77/77/77 79/79/79 
f 77/77/77 80/80/80 79/79/79 
f 79/79/79 80/80/80 81/81/81 
f 80/80/80 80/80/80 81/81/81 
f 81/81/81 80/80/80 82/82/82 
f 80/80/80 83/83/83 82/82/82 
f 82/82/82 83/83/83 73/73/73 
f 83/83/83 84/84/84 73/73/73 
f 73/73/73 84/84/84 71/71/71 
f 84/84/84 85/85/85 71/71/71 
f 71/71/71 85/85/85 70/70/70 
f 85/85/85 85/85/85 70/70/70 
f 70/70/70 85/85/85 74/74/74 
f 85/85/85 80/80/80 74/74/74 
f 74/74/74 80/80/80 77/77/77 
f 80/80/80 77/77/77 77/77/77 
f 77/77/77 77/77/77 83/83/83 
f 77/77/77 83/83/83 83/83/83 
f 83/83/83 83/83/83 84/84/84 
f 83/83/83 80/80/80 84/84/84 
f 84/84/84 80/80/80 85/85/85 
f 80/80/80 85/85/85 85/85/85 
f 85/85/85 85/85/85 86/86/86 
f 85/85/85 86/86/86 86/86/86 
f 86/86/86 86/86/86 87/87/87 
f 86/86/86 88/88/88 87/87/87 
f 87/87/87 88/88/88 89/89/89 
f 88/88/88 90/90/90 89/89/89 
f 89/89/89 90/90/90 91/91/91 
f 90/90/90 92/92/92 91/91/91 
f 91/91/91 92/92/92 91/91/91 
f 92/92/92 93/93/93 91/91/91 
f 91/91/91 93/93/93 91/91/91 
f 93/93/93 94/94/94 91/91/91 
f 91/91/91 94/94/94 89/89/89 
f 94/94/94 95/95/95 89/89/89 
f 89/89/89 95/95/95 87/87/87 
f 95/95/95 96/96/96 87/87/87 
f 87/87/87 96/96/96 97/97/97 
f 96/96/96 96/96/96 97/97/97 
f 97/97/97 96/96/96 98/98/98 
f 96/96/96 96/96/96 98/98/98 
f 98/98/98 96/96/96 99/99/99 
f 96/96/96 100/100/100 99/99/99 
f 99/99/99 100/100/100 101/101/101 
f 100/100/100 100/100/100 101/101/101 
f 101/101/101 100/100/100 102/102/102 
f 100/100/100 95/95/95 102/102/102 
f 102/102/102 95/95/95 102/102/102 
f 95/95/95 94/94/94 102/102/102 
f 102/102/102 94/94/94 103/103/103 
f 94/94/94 93/93/93 103/103/103 
f 103/103/103 93/93/93 103/103/103 
f 93/93/93 104/104/104 103/103/103 
f 103/103/103 104/104/104 102/102/102 
f 104/104/104 105/105/105 102/102/102 
f 102/102/102 105/105/105 101/101/101 
f 105/105/105 101/101/101 101/101/101 
f 101/101/101 101/101/101 87/87/87 
f 101/101/101 87/87/87 87/87/87 
f 87/87/87 87/87/87 86/86/86 
f 87/87/87 97/97/97 86/86/86 
f 86/86/86 97/97/97 97/97/97 
f 97/97/97 95/95/95 97/97/97 
f 97/97/97 95/95/95 95/95/95 
f 95/95/95 100/100/100 95/95/95 
f 95/95/95 100/100/100 96/96/96 
f 100/100/100 96/96/96 96/96/96 
f 96/96/96 96/96/96 101/101/101 
f 96/96/96 101/101/101 101/101/101 
f 101/101/101 101/101/101 99/99/99 
f 101/101/101 106/106/106 99/99/99 
f 99/99/99 106/106/106 106/106/106 
f 106/106/106 107/107/107 106/106/106 
f 106/106/106 107/107/107 107/107/107 
f 107/107/107 108/108/108 107/107/107 
f 107/107/107 108/108/108 109/109/109 
f 108/108/108 110/110/110 109/109/109 
f 109/109/109 110/110/110 111/111/111 
f 110/110/110 112/112/112 111/111/111 
f 111/111/111 112/112/112 112/112/112 
f 112/112/112 113/113/113 112/112/112 
f 112/112/112 113/113/113 113/113/113 
f 113/113/113 110/110/110 113/113/113 
f 113/113/113 110/110/110 108/108/108 
f 110/110/110 108/108/108 108/108/108 
f 108/108/108 108/108/108 109/109/109 
f 108/108/108 109/109/109 109/109/109 
f 109/109/109 109/109/109 114/114/114 
f 109/109/109 111/111/111 114/114/114 
f 114/114/114 111/111/111 111/111/111 
f 111/111/111 115/115/115 111/111/111 
f 111/111/111 115/115/115 115/115/115 
f 115/115/115 116/116/116 115/115/115 
f 115/115/115 116/116/116 117/117/117 
f 116/116/116 116/116/116 117/117/117 
f 117/117/117 116/116/116 118/118/118 
f 116/116/116 119/119/119 118/118/118 
f 118/118/118 119/119/119 118/118/118 
f 119/119/119 120/120/120 118/118/118 
f 118/118/118 120/120/120 121/121/121 
f 120/120/120 122/122/122 121/121/121 
f 121/121/121 122/122/122 123/123/123 
f 122/122/122 122/122/122 123/123/123 
f 123/123/123 122/122/122 124/124/124 
f 122/122/122 125/125/125 124/124/124 
f 124/124/124 125/125/125 126/126/126 
f 125/125/125 127/127/127 126/126/126 
f 126/126/126 127/127/127 126/126/126 
f 127/127/127 128/128/128 126/126/126 
f 126/126/126 128/128/128 126/126/126 
f 128/128/128 129/129/129 126/126/126 
f 126/126/126 129/129/129 126/126/126 
f 129/129/129 130/130/130 126/126/126 
f 126/126/126 130/130/130 124/124/124 
f 130/130/130 124/124/124 124/124/124 
f 124/124/124 124/124/124 127/127/127 
f 124/124/124 127/127/127 127/127/127 
f 127/127/127 127/127/127 131/131/131 
f 127/127/127 125/125/125 131/131/131 
f 131/131/131 125/125/125 131/131/131 
f 125/125/125 122/122/122 131/131/131 
f 131/131/131 122/122/122 131/131/131 
f 122/122/122 120/120/120 131/131/131 
f 131/131/131 120/120/120 132/132/132 
f 120/120/120 119/119/119 132/132/132 
f 132/132/132 119/119/119 133/133/133 
f 119/119/119 116/116/116 133/133/133 
f 133/133/133 116/116/116 134/134/134 
f 116/116/116 115/115/115 134/134/134 
f 134/134/134 115/115/115 135/135/135 
f 115/115/115 136/136/136 135/135/135 
f 135/135/135 136/136/136 135/135/135 
f 136/136/136 137/137/137 135/135/135 
f 135/135/135 137/137/137 134/134/134 
f 137/137/137 137/137/137 134/134/134 
f 134/134/134 137/137/137 133/133/133 
f 137/137/137 137/137/137 133/133/133 
f 133/133/133 137/137/137 132/132/132 
f 137/137/137 138/138/138 132/132/132 
f 132/132/132 138/138/138 131/131/131 
f 138/138/138 139/139/139 131/131/131 
f 131/131/131 139/139/139 140/140/140 
f 139/139/139 141/141/141 140/140/140 
f 140/140/140 141/141/141 142/142/142 
f 141/141/141 142/142/142 142/142/142 
f 142/142/142 142/142/142 136/136/136 
f 142/142/142 136/136/136 136/136/136 
f 136/136/136 136/136/136 137/137/137 
f 136/136/136 143/143/143 137/137/137 
f 137/137/137 143/143/143 137/137/137 
f 143/143/143 144/144/144 137/137/137 
f 137/137/137 144/144/144 138/138/138 
f 144/144/144 141/141/141 138/138/138 
f 138/138/138 141/141/141 139/139/139 
f 141/141/141 139/139/139 139/139/139 
f 139/139/139 139/139/139 131/131/131 
f 139/139/139 131/131/131 131/131/131 
f 131/131/131 131/131/131 127/127/127 
f 131/131/131 140/140/140 127/127/127 
f 127/127/127 140/140/140 128/128/128 
f 140/140/140 145/145/145 128/128/128 
f 128/128/128 145/145/145 129/129/129 
f 145/145/145 145/145/145 129/129/129 
f 129/129/129 145/145/145 146/146/146 
f 145/145/145 140/140/140 146/146/146 
f 146/146/146 140/140/140 142/142/142 
f 140/140/140 142/142/142 142/142/142 
f 142/142/142 142/142/142 147/147/147 
f 142/142/142 147/147/147 147/147/147 
f 147/147/147 147/147/147 148/148/148 
f 147/147/147 149/149/149 148/148/148 
f 148/148/148 149/149/149 150/150/150 
f 149/149/149 150/150/150 150/150/150 
f 150/150/150 150/150/150 147/147/147 
f 150/150/150 147/147/147 147/147/147 
f 147/147/147 147/147/147 151/151/151 
f 147/147/147 148/148/148 151/151/151 
f 151/151/151 148/148/148 151/151/151 
f 148/148/148 152/152/152 151/151/151 
f 151/151/151 152/152/152 151/151/151 
f 152/152/152 153/153/153 151/151/151 
f 151/151/151 153/153/153 154/154/154 
f 153/153/153 155/155/155 154/154/154 
f 154/154/154 155/155/155 156/156/156 
f 155/155/155 155/155/155 156/156/156 
f 156/156/156 155/155/155 157/157/157 
f 155/155/155 158/158/158 157/157/157 
f 157/157/157 158/158/158 159/159/159 
f 158/158/158 160/160/160 159/159/159 
f 159/159/159 160/160/160 161/161/161 
f 160/160/160 162/162/162 161/161/161 
f 161/161/161 162/162/162 163/163/163 
f 162/162/162 164/164/164 163/163/163 
f 163/163/163 164/164/164 164/164/164 
f 164/164/164 158/158/158 164/164/164 
f 164/164/164 158/158/158 158/158/158 
f 158/158/158 155/155/155 158/158/158 
f 158/158/158 155/155/155 160/160/160 
f 155/155/155 165/165/165 160/160/160 
f 160/160/160 165/165/165 162/162/162 
f 165/165/165 166/166/166 162/162/162 
f 162/162/162 166/166/166 164/164/164 
f 166/166/166 167/167/167 164/164/164 
f 164/164/164 167/167/167 168/168/168 
f 167/167/167 168/168/168 168/168/168 
f 168/168/168 168/168/168 159/159/159 
f 168/168/168 159/159/159 159/159/159 
f 159/159/159 159/159/159 169/169/169 
f 159/159/159 161/161/161 169/169/169 
f 169/169/169 161/161/161 163/163/163 
f 161/161/161 163/163/163 163/163/163 
f 163/163/163 163/163/163 155/155/155 
f 163/163/163 155/155/155 155/155/155 
f 155/155/155 155/155/155 165/165/165 
f 155/155/155 153/153/153 165/165/165 
f 165/165/165 153/153/153 170/170/170 
f 153/153/153 171/171/171 170/170/170 
f 170/170/170 171/171/171 166/166/166 
f 171/171/171 171/171/171 166/166/166 
f 166/166/166 171/171/171 167/167/167 
f 171/171/171 172/172/172 167/167/167 
f 167/167/167 172/172/172 167/167/167 
f 172/172/172 173/173/173 167/167/167 
f 167/167/167 173/173/173 168/168/168 
f 173/173/173 173/173/173 168/168/168 
f 168/168/168 173/173/173 174/174/174 
f 173/173/173 175/175/175 174/174/174 
f 174/174/174 175/175/175 176/176/176 
f 175/175/175 175/175/175 176/176/176 
f 176/176/176 175/175/175 177/177/177 
f 175/175/175 175/175/175 177/177/177 
f 177/177/177 175/175/175 178/178/178 
f 175/175/175 173/173/173 178/178/178 
f 178/178/178 173/173/173 178/178/178 
f 173/173/173 172/172/172 178/178/178 
f 178/178/178 172/172/172 148/148/148 
f 172/172/172 172/172/172 148/148/148 
f 148/148/148 172/172/172 152/152/152 
f 172/172/172 171/171/171 152/152/152 
f 152/152/152 171/171/171 153/153/153 
f 171/171/171 153/153/153 153/153/153 
f 153/153/153 153/153/153 166/166/166 
f 153/153/153 166/166/166 166/166/166 
f 166/166/166 166/166/166 170/170/170 
f 166/166/166 165/165/165 170/170/170 
f 170/170/170 165/165/165 165/165/165 
f 165/165/165 148/148/148 165/165/165 
f 165/165/165 148/148/148 148/148/148 
f 148/148/148 150/150/150 148/148/148 
f 148/148/148 150/150/150 178/178/178 
f 150/150/150 150/150/150 178/178/178 
f 178/178/178 150/150/150 177/177/177 
f 150/150/150 149/149/149 177/177/177 
f 177/177/177 149/149/149 149/149/149 
f 149/149/149 179/179/179 149/149/149 
f 149/149/149 179/179/179 179/179/179 
f 179/179/179 180/180/180 179/179/179 
f 179/179/179 180/180/180 181/181/181 
f 180/180/180 180/180/180 181/181/181 
f 181/181/181 180/180/180 182/182/182 
f 180/180/180 183/183/183 182/182/182 
f 182/182/182 183/183/183 184/184/184 
f 183/183/183 185/185/185 184/184/184 
f 184/184/184 185/185/185 186/186/186 
f 185/185/185 186/186/186 186/186/186 
f 186/186/186 186/186/186 187/187/187 
f 186/186/186 187/187/187 187/187/187 
f 187/187/187 187/187/187 188/188/188 
f 187/187/187 189/189/189 188/188/188 
f 188/188/188 189/189/189 190/190/190 
f 189/189/189 189/189/189 190/190/190 
f 190/190/190 189/189/189 191/191/191 
f 189/189/189 192/192/192 191/191/191 
f 191/191/191 192/192/192 193/193/193 
f 192/192/192 194/194/194 193/193/193 
f 193/193/193 194/194/194 194/194/194 
f 194/194/194 195/195/195 194/194/194 
f 194/194/194 195/195/195 195/195/195 
f 195/195/195 196/196/196 195/195/195 
f 195/195/195 196/196/196 197/197/197 
f 196/196/196 196/196/196 197/197/197 
f 197/197/197 196/196/196 198/198/198 
f 196/196/196 196/196/196 198/198/198 
f 198/198/198 196/196/196 199/199/199 
f 196/196/196 200/200/200 199/199/199 
f 199/199/199 200/200/200 201/201/201 
f 200/200/200 202/202/202 201/201/201 
f 201/201/201 202/202/202 202/202/202 
f 202/202/202 203/203/203 202/202/202 
f 202/202/202 203/203/203 203/203/203 
f 203/203/203 204/204/204 203/203/203 
f 203/203/203 204/204/204 205/205/205 
f 204/204/204 206/206/206 205/205/205 
f 205/205/205 206/206/206 205/205/205 
f 206/206/206 207/207/207 205/205/205 
f 205/205/205 207/207/207 208/208/208 
f 207/207/207 209/209/209 208/208/208 
f 208/208/208 209/209/209 210/210/210 
f 209/209/209 210/210/210 210/210/210 
f 210/210/210 210/210/210 211/211/211 
f 210/210/210 211/211/211 211/211/211 
f 211/211/211 211/211/211 212/212/212 
f 211/211/211 213/213/213 212/212/212 
f 212/212/212 213/213/213 214/214/214 
f 213/213/213 213/213/213 214/214/214 
f 214/214/214 213/213/213 215/215/215 
f 213/213/213 216/216/216 215/215/215 
f 215/215/215 216/216/216 217/217/217 
f 216/216/216 218/218/218 217/217/217 
f 217/217/217 218/218/218 218/218/218 
f 218/218/218 219/219/219 218/218/218 
f 218/218/218 219/219/219 219/219/219 
f 219/219/219 220/220/220 219/219/219 
f 219/219/219 220/220/220 221/221/221 
f 220/220/220 222/222/222 221/221/221 
f 221/221/221 222/222/222 221/221/221 
f 222/222/222 223/223/223 221/221/221 
f 221/221/221 223/223/223 224/224/224 
f 223/223/223 225/225/225 224/224/224 
f 224/224/224 225/225/225 226/226/226 
f 225/225/225 226/226/226 226/226/226 
f 226/226/226 226/226/226 227/227/227 
f 226/226/226 227/227/227 227/227/227 
f 227/227/227 227/227/227 228/228/228 
f 227/227/227 229/229/229 228/228/228 
f 228/228/228 229/229/229 230/230/230 
f 229/229/229 229/229/229 230/230/230 
f 230/230/230 229/229/229 231/231/231 
f 229/229/229 232/232/232 231/231/231 
f 231/231/231 232/232/232 233/233/233 
f 232/232/232 234/234/234 233/233/233 
f 233/233/233 234/234/234 234/234/234 
f 234/234/234 235/235/235 234/234/234 
f 234/234/234 235/235/235 235/235/235 
f 235/235/235 236/236/236 235/235/235 
f 235/235/235 236/236/236 237/237/237 
f 236/236/236 236/236/236 237/237/237 
f 237/237/237 236/236/236 238/238/238 
f 236/236/236 236/236/236 238/238/238 
f 238/238/238 236/236/236 239/239/239 
f 236/236/236 240/240/240 239/239/239 
f 239/239/239 240/240/240 241/241/241 
f 240/240/240 242/242/242 241/241/241 
f 241/241/241 242/242/242 242/242/242 
f 242/242/242 243/243/243 242/242/242 
f 242/242/242 243/243/243 243/243/243 
f 243/243/243 244/244/244 243/243/243 
f 243/243/243 244/244/244 245/245/245 
f 244/244/244 244/244/244 245/245/245 
f 245/245/245 244/244/244 246/246/246 
f 244/244/244 247/247/247 246/246/246 
f 246/246/246 247/247/247 248/248/248 
f 247/247/247 249/249/249 248/248/248 
f 248/248/248 249/249/249 250/250/250 
f 249/249/249 250/250/250 250/250/250 
f 250/250/250 250/250/250 251/251/251 
f 250/250/250 251/251/251 251/251/251 
f 251/251/251 251/251/251 252/252/252 
f 251/251/251 253/253/253 252/252/252 
f 252/252/252 253/253/253 252/252/252 
f 253/253/253 254/254/254 252/252/252 
f 252/252/252 254/254/254 252/252/252 
f 254/254/254 255/255/255 252/252/252 
f 252/252/252 255/255/255 256/256/256 
f 255/255/255 257/257/257 256/256/256 
f 256/256/256 257/257/257 258/258/258 
f 257/257/257 258/258/258 258/258/258 
f 258/258/258 258/258/258 259/259/259 
f 258/258/258 259/259/259 259/259/259 
f 259/259/259 259/259/259 260/260/260 
f 259/259/259 261/261/261 260/260/260 
f 260/260/260 261/261/261 262/262/262 
f 261/261/261 261/261/261 262/262/262 
f 262/262/262 261/261/261 263/263/263 
f 261/261/261 264/264/264 263/263/263 
f 263/263/263 264/264/264 265/265/265 
f 264/264/264 266/266/266 265/265/265 
f 265/265/265 266/266/266 266/266/266 
f 266/266/266 267/267/267 266/266/266 
f 266/266/266 267/267/267 267/267/267 
f 267/267/267 268/268/268 267/267/267 
f 267/267/267 268/268/268 269/269/269 
f 268/268/268 268/268/268 269/269/269 
f 269/269/269 268/268/268 270/270/270 
f 268/268/268 268/268/268 270/270/270 
f 270/270/270 268/268/268 271/271/271 
f 268/268/268 272/272/272 271/271/271 
f 271/271/271 272/272/272 273/273/273 
f 272/272/272 274/274/274 273/273/273 
f 273/273/273 274/274/274 274/274/274 
f 274/274/274 275/275/275 274/274/274 
f 274/274/274 275/275/275 275/275/275 
f 275/275/275 276/276/276 275/275/275 
f 275/275/275 276/276/276 277/277/277 
f 276/276/276 276/276/276 277/277/277 
f 277/277/277 276/276/276 278/278/278 
f 276/276/276 276/276/276 278/278/278 
f 278/278/278 276/276/276 279/279/279 
f 276/276/276 280/280/280 279/279/279 
f 279/279/279 280/280/280 279/279/279 
f 280/280/280 281/281/281 279/279/279 
f 279/279/279 281/281/281 282/282/282 
f 281/281/281 282/282/282 282/282/282 
f 282/282/282 282/282/282 283/283/283 
f 282/282/282 283/283/283 283/283/283 
f 283/283/283 283/283/283 284/284/284 
f 283/283/283 285/285/285 284/284/284 
f 284/284/284 285/285/285 284/284/284 
f 285/285/285 286/286/286 284/284/284 
f 284/284/284 286/286/286 284/284/284 
f 286/286/286 287/287/287 284/284/284 
f 284/284/284 287/287/287 288/288/288 
f 287/287/287 289/289/289 288/288/288 
f 288/288/288 289/289/289 290/290/290 
f 289/289/289 290/290/290 290/290/290 
f 290/290/290 290/290/290 291/291/291 
f 290/290/290 291/291/291 291/291/291 
f 291/291/291 291/291/291 292/292/292 
f 291/291/291 293/293/293 292/292/292 
f 292/292/292 293/293/293 294/294/294 
f 293/293/293 293/293/293 294/294/294 
f 294/294/294 293/293/293 295/295/295 
f 293/293/293 296/296/296 295/295/295 
f 295/295/295 296/296/296 297/297/297 
f 296/296/296 298/298/298 297/297/297 
f 297/297/297 298/298/298 298/298/298 
f 298/298/298 299/299/299 298/298/298 
f 298/298/298 299/299/299 299/299/299 
f 299/299/299 300/300/300 299/299/299 
f 299/299/299 300/300/300 301/301/301 
f 300/300/300 302/302/302 301/301/301 
f 301/301/301 302/302/302 301/301/301 
f 302/302/302 303/303/303 301/301/301 
f 301/301/301 303/303/303 304/304/304 
f 303/303/303 305/305/305 304/304/304 
f 304/304/304 305/305/305 306/306/306 
f 305/305/305 306/306/306 306/306/306 
f 306/306/306 306/306/306 307/307/307 
f 306/306/306 307/307/307 307/307/307 
f 307/307/307 307/307/307 308/308/308 
f 307/307/307 309/309/309 308/308/308 
f 308/308/308 309/309/309 308/308/308 
f 309/309/309 310/310/310 308/308/308 
f 308/308/308 310/310/310 308/308/308 
f 310/310/310 311/311/311 308/308/308 
f 308/308/308 311/311/311 312/312/312 
f 311/311/311 313/313/313 312/312/312 
f 312/312/312 313/313/313 314/314/314 
f 313/313/313 314/314/314 314/314/314 
f 314/314/314 314/314/314 315/315/315 
f 314/314/314 315/315/315 315/315/315 
f 315/315/315 315/315/315 316/316/316 
f 315/315/315 317/317/317 316/316/316 
f 316/316/316 317/317/317 318/318/318 
f 317/317/317 317/317/317 318/318/318 
f 318/318/318 317/317/317 319/319/319 
f 317/317/317 320/320/320 319/319/319 
f 319/319/319 320/320/320 319/319/319 
f 320/320/320 321/321/321 319/319/319 
f 319/319/319 321/321/321 322/322/322 
f 321/321/321 322/322/322 322/322/322 
f 322/322/322 322/322/322 323/323/323 
f 322/322/322 323/323/323 323/323/323 
f 323/323/323 323/323/323 324/324/324 
f 323/323/323 325/325/325 324/324/324 
f 324/324/324 325/325/325 326/326/326 
f 325/325/325 325/325/325 326/326/326 
f 326/326/326 325/325/325 327/327/327 
f 325/325/325 328/328/328 327/327/327 
f 327/327/327 328/328/328 329/329/329 
f 328/328/328 330/330/330 329/329/329 
f 329/329/329 330/330/330 330/330/330 
f 330/330/330 331/331/331 330/330/330 
f 330/330/330 331/331/331 331/331/331 
f 331/331/331 332/332/332 331/331/331 
f 331/331/331 332/332/332 333/333/333 
f 332/332/332 332/332/332 333/333/333 
f 333/333/333 332/332/332 334/334/334 
f 332/332/332 332/332/332 334/334/334 
f 334/334/334 332/332/332 335/335/335 
f 332/332/332 336/336/336 335/335/335 
f 335/335/335 336/336/336 337/337/337 
f 336/336/336 338/338/338 337/337/337 
f 337/337/337 338/338/338 338/338/338 
f 338/338/338 339/339/339 338/338/338 
f 338/338/338 339/339/339 339/339/339 
f 339/339/339 340/340/340 339/339/339 
f 339/339/339 340/340/340 341/341/341 
f 340/340/340 340/340/340 341/341/341 
f 341/341/341 340/340/340 342/342/342 
f 340/340/340 343/343/343 342/342/342 
f 342/342/342 343/343/343 344/344/344 
f 343/343/343 345/345/345 344/344/344 
f 344/344/344 345/345/345 346/346/346 
f 345/345/345 346/346/346 346/346/346 
f 346/346/346 346/346/346 347/347/347 
f 346/346/346 347/347/347 347/347/347 
f 347/347/347 347/347/347 348/348/348 
f 347/347/347 349/349/349 348/348/348 
f 348/348/348 349/349/349 350/350/350 
f 349/349/349 351/351/351 350/350/350 
f 350/350/350 351/351/351 352/352/352 
f 351/351/351 353/353/353 352/352/352 
f 352/352/352 353/353/353 354/354/354 

