mtllib model_4.mtl
o model_4
v 0.3839148283004761 -0.046480994671583176 0.23098450899124146 
v 0.3629676103591919 -0.046480994671583176 0.20105990767478943 
v 0.3599751591682434 -0.02610357291996479 0.2040523737668991 
v 0.3315467834472656 -0.046480994671583176 0.1816089153289795 
v 0.3300505578517914 -0.02610357291996479 0.18460138142108917 
v 0.29414102435112 -0.046480994671583176 0.17562399804592133 
v 0.29414102435112 -0.02610357291996479 0.178616464138031 
v 0.258231520652771 -0.046480994671583176 0.18460138142108917 
v 0.25972774624824524 -0.02610357291996479 0.18759383261203766 
v 0.22830690443515778 -0.046480994671583176 0.20554859936237335 
v 0.23129937052726746 -0.02610357291996479 0.20854106545448303 
v 0.20885592699050903 -0.046480994671583176 0.23696942627429962 
v 0.21184837818145752 -0.02610357291996479 0.23846566677093506 
v 0.20586346089839935 -0.02610357291996479 0.27437517046928406 
v 0.20287099480628967 -0.046480994671583176 0.27437517046928406 
v 0.2148408442735672 -0.02610357291996479 0.3087884783744812 
v 0.21184837818145752 -0.046480994671583176 0.31028470396995544 
v 0.2327955961227417 -0.046480994671583176 0.34020930528640747 
v 0.23578806221485138 -0.02610357291996479 0.337216854095459 
v 0.26421642303466797 -0.046480994671583176 0.3596602976322174 
v 0.2657126486301422 -0.02610357291996479 0.35666781663894653 
v 0.3016221821308136 -0.046480994671583176 0.3656452000141144 
v 0.3016221821308136 -0.02610357291996479 0.3626527488231659 
v 0.33603546023368835 -0.02610357291996479 0.35367536544799805 
v 0.3165844678878784 -0.01411685161292553 0.3521791398525238 
v 0.2537428140640259 -0.01411685161292553 0.3417055308818817 
v 0.3150882422924042 -0.008722827769815922 0.3417055308818817 
v 0.25972774624824524 -0.008722827769815922 0.33272814750671387 
v 0.21633706986904144 -0.01411685161292553 0.28933748602867126 
v 0.22681067883968353 -0.01411685161292553 0.22649581730365753 
v 0.2791787385940552 -0.01411685161292553 0.1890900731086731 
v 0.3420203924179077 -0.01411685161292553 0.19956368207931519 
v 0.3809223771095276 -0.02610357291996479 0.2324807345867157 
v 0.38989976048469543 -0.02610357291996479 0.26689404249191284 
v 0.3928922116756439 -0.046480994671583176 0.26689404249191284 
v 0.3839148283004761 -0.02610357291996479 0.30280354619026184 
v 0.38690727949142456 -0.046480994671583176 0.3042997717857361 
v 0.36446383595466614 -0.02610357291996479 0.33272814750671387 
v 0.3674562871456146 -0.046480994671583176 0.33572059869766235 
v 0.3375316858291626 -0.046480994671583176 0.35666781663894653 
v 0.36895254254341125 -0.01411685161292553 0.3147733807563782 
v 0.37942615151405334 -0.01411685161292553 0.25193172693252563 
v 0.33603546023368835 -0.008722827769815922 0.20854106545448303 
v 0.36895254254341125 -0.008722827769815922 0.2534279525279999 
v 0.2806749641895294 -0.008722827769815922 0.19956368207931519 
v 0.23578806221485138 -0.008722827769815922 0.2324807345867157 
v 0.22681067883968353 -0.008722827769815922 0.287841260433197 
v 0.3599751591682434 -0.008722827769815922 0.3087884783744812 
v 0.3839148283004761 -0.046480994671583176 0.23098450899124146 
v 0.3599751591682434 -0.06745775789022446 0.2040523737668991 
v 0.3629676103591919 -0.046480994671583176 0.20105990767478943 
v 0.3315467834472656 -0.046480994671583176 0.1816089153289795 
v 0.3300505578517914 -0.06745775789022446 0.18460138142108917 
v 0.29414102435112 -0.046480994671583176 0.17562399804592133 
v 0.29414102435112 -0.06745775789022446 0.178616464138031 
v 0.258231520652771 -0.046480994671583176 0.18460138142108917 
v 0.25972774624824524 -0.06745775789022446 0.18759383261203766 
v 0.22830690443515778 -0.046480994671583176 0.20554859936237335 
v 0.23129937052726746 -0.06745775789022446 0.20854106545448303 
v 0.20885592699050903 -0.046480994671583176 0.23696942627429962 
v 0.21184837818145752 -0.06745775789022446 0.23846566677093506 
v 0.20586346089839935 -0.06745775789022446 0.27437517046928406 
v 0.20287099480628967 -0.046480994671583176 0.27437517046928406 
v 0.2148408442735672 -0.06745775789022446 0.3087884783744812 
v 0.21184837818145752 -0.046480994671583176 0.31028470396995544 
v 0.2327955961227417 -0.046480994671583176 0.34020930528640747 
v 0.23578806221485138 -0.06745775789022446 0.337216854095459 
v 0.26421642303466797 -0.046480994671583176 0.3596602976322174 
v 0.2657126486301422 -0.06745775789022446 0.35666781663894653 
v 0.3016221821308136 -0.046480994671583176 0.3656452000141144 
v 0.3016221821308136 -0.06745775789022446 0.3626527488231659 
v 0.33603546023368835 -0.06745775789022446 0.35367536544799805 
v 0.3165844678878784 -0.07944447547197342 0.3521791398525238 
v 0.2537428140640259 -0.07944447547197342 0.3417055308818817 
v 0.3150882422924042 -0.08483850210905075 0.3417055308818817 
v 0.25972774624824524 -0.08483850210905075 0.33272814750671387 
v 0.21633706986904144 -0.07944447547197342 0.28933748602867126 
v 0.22681067883968353 -0.07944447547197342 0.22649581730365753 
v 0.2791787385940552 -0.07944447547197342 0.1890900731086731 
v 0.3420203924179077 -0.07944447547197342 0.19956368207931519 
v 0.3809223771095276 -0.06745775789022446 0.2324807345867157 
v 0.38989976048469543 -0.06745775789022446 0.26689404249191284 
v 0.3928922116756439 -0.046480994671583176 0.26689404249191284 
v 0.3839148283004761 -0.06745775789022446 0.30280354619026184 
v 0.38690727949142456 -0.046480994671583176 0.3042997717857361 
v 0.36446383595466614 -0.06745775789022446 0.33272814750671387 
v 0.3674562871456146 -0.046480994671583176 0.33572059869766235 
v 0.3375316858291626 -0.046480994671583176 0.35666781663894653 
v 0.36895254254341125 -0.07944447547197342 0.3147733807563782 
v 0.37942615151405334 -0.07944447547197342 0.25193172693252563 
v 0.33603546023368835 -0.08483850210905075 0.20854106545448303 
v 0.36895254254341125 -0.08483850210905075 0.2534279525279999 
v 0.2806749641895294 -0.08483850210905075 0.19956368207931519 
v 0.3599751591682434 -0.08483850210905075 0.3087884783744812 
v 0.22681067883968353 -0.08483850210905075 0.287841260433197 
v 0.23578806221485138 -0.08483850210905075 0.2324807345867157 
vn 0.9106194972991943 0 -0.41324591636657715 
vn 0.6827613711357117 0 -0.7306414246559143 
vn 0.6345174908638 0.4404487609863281 -0.6351318359375 
vn 0.3506734371185303 0 -0.9364978075027466 
vn 0.28413549065589905 0.43926453590393066 -0.8522403836250305 
vn -0.03474314883351326 0.0037785451859235764 -0.999389111995697 
vn 0.0018889878410845995 0.4389342665672302 -0.8985171914100647 
vn -0.41125550866127014 -8.505713765694783e-14 -0.9115201234817505 
vn -0.4012913405895233 0.44003060460090637 -0.8033295273780823 
vn -0.7291480898857117 -1.5080466172698315e-13 -0.6843559741973877 
vn -0.6345174908638 0.4404487609863281 -0.6351318359375 
vn -0.935729444026947 -1.935304672594229e-13 -0.3527185618877411 
vn -0.8511576056480408 0.43983227014541626 -0.2864931523799896 
vn -0.8990859389305115 0.4377666711807251 -0.002184694167226553 
vn -0.9994630813598633 -2.0671206174723011e-13 0.03276457265019417 
vn -0.8046143651008606 0.4376924932003021 0.401274174451828 
vn -0.9106194972991943 -1.883371524057445e-13 0.41324591636657715 
vn -0.682750940322876 0.0037696787621825933 0.7306414246559143 
vn -0.6353463530540466 0.4392522871494293 0.6351318359375 
vn -0.3506532907485962 0.003759904531762004 0.9364978075027466 
vn -0.2851388454437256 0.4386138916015625 0.8522403836250305 
vn 0.034948017448186874 0 0.999389111995697 
vn -0.003767618676647544 0.43892213702201843 0.8985171914100647 
vn 0.3999803066253662 0.4412226676940918 0.8033295273780823 
vn 0.1515912562608719 0.7488222122192383 0.6452018022537231 
vn -0.35231226682662964 0.7458667159080505 0.5652954578399658 
vn 0.07541387528181076 0.9486021995544434 0.30735430121421814 
vn -0.16886402666568756 0.9480211138725281 0.26970529556274414 
vn -0.6458772420883179 0.7485255002975464 0.15017375349998474 
vn -0.5630527138710022 0.7492870688438416 -0.34862664341926575 
vn -0.1520623117685318 0.7487267255783081 -0.6452018022537231 
vn 0.3476616442203522 0.7480457425117493 -0.5652954578399658 
vn 0.8025144934654236 0.44153082370758057 -0.401274174451828 
vn 0.8990859389305115 0.4377666711807251 0.002184694167226553 
vn 0.9994630813598633 0 -0.03276457265019417 
vn 0.8496841788291931 0.4426719546318054 0.2864931523799896 
vn 0.935729444026947 0 0.3527185618877411 
vn 0.6353463530540466 0.4392522871494293 0.6351318359375 
vn 0.7291480898857117 0 0.6843559741973877 
vn 0.41125550866127014 0 0.9115201234817505 
vn 0.5630527138710022 0.7492870688438416 0.34862664341926575 
vn 0.6487298011779785 0.7460545897483826 -0.15017375349998474 
vn 0.16721327602863312 0.9483136534690857 -0.26970529556274414 
vn 0.3082142472267151 0.9485859274864197 -0.07203252613544464 
vn -0.07541387528181076 0.9486021995544434 -0.30735430121421814 
vn -0.26851752400398254 0.9486125707626343 -0.16742929816246033 
vn -0.3082142472267151 0.9485859274864197 0.07203252613544464 
vn 0.2700134217739105 0.9481878280639648 0.16742929816246033 
vn 0.9106194972991943 0 -0.41324591636657715 
vn 0.6345174908638 -0.4404487609863281 -0.6351318359375 
vn 0.6827613711357117 0 -0.7306414246559143 
vn 0.3506734371185303 0 -0.9364978075027466 
vn 0.28413549065589905 -0.43926453590393066 -0.8522403836250305 
vn -0.03474314883351326 0.0037785451859235764 -0.999389111995697 
vn 0.0018889878410845995 -0.4389342665672302 -0.8985171914100647 
vn -0.41125550866127014 -8.505713765694783e-14 -0.9115201234817505 
vn -0.4012913405895233 -0.44003060460090637 -0.8033295273780823 
vn -0.7291480898857117 -1.5080466172698315e-13 -0.6843559741973877 
vn -0.6345174908638 -0.4404487609863281 -0.6351318359375 
vn -0.935729444026947 -1.935304672594229e-13 -0.3527185618877411 
vn -0.8511576056480408 -0.43983227014541626 -0.2864931523799896 
vn -0.8990859389305115 -0.4377666711807251 -0.002184694167226553 
vn -0.9994630813598633 -2.0671206174723011e-13 0.03276457265019417 
vn -0.8046143651008606 -0.4376924932003021 0.401274174451828 
vn -0.9106194972991943 -1.883371524057445e-13 0.41324591636657715 
vn -0.682750940322876 0.0037696787621825933 0.7306414246559143 
vn -0.6353463530540466 -0.4392522871494293 0.6351318359375 
vn -0.3506532907485962 0.003759904531762004 0.9364978075027466 
vn -0.2851388454437256 -0.4386138916015625 0.8522403836250305 
vn 0.034948017448186874 0 0.999389111995697 
vn -0.003767618676647544 -0.43892213702201843 0.8985171914100647 
vn 0.3999803066253662 -0.4412226676940918 0.8033295273780823 
vn 0.1515912562608719 -0.7488222122192383 0.6452018022537231 
vn -0.35231226682662964 -0.7458667159080505 0.5652954578399658 
vn 0.07541387528181076 -0.9486021995544434 0.30735430121421814 
vn -0.16886402666568756 -0.9480211138725281 0.26970529556274414 
vn -0.6458772420883179 -0.7485255002975464 0.15017375349998474 
vn -0.5630527138710022 -0.7492870688438416 -0.34862664341926575 
vn -0.1520623117685318 -0.7487267255783081 -0.6452018022537231 
vn 0.3476616442203522 -0.7480457425117493 -0.5652954578399658 
vn 0.8025144934654236 -0.44153082370758057 -0.401274174451828 
vn 0.8990859389305115 -0.4377666711807251 0.002184694167226553 
vn 0.9994630813598633 0 -0.03276457265019417 
vn 0.8496841788291931 -0.4426719546318054 0.2864931523799896 
vn 0.935729444026947 0 0.3527185618877411 
vn 0.6353463530540466 -0.4392522871494293 0.6351318359375 
vn 0.7291480898857117 0 0.6843559741973877 
vn 0.41125550866127014 0 0.9115201234817505 
vn 0.5630527138710022 -0.7492870688438416 0.34862664341926575 
vn 0.6487298011779785 -0.7460545897483826 -0.15017375349998474 
vn 0.16721327602863312 -0.9483136534690857 -0.26970529556274414 
vn 0.3082142472267151 -0.9485859274864197 -0.07203252613544464 
vn -0.07541387528181076 -0.9486021995544434 -0.30735430121421814 
vn 0.2700134217739105 -0.9481878280639648 0.16742929816246033 
vn -0.3082142472267151 -0.9485859274864197 0.07203252613544464 
vn -0.26851752400398254 -0.9486125707626343 -0.16742929816246033 
vt 0.996090292930603 0.7991641163825989 
vt 0.9957268834114075 0.7081315517425537 
vt 0.9274089932441711 0.718942403793335 
vt 0.9677456021308899 0.6217672824859619 
vt 0.9045152068138123 0.6561655402183533 
vt 0.9086337089538574 0.549100935459137 
vt 0.861392617225647 0.6057352423667908 
vt 0.8238419890403748 0.5034617781639099 
vt 0.8008270859718323 0.5758824348449707 
vt 0.7262104153633118 0.4929580092430115 
vt 0.7331148982048035 0.5700470209121704 
vt 0.6294267177581787 0.5223193764686584 
vt 0.6675829887390137 0.5924673080444336 
vt 0.6170713901519775 0.6402563452720642 
vt 0.549359142780304 0.5900717377662659 
vt 0.5861829519271851 0.703156054019928 
vt 0.5095070600509644 0.6857726573944092 
vt 0.5075689554214478 0.7833777666091919 
vt 0.5807320475578308 0.7725668549537659 
vt 0.5373671650886536 0.8769288063049316 
vt 0.6054428219795227 0.8381078839302063 
vt 0.6047160029411316 0.9562291502952576 
vt 0.653774082660675 0.8877397179603577 
vt 0.7171255946159363 0.9172239303588867 
vt 0.7002883553504944 0.8695577383041382 
vt 0.6282154321670532 0.7925915718078613 
vt 0.7132493853569031 0.8428990840911865 
vt 0.6569234728813171 0.7830706238746643 
vt 0.6347565054893494 0.6873083114624023 
vt 0.7125226259231567 0.6160547137260437 
vt 0.8157262206077576 0.6228729486465454 
vt 0.8828327655792236 0.6991633772850037 
vt 0.9252286553382874 0.7854048013687134 
vt 0.8977319002151489 0.8468303084373474 
vt 0.9607200026512146 0.8871254324913025 
vt 0.8500062823295593 0.8946807980537415 
vt 0.8937345743179321 0.9569048285484314 
vt 0.786170244216919 0.9201723337173462 
vt 0.8025229573249817 0.996094286441803 
vt 0.7013785243034363 0.996094286441803 
vt 0.8047032952308655 0.8732432723045349 
vt 0.8789566159248352 0.8013139963150024 
vt 0.8552148938179016 0.7089300751686096 
vt 0.8526711463928223 0.788967490196228 
vt 0.8030074834823608 0.6485487818717957 
vt 0.7218496799468994 0.6442490220069885 
vt 0.6614053249359131 0.7006990313529968 
vt 0.7947705388069153 0.8454789519309998 
vt 0.4734100103378296 0.6263127326965332 
vt 0.4306507706642151 0.7228122353553772 
vt 0.4992108941078186 0.7136598229408264 
vt 0.49690940976142883 0.8042010068893433 
vt 0.4266534447669983 0.7893360257148743 
vt 0.46093350648880005 0.890196681022644 
vt 0.3998834788799286 0.8498401641845703 
vt 0.393584668636322 0.9573962092399597 
vt 0.3510676920413971 0.8958478569984436 
vt 0.3054012954235077 0.9951728582382202 
vt 0.28904861211776733 0.9215236902236938 
vt 0.20752745866775513 0.996094286441803 
vt 0.22097299993038177 0.92084801197052 
vt 0.15859054028987885 0.8929608464241028 
vt 0.11607355624437332 0.9585632681846619 
vt 0.10916908830404282 0.8431447744369507 
vt 0.04387947916984558 0.8882924914360046 
vt 0.00390625 0.7928372621536255 
vt 0.08482176065444946 0.7770509123802185 
vt 0.00390625 0.6849126815795898 
vt 0.08785003423690796 0.7059816122055054 
vt 0.055265795439481735 0.5908088088035583 
vt 0.11873843520879745 0.6427748203277588 
vt 0.1719149500131607 0.5959071516990662 
vt 0.16985571384429932 0.6466445922851562 
vt 0.1232202872633934 0.7425298094749451 
vt 0.18972119688987732 0.6688191890716553 
vt 0.15386642515659332 0.7440040111541748 
vt 0.16040749847888947 0.8424690961837769 
vt 0.2556164562702179 0.8847298622131348 
vt 0.3510676920413971 0.8468303084373474 
vt 0.3938269317150116 0.7545077800750732 
vt 0.4096950888633728 0.6599739193916321 
vt 0.36548227071762085 0.6094821691513062 
vt 0.4136924147605896 0.552356481552124 
vt 0.30552244186401367 0.5780937671661377 
vt 0.32865846157073975 0.5056116580963135 
vt 0.23696228861808777 0.5728111267089844 
vt 0.23005782067775726 0.49578356742858887 
vt 0.13448546826839447 0.5258820652961731 
vt 0.2686986029148102 0.6120006442070007 
vt 0.3611215651035309 0.6582540273666382 
vt 0.3651188910007477 0.7524192929267883 
vt 0.3389545977115631 0.6776030659675598 
vt 0.33156561851501465 0.8253927826881409 
vt 0.2674873173236847 0.6414848566055298 
vt 0.1819688230752945 0.8215230107307434 
vt 0.2563432455062866 0.8556755781173706 
s on 
f 1/1/1 2/2/2 3/3/3 
f 2/2/2 4/4/4 3/3/3 
f 3/3/3 4/4/4 5/5/5 
f 4/4/4 6/6/6 5/5/5 
f 5/5/5 6/6/6 7/7/7 
f 6/6/6 8/8/8 7/7/7 
f 7/7/7 8/8/8 9/9/9 
f 8/8/8 10/10/10 9/9/9 
f 9/9/9 10/10/10 11/11/11 
f 10/10/10 12/12/12 11/11/11 
f 11/11/11 12/12/12 13/13/13 
f 12/12/12 12/12/12 13/13/13 
f 13/13/13 12/12/12 14/14/14 
f 12/12/12 15/15/15 14/14/14 
f 14/14/14 15/15/15 16/16/16 
f 15/15/15 17/17/17 16/16/16 
f 16/16/16 17/17/17 16/16/16 
f 17/17/17 18/18/18 16/16/16 
f 16/16/16 18/18/18 19/19/19 
f 18/18/18 20/20/20 19/19/19 
f 19/19/19 20/20/20 21/21/21 
f 20/20/20 22/22/22 21/21/21 
f 21/21/21 22/22/22 23/23/23 
f 22/22/22 24/24/24 23/23/23 
f 23/23/23 24/24/24 23/23/23 
f 24/24/24 25/25/25 23/23/23 
f 23/23/23 25/25/25 26/26/26 
f 25/25/25 27/27/27 26/26/26 
f 26/26/26 27/27/27 26/26/26 
f 27/27/27 28/28/28 26/26/26 
f 26/26/26 28/28/28 26/26/26 
f 28/28/28 29/29/29 26/26/26 
f 26/26/26 29/29/29 16/16/16 
f 29/29/29 29/29/29 16/16/16 
f 16/16/16 29/29/29 14/14/14 
f 29/29/29 29/29/29 14/14/14 
f 14/14/14 29/29/29 13/13/13 
f 29/29/29 30/30/30 13/13/13 
f 13/13/13 30/30/30 11/11/11 
f 30/30/30 30/30/30 11/11/11 
f 11/11/11 30/30/30 9/9/9 
f 30/30/30 31/31/31 9/9/9 
f 9/9/9 31/31/31 7/7/7 
f 31/31/31 31/31/31 7/7/7 
f 7/7/7 31/31/31 5/5/5 
f 31/31/31 32/32/32 5/5/5 
f 5/5/5 32/32/32 3/3/3 
f 32/32/32 33/33/33 3/3/3 
f 3/3/3 33/33/33 1/1/1 
f 33/33/33 34/34/34 1/1/1 
f 1/1/1 34/34/34 35/35/35 
f 34/34/34 36/36/36 35/35/35 
f 35/35/35 36/36/36 37/37/37 
f 36/36/36 38/38/38 37/37/37 
f 37/37/37 38/38/38 39/39/39 
f 38/38/38 38/38/38 39/39/39 
f 39/39/39 38/38/38 40/40/40 
f 38/38/38 24/24/24 40/40/40 
f 40/40/40 24/24/24 22/22/22 
f 24/24/24 22/22/22 22/22/22 
f 22/22/22 22/22/22 16/16/16 
f 22/22/22 16/16/16 16/16/16 
f 16/16/16 16/16/16 26/26/26 
f 16/16/16 19/19/19 26/26/26 
f 26/26/26 19/19/19 26/26/26 
f 19/19/19 21/21/21 26/26/26 
f 26/26/26 21/21/21 23/23/23 
f 21/21/21 23/23/23 23/23/23 
f 23/23/23 23/23/23 24/24/24 
f 23/23/23 24/24/24 24/24/24 
f 24/24/24 24/24/24 41/41/41 
f 24/24/24 38/38/38 41/41/41 
f 41/41/41 38/38/38 41/41/41 
f 38/38/38 36/36/36 41/41/41 
f 41/41/41 36/36/36 42/42/42 
f 36/36/36 34/34/34 42/42/42 
f 42/42/42 34/34/34 42/42/42 
f 34/34/34 33/33/33 42/42/42 
f 42/42/42 33/33/33 42/42/42 
f 33/33/33 32/32/32 42/42/42 
f 42/42/42 32/32/32 42/42/42 
f 32/32/32 43/43/43 42/42/42 
f 42/42/42 43/43/43 44/44/44 
f 43/43/43 43/43/43 44/44/44 
f 44/44/44 43/43/43 45/45/45 
f 43/43/43 32/32/32 45/45/45 
f 45/45/45 32/32/32 45/45/45 
f 32/32/32 31/31/31 45/45/45 
f 45/45/45 31/31/31 45/45/45 
f 31/31/31 30/30/30 45/45/45 
f 45/45/45 30/30/30 46/46/46 
f 30/30/30 47/47/47 46/46/46 
f 46/46/46 47/47/47 45/45/45 
f 47/47/47 47/47/47 45/45/45 
f 45/45/45 47/47/47 44/44/44 
f 47/47/47 48/48/48 44/44/44 
f 44/44/44 48/48/48 42/42/42 
f 48/48/48 48/48/48 42/42/42 
f 42/42/42 48/48/48 41/41/41 
f 48/48/48 25/25/25 41/41/41 
f 41/41/41 25/25/25 24/24/24 
f 25/25/25 24/24/24 24/24/24 
f 24/24/24 24/24/24 25/25/25 
f 24/24/24 25/25/25 25/25/25 
f 25/25/25 25/25/25 27/27/27 
f 25/25/25 48/48/48 27/27/27 
f 27/27/27 48/48/48 27/27/27 
f 48/48/48 47/47/47 27/27/27 
f 27/27/27 47/47/47 28/28/28 
f 47/47/47 47/47/47 28/28/28 
f 28/28/28 47/47/47 29/29/29 
f 47/47/47 30/30/30 29/29/29 
f 29/29/29 30/30/30 30/30/30 
f 30/30/30 49/49/49 30/30/30 
f 30/30/30 49/49/49 49/49/49 
f 49/49/49 50/50/50 49/49/49 
f 49/49/49 50/50/50 51/51/51 
f 50/50/50 50/50/50 51/51/51 
f 51/51/51 50/50/50 52/52/52 
f 50/50/50 53/53/53 52/52/52 
f 52/52/52 53/53/53 54/54/54 
f 53/53/53 55/55/55 54/54/54 
f 54/54/54 55/55/55 56/56/56 
f 55/55/55 57/57/57 56/56/56 
f 56/56/56 57/57/57 58/58/58 
f 57/57/57 59/59/59 58/58/58 
f 58/58/58 59/59/59 60/60/60 
f 59/59/59 61/61/61 60/60/60 
f 60/60/60 61/61/61 60/60/60 
f 61/61/61 62/62/62 60/60/60 
f 60/60/60 62/62/62 63/63/63 
f 62/62/62 64/64/64 63/63/63 
f 63/63/63 64/64/64 65/65/65 
f 64/64/64 64/64/64 65/65/65 
f 65/65/65 64/64/64 66/66/66 
f 64/64/64 67/67/67 66/66/66 
f 66/66/66 67/67/67 68/68/68 
f 67/67/67 69/69/69 68/68/68 
f 68/68/68 69/69/69 70/70/70 
f 69/69/69 71/71/71 70/70/70 
f 70/70/70 71/71/71 72/72/72 
f 71/71/71 71/71/71 72/72/72 
f 72/72/72 71/71/71 73/73/73 
f 71/71/71 74/74/74 73/73/73 
f 73/73/73 74/74/74 75/75/75 
f 74/74/74 74/74/74 75/75/75 
f 75/75/75 74/74/74 76/76/76 
f 74/74/74 74/74/74 76/76/76 
f 76/76/76 74/74/74 77/77/77 
f 74/74/74 64/64/64 77/77/77 
f 77/77/77 64/64/64 77/77/77 
f 64/64/64 62/62/62 77/77/77 
f 77/77/77 62/62/62 77/77/77 
f 62/62/62 61/61/61 77/77/77 
f 77/77/77 61/61/61 78/78/78 
f 61/61/61 59/59/59 78/78/78 
f 78/78/78 59/59/59 78/78/78 
f 59/59/59 57/57/57 78/78/78 
f 78/78/78 57/57/57 79/79/79 
f 57/57/57 55/55/55 79/79/79 
f 79/79/79 55/55/55 79/79/79 
f 55/55/55 53/53/53 79/79/79 
f 79/79/79 53/53/53 80/80/80 
f 53/53/53 50/50/50 80/80/80 
f 80/80/80 50/50/50 81/81/81 
f 50/50/50 49/49/49 81/81/81 
f 81/81/81 49/49/49 82/82/82 
f 49/49/49 83/83/83 82/82/82 
f 82/82/82 83/83/83 84/84/84 
f 83/83/83 85/85/85 84/84/84 
f 84/84/84 85/85/85 86/86/86 
f 85/85/85 87/87/87 86/86/86 
f 86/86/86 87/87/87 86/86/86 
f 87/87/87 88/88/88 86/86/86 
f 86/86/86 88/88/88 72/72/72 
f 88/88/88 70/70/70 72/72/72 
f 72/72/72 70/70/70 70/70/70 
f 70/70/70 64/64/64 70/70/70 
f 70/70/70 64/64/64 64/64/64 
f 64/64/64 74/74/74 64/64/64 
f 64/64/64 74/74/74 67/67/67 
f 74/74/74 74/74/74 67/67/67 
f 67/67/67 74/74/74 69/69/69 
f 74/74/74 71/71/71 69/69/69 
f 69/69/69 71/71/71 71/71/71 
f 71/71/71 72/72/72 71/71/71 
f 71/71/71 72/72/72 72/72/72 
f 72/72/72 89/89/89 72/72/72 
f 72/72/72 89/89/89 86/86/86 
f 89/89/89 89/89/89 86/86/86 
f 86/86/86 89/89/89 84/84/84 
f 89/89/89 90/90/90 84/84/84 
f 84/84/84 90/90/90 82/82/82 
f 90/90/90 90/90/90 82/82/82 
f 82/82/82 90/90/90 81/81/81 
f 90/90/90 90/90/90 81/81/81 
f 81/81/81 90/90/90 80/80/80 
f 90/90/90 90/90/90 80/80/80 
f 80/80/80 90/90/90 91/91/91 
f 90/90/90 92/92/92 91/91/91 
f 91/91/91 92/92/92 93/93/93 
f 92/92/92 92/92/92 93/93/93 
f 93/93/93 92/92/92 94/94/94 
f 92/92/92 90/90/90 94/94/94 
f 94/94/94 90/90/90 94/94/94 
f 90/90/90 89/89/89 94/94/94 
f 94/94/94 89/89/89 73/73/73 
f 89/89/89 72/72/72 73/73/73 
f 73/73/73 72/72/72 72/72/72 
f 72/72/72 73/73/73 72/72/72 
f 72/72/72 73/73/73 73/73/73 
f 73/73/73 75/75/75 73/73/73 
f 73/73/73 75/75/75 94/94/94 
f 75/75/75 75/75/75 94/94/94 
f 94/94/94 75/75/75 93/93/93 
f 75/75/75 75/75/75 93/93/93 
f 93/93/93 75/75/75 95/95/95 
f 75/75/75 76/76/76 95/95/95 
f 95/95/95 76/76/76 95/95/95 
f 76/76/76 77/77/77 95/95/95 
f 95/95/95 77/77/77 95/95/95 
f 77/77/77 78/78/78 95/95/95 
f 95/95/95 78/78/78 96/96/96 
f 78/78/78 93/93/93 96/96/96 
f 96/96/96 93/93/93 95/95/95 
f 93/93/93 95/95/95 95/95/95 
f 95/95/95 95/95/95 91/91/91 
f 95/95/95 91/91/91 91/91/91 
f 91/91/91 91/91/91 80/80/80 
f 91/91/91 93/93/93 80/80/80 
f 80/80/80 93/93/93 79/79/79 
f 93/93/93 78/78/78 79/79/79 

