mtllib model_5.mtl
o model_5
v -0.14381258189678192 0.019213849678635597 -0.6397736072540283 
v -0.1279856413602829 -0.0011479509994387627 -0.6727267503738403 
v -0.1508781909942627 -0.005039626266807318 -0.6424697637557983 
v -0.13392074406147003 -0.02950158528983593 -0.6748237609863281 
v -0.10226685553789139 -0.03089146874845028 -0.6999879479408264 
v -0.1178111732006073 0.026024281978607178 -0.6694314479827881 
v -0.13222500681877136 0.03519751504063606 -0.625094473361969 
v -0.15963952243328094 0.007608318235725164 -0.6203013062477112 
v -0.15511754155158997 0.013028865680098534 -0.6005293726921082 
v -0.16529200971126556 -0.011085622012615204 -0.616706371307373 
v -0.15511754155158997 -0.03089146874845028 -0.6436680555343628 
v -0.1508781909942627 -0.047987040132284164 -0.6424697637557983 
v -0.1279856413602829 -0.047639571130275726 -0.6727267503738403 
v -0.09802749752998352 -0.047987040132284164 -0.6984900832176208 
v -0.07315658032894135 -0.0333932600915432 -0.7173632383346558 
v -0.07230871170759201 -0.049029454588890076 -0.7161649465560913 
v -0.043198440223932266 -0.03499162569642067 -0.7203590273857117 
v -0.04432893544435501 -0.05215669423341751 -0.7191606760025024 
v 0.020674584433436394 -0.03797987848520279 -0.6895028948783875 
v 0.019261464476585388 -0.05841117352247238 -0.6880050301551819 
v 0.06306818127632141 -0.0585501603782177 -0.6496595144271851 
v 0.06448130309581757 -0.0380493700504303 -0.6514569520950317 
v 0.10546178370714188 -0.03797987848520279 -0.6101157665252686 
v 0.10404866188764572 -0.05841117352247238 -0.608617901802063 
v 0.1393766701221466 -0.05215669423341751 -0.5472052097320557 
v 0.14050716161727905 -0.03499162569642067 -0.5484035015106201 
v 0.13824616372585297 -0.049029454588890076 -0.5193448662757874 
v 0.13965928554534912 -0.0333932600915432 -0.518446147441864 
v 0.12241922318935394 -0.047987040132284164 -0.4920836091041565 
v 0.12411496788263321 -0.03089146874845028 -0.488189160823822 
v 0.09867880493402481 -0.047639571130275726 -0.46092790365219116 
v 0.1009398028254509 -0.02950158528983593 -0.4549364447593689 
v 0.06985116004943848 -0.047987040132284164 -0.4360632598400116 
v 0.07126428186893463 -0.03089146874845028 -0.4315696656703949 
v 0.04526287317276001 -0.049029454588890076 -0.4198862910270691 
v 0.0449802465736866 -0.0333932600915432 -0.4174896776676178 
v 0.017565719783306122 -0.03499162569642067 -0.4171901047229767 
v 0.018978839740157127 -0.05215669423341751 -0.41868796944618225 
v -0.04206794500350952 -0.03797987848520279 -0.4525398313999176 
v -0.040372200310230255 -0.05841117352247238 -0.45433729887008667 
v -0.08446154743432999 -0.0380493700504303 -0.4920836091041565 
v -0.08276580274105072 -0.0585501603782177 -0.4938810467720032 
v -0.1251593977212906 -0.05841117352247238 -0.5337244272232056 
v -0.12685514986515045 -0.03797987848520279 -0.5319269299507141 
v -0.16472676396369934 -0.05215669423341751 -0.5906434655189514 
v -0.1661398857831955 -0.03499162569642067 -0.5891456007957458 
v -0.16529200971126556 -0.049029454588890076 -0.616706371307373 
v -0.16755299270153046 -0.0333932600915432 -0.6164067983627319 
v -0.16472676396369934 -0.011989045888185501 -0.5906434655189514 
v -0.11413706094026566 0.01942233182489872 -0.5457073450088501 
v -0.0872877836227417 0.04888787120580673 -0.5744664669036865 
v -0.10170160979032516 0.044996198266744614 -0.6577480435371399 
v -0.09067927300930023 0.019213849678635597 -0.6966926455497742 
v -0.09802749752998352 -0.005039626266807318 -0.6984900832176208 
v -0.07230871170759201 -0.011085622012615204 -0.7161649465560913 
v -0.1251593977212906 -0.011224609799683094 -0.5337244272232056 
v -0.07343921065330505 0.007608318235725164 -0.7122704982757568 
v -0.07287395745515823 0.03519751504063606 -0.6886041760444641 
v -0.05139453709125519 0.06250873953104019 -0.6125123500823975 
v -0.04489418491721153 0.050694722682237625 -0.5346231460571289 
v -0.07174346596002579 0.01997828669846058 -0.5058640241622925 
v -0.08276580274105072 -0.011224609799683094 -0.4938810467720032 
v -0.040372200310230255 -0.011224609799683094 -0.45433729887008667 
v 0.018978839740157127 -0.011989045888185501 -0.41868796944618225 
v 0.04526287317276001 -0.011085622012615204 -0.4198862910270691 
v 0.06985116004943848 -0.005039626266807318 -0.4360632598400116 
v 0.09867880493402481 -0.0011479509994387627 -0.46092790365219116 
v -0.029349863529205322 0.01942233182489872 -0.4663202464580536 
v 0.028305431827902794 0.013028865680098534 -0.4288735091686249 
v -0.0022179600782692432 0.04888787120580673 -0.4950793385505676 
v 0.033392664045095444 0.06250873953104019 -0.5331252217292786 
v -0.008718311786651611 0.06501052528619766 -0.572968602180481 
v -0.016631783917546272 0.04888787120580673 -0.6499590873718262 
v -0.05252503231167793 0.013028865680098534 -0.710173487663269 
v -0.04432893544435501 -0.011989045888185501 -0.7191606760025024 
v 0.019261464476585388 -0.011224609799683094 -0.6880050301551819 
v 0.04808911308646202 0.007608318235725164 -0.42557817697525024 
v 0.06674229353666306 0.019213849678635597 -0.4426538944244385 
v 0.008804376237094402 0.01942233182489872 -0.6769207715988159 
v 0.026609687134623528 0.050694722682237625 -0.6110144853591919 
v 0.06843803822994232 0.04888787120580673 -0.5702724456787109 
v 0.11083164066076279 0.03519751504063606 -0.5169482827186584 
v 0.08200398832559586 0.044996198266744614 -0.4857925474643707 
v 0.051480598747730255 0.03519751504063606 -0.45343858003616333 
v 0.09472206979990005 0.026024281978607178 -0.47051429748535156 
v 0.12241922318935394 -0.005039626266807318 -0.4920836091041565 
v 0.13824616372585297 -0.011085622012615204 -0.5193448662757874 
v 0.11987560987472534 0.019213849678635597 -0.4995729625225067 
v 0.13457205891609192 0.007608318235725164 -0.5178470015525818 
v 0.13089793920516968 0.013028865680098534 -0.5385175943374634 
v 0.1393766701221466 -0.011989045888185501 -0.5472052097320557 
v 0.10404866188764572 -0.011224609799683094 -0.608617901802063 
v 0.06306818127632141 -0.011224609799683094 -0.6496595144271851 
v 0.05232847109436989 0.01997828669846058 -0.6385753154754639 
v 0.09359157830476761 0.01942233182489872 -0.597533643245697 
v -0.09802749752998352 -0.047987040132284164 -0.6984900832176208 
v -0.07230871170759201 -0.049029454588890076 -0.7161649465560913 
v -0.09067927300930023 -0.057785723358392715 -0.6966926455497742 
v -0.07343921065330505 -0.05681280419230461 -0.7122704982757568 
v -0.07287395745515823 -0.06654199212789536 -0.6886041760444641 
v -0.05252503231167793 -0.06258082389831543 -0.710173487663269 
v -0.016631783917546272 -0.0763406753540039 -0.6499590873718262 
v -0.05139453709125519 -0.07703562080860138 -0.6125123500823975 
v -0.10170160979032516 -0.06709794700145721 -0.6577480435371399 
v -0.13222500681877136 -0.06654199212789536 -0.625094473361969 
v -0.14381258189678192 -0.057785723358392715 -0.6397736072540283 
v -0.1178111732006073 -0.05792471393942833 -0.6694314479827881 
v -0.1279856413602829 -0.047639571130275726 -0.6727267503738403 
v -0.1508781909942627 -0.047987040132284164 -0.6424697637557983 
v -0.15963952243328094 -0.05681280419230461 -0.6203013062477112 
v -0.15511754155158997 -0.06258082389831543 -0.6005293726921082 
v -0.0872877836227417 -0.0763406753540039 -0.5744664669036865 
v -0.11413706094026566 -0.07126759737730026 -0.5457073450088501 
v -0.16472676396369934 -0.05215669423341751 -0.5906434655189514 
v -0.1251593977212906 -0.05841117352247238 -0.5337244272232056 
v -0.07174346596002579 -0.07140658795833588 -0.5058640241622925 
v -0.08276580274105072 -0.0585501603782177 -0.4938810467720032 
v -0.040372200310230255 -0.05841117352247238 -0.45433729887008667 
v -0.029349863529205322 -0.07126759737730026 -0.4663202464580536 
v 0.018978839740157127 -0.05215669423341751 -0.41868796944618225 
v 0.028305431827902794 -0.06258082389831543 -0.4288735091686249 
v 0.04526287317276001 -0.049029454588890076 -0.4198862910270691 
v 0.04808911308646202 -0.05681280419230461 -0.42557817697525024 
v 0.06985116004943848 -0.047987040132284164 -0.4360632598400116 
v 0.06674229353666306 -0.057785723358392715 -0.4426538944244385 
v 0.09867880493402481 -0.047639571130275726 -0.46092790365219116 
v 0.09472206979990005 -0.05792471393942833 -0.47051429748535156 
v 0.12241922318935394 -0.047987040132284164 -0.4920836091041565 
v 0.11987560987472534 -0.057785723358392715 -0.4995729625225067 
v 0.13824616372585297 -0.049029454588890076 -0.5193448662757874 
v -0.16529200971126556 -0.049029454588890076 -0.616706371307373 
v 0.08200398832559586 -0.06709794700145721 -0.4857925474643707 
v 0.051480598747730255 -0.06654199212789536 -0.45343858003616333 
v -0.0022179600782692432 -0.0763406753540039 -0.4950793385505676 
v 0.033392664045095444 -0.07703562080860138 -0.5331252217292786 
v 0.11083164066076279 -0.06654199212789536 -0.5169482827186584 
v 0.13457205891609192 -0.05681280419230461 -0.5178470015525818 
v 0.13089793920516968 -0.06258082389831543 -0.5385175943374634 
v 0.1393766701221466 -0.05215669423341751 -0.5472052097320557 
v 0.09359157830476761 -0.07126759737730026 -0.597533643245697 
v 0.10404866188764572 -0.05841117352247238 -0.608617901802063 
v 0.05232847109436989 -0.07140658795833588 -0.6385753154754639 
v 0.06306818127632141 -0.0585501603782177 -0.6496595144271851 
v 0.019261464476585388 -0.05841117352247238 -0.6880050301551819 
v 0.008804376237094402 -0.07126759737730026 -0.6769207715988159 
v -0.04432893544435501 -0.05215669423341751 -0.7191606760025024 
v 0.06843803822994232 -0.0763406753540039 -0.5702724456787109 
v 0.026609687134623528 -0.07654915750026703 -0.6110144853591919 
v -0.008718311786651611 -0.0772441029548645 -0.572968602180481 
v -0.04489418491721153 -0.07654915750026703 -0.5346231460571289 
v 0.2535567581653595 -0.0585501603782177 -0.3243221640586853 
v 0.2535567581653595 -0.0380493700504303 -0.3267187774181366 
v 0.2529914975166321 -0.07140658795833588 -0.30874431133270264 
v 0.25186100602149963 -0.07654915750026703 -0.2709980010986328 
v 0.2535567581653595 -0.011224609799683094 -0.3243221640586853 
v 0.2529914975166321 0.01997828669846058 -0.30874431133270264 
v 0.25186100602149963 0.050694722682237625 -0.2709980010986328 
v 0.2504478991031647 -0.0772441029548645 -0.219471275806427 
v 0.2504478991031647 0.06501052528619766 -0.219471275806427 
v 0.24903477728366852 0.050694722682237625 -0.16674624383449554 
v 0.24903477728366852 -0.07654915750026703 -0.16674624383449554 
v 0.24790428578853607 0.01997828669846058 -0.12720248103141785 
v 0.24733902513980865 -0.011224609799683094 -0.11102548241615295 
v 0.24733902513980865 -0.0380493700504303 -0.10862889140844345 
v 0.24790428578853607 -0.07140658795833588 -0.12720248103141785 
v 0.24733902513980865 -0.0585501603782177 -0.11102548241615295 
v 0.3934556543827057 0.019213849678635597 -0.17153942584991455 
v 0.40532585978507996 -0.0011479509994387627 -0.20629002153873444 
v 0.40023860335350037 -0.005039626266807318 -0.16854369640350342 
v 0.4109783172607422 -0.02950158528983593 -0.20359385013580322 
v 0.4064563512802124 -0.03089146874845028 -0.24373675882816315 
v 0.40221697092056274 -0.005039626266807318 -0.24553421139717102 
v 0.3962818682193756 -0.011085622012615204 -0.27639034390449524 
v 0.39430350065231323 0.007608318235725164 -0.2727954387664795 
v 0.3957166373729706 0.019213849678635597 -0.2494286745786667 
v 0.37734606862068176 0.03519751504063606 -0.2563188672065735 
v 0.3779113292694092 0.013028865680098534 -0.28597670793533325 
v 0.3784765601158142 -0.011989045888185501 -0.29795965552330017 
v 0.39769500494003296 -0.0333932600915432 -0.27668991684913635 
v 0.40221697092056274 -0.047987040132284164 -0.24553421139717102 
v 0.40532585978507996 -0.047639571130275726 -0.20629002153873444 
v 0.40023860335350037 -0.047987040132284164 -0.16854369640350342 
v 0.4041953384876251 -0.03089146874845028 -0.16644667088985443 
v 0.39232513308525085 -0.049029454588890076 -0.1400841623544693 
v 0.39232513308525085 -0.011085622012615204 -0.1400841623544693 
v 0.3909120261669159 0.007608318235725164 -0.14667479693889618 
v 0.3957166373729706 0.026024281978607178 -0.21108320355415344 
v 0.3937382698059082 -0.0333932600915432 -0.13828672468662262 
v 0.373389333486557 -0.03499162569642067 -0.12001270055770874 
v 0.373389333486557 -0.05215669423341751 -0.12210971862077713 
v 0.373389333486557 -0.011989045888185501 -0.12210971862077713 
v 0.3736719489097595 0.013028865680098534 -0.13589012622833252 
v 0.37480247020721436 0.03519751504063606 -0.16944241523742676 
v 0.3762155771255493 0.044996198266744614 -0.21407893300056458 
v 0.30838581919670105 0.06250873953104019 -0.21737425029277802 
v 0.3100815713405609 0.04888787120580673 -0.2683018445968628 
v 0.31092941761016846 0.01942233182489872 -0.3054490089416504 
v 0.3114946782588959 -0.011224609799683094 -0.32072728872299194 
v 0.3784765601158142 -0.03499162569642067 -0.29975709319114685 
v 0.3114946782588959 -0.03797987848520279 -0.32282429933547974 
v 0.3784765601158142 -0.05215669423341751 -0.29795965552330017 
v 0.3114946782588959 -0.05841117352247238 -0.32072728872299194 
v 0.2535567581653595 -0.0585501603782177 -0.3243221640586853 
v 0.2535567581653595 -0.0380493700504303 -0.3267187774181366 
v 0.2535567581653595 -0.011224609799683094 -0.3243221640586853 
v 0.2529914975166321 0.01997828669846058 -0.30874431133270264 
v 0.25186100602149963 0.050694722682237625 -0.2709980010986328 
v 0.2504478991031647 0.06501052528619766 -0.219471275806427 
v 0.24903477728366852 0.050694722682237625 -0.16674624383449554 
v 0.3069726824760437 0.04888787120580673 -0.16494880616664886 
v 0.30584219098091125 0.01942233182489872 -0.12570461630821228 
v 0.30555957555770874 -0.011224609799683094 -0.10952761769294739 
v 0.3052769601345062 -0.03797987848520279 -0.10713101923465729 
v 0.30555957555770874 -0.05841117352247238 -0.10952761769294739 
v 0.24733902513980865 -0.0380493700504303 -0.10862889140844345 
v 0.24733902513980865 -0.0585501603782177 -0.11102548241615295 
v 0.3962818682193756 -0.049029454588890076 -0.27639034390449524 
v 0.24733902513980865 -0.011224609799683094 -0.11102548241615295 
v 0.24790428578853607 0.01997828669846058 -0.12720248103141785 
v 0.40221697092056274 -0.047987040132284164 -0.24553421139717102 
v 0.3962818682193756 -0.049029454588890076 -0.27639034390449524 
v 0.3957166373729706 -0.057785723358392715 -0.2494286745786667 
v 0.39430350065231323 -0.05681280419230461 -0.2727954387664795 
v 0.37734606862068176 -0.06654199212789536 -0.2563188672065735 
v 0.3779113292694092 -0.06258082389831543 -0.28597670793533325 
v 0.3100815713405609 -0.0763406753540039 -0.2683018445968628 
v 0.3957166373729706 -0.05792471393942833 -0.21108320355415344 
v 0.40532585978507996 -0.047639571130275726 -0.20629002153873444 
v 0.3934556543827057 -0.057785723358392715 -0.17153942584991455 
v 0.40023860335350037 -0.047987040132284164 -0.16854369640350342 
v 0.3909120261669159 -0.05681280419230461 -0.14667479693889618 
v 0.39232513308525085 -0.049029454588890076 -0.1400841623544693 
v 0.3736719489097595 -0.06258082389831543 -0.13589012622833252 
v 0.373389333486557 -0.05215669423341751 -0.12210971862077713 
v 0.30584219098091125 -0.07126759737730026 -0.12570461630821228 
v 0.30555957555770874 -0.05841117352247238 -0.10952761769294739 
v 0.3762155771255493 -0.06709794700145721 -0.21407893300056458 
v 0.37480247020721436 -0.06654199212789536 -0.16944241523742676 
v 0.30838581919670105 -0.07703562080860138 -0.21737425029277802 
v 0.3069726824760437 -0.0763406753540039 -0.16494880616664886 
v 0.2504478991031647 -0.0772441029548645 -0.219471275806427 
v 0.25186100602149963 -0.07654915750026703 -0.2709980010986328 
v 0.31092941761016846 -0.07126759737730026 -0.3054490089416504 
v 0.2529914975166321 -0.07140658795833588 -0.30874431133270264 
v 0.24903477728366852 -0.07654915750026703 -0.16674624383449554 
v 0.24790428578853607 -0.07140658795833588 -0.12720248103141785 
v 0.24733902513980865 -0.0585501603782177 -0.11102548241615295 
v 0.3784765601158142 -0.05215669423341751 -0.29795965552330017 
v 0.3114946782588959 -0.05841117352247238 -0.32072728872299194 
v 0.2535567581653595 -0.0585501603782177 -0.3243221640586853 
vn -0.7419124245643616 0.5371637940406799 -0.401274174451828 
vn -0.7017970085144043 0.25543323159217834 -0.6650074124336243 
vn -0.8281812071800232 0.22386443614959717 -0.5138099193572998 
vn -0.7304856181144714 -0.049061331897974014 -0.681163489818573 
vn -0.5902819633483887 -0.045318614691495895 -0.8059239983558655 
vn -0.607122004032135 0.5510597825050354 -0.5724822878837585 
vn -0.5444265007972717 0.8373034596443176 -0.05022686347365379 
vn -0.8835960030555725 0.4338993728160858 -0.1760382205247879 
vn -0.7631955146789551 0.6048371195793152 0.22738653421401978 
vn -0.9640547633171082 0.19513258337974548 -0.18033768236637115 
vn -0.8594684600830078 -0.034004997462034225 -0.5100564956665039 
vn -0.7485639452934265 -0.4191077947616577 -0.5138099193572998 
vn -0.6288721561431885 -0.48493289947509766 -0.607749879360199 
vn -0.5738991498947144 -0.3814791440963745 -0.7246471047401428 
vn -0.32493141293525696 -0.026425613090395927 -0.9453682899475098 
vn -0.3290918171405792 -0.2596760094165802 -0.9078915119171143 
vn 0.18232817947864532 -0.007591147907078266 -0.983208417892456 
vn 0.14810770750045776 -0.3921698033809662 -0.9078915119171143 
vn 0.5524078011512756 -0.01512744277715683 -0.8334367275238037 
vn 0.47963252663612366 -0.45827716588974 -0.7482877969741821 
vn 0.6021791100502014 -0.4702073931694031 -0.6452018022537231 
vn 0.6825942993164062 -0.01510410662740469 -0.7306414246559143 
vn 0.7966333031654358 -0.015101037919521332 -0.6042742133140564 
vn 0.7174682021141052 -0.4578239619731903 -0.5250110030174255 
vn 0.897788941860199 -0.38924869894981384 -0.2060592919588089 
vn 0.9696524739265442 -0.007549726869910955 -0.24437066912651062 
vn 0.9281830787658691 -0.26074594259262085 0.26549527049064636 
vn 0.9649977684020996 -0.02262824960052967 0.2612801790237427 
vn 0.7614778876304626 -0.3852415680885315 0.5212872624397278 
vn 0.842927098274231 -0.04524622857570648 0.5361219048500061 
vn 0.6484217047691345 -0.48508140444755554 0.5867242813110352 
vn 0.727746844291687 -0.04518194869160652 0.6843559741973877 
vn 0.5654474496841431 -0.4154793322086334 0.7124928832054138 
vn 0.5658458471298218 -0.03763796389102936 0.8236515522003174 
vn 0.2603886127471924 -0.33857324719429016 0.9041935205459595 
vn 0.24971142411231995 -0.022474436089396477 0.9680594801902771 
vn -0.2629587948322296 -0.015036527067422867 0.9646899104118347 
vn -0.19878245890140533 -0.4344496428966522 0.8784868121147156 
vn -0.5989323258399963 -0.011313578113913536 0.8007197380065918 
vn -0.5099518299102783 -0.481978178024292 0.7124928832054138 
vn -0.6826677322387695 -0.011308576911687851 0.7306414246559143 
vn -0.5978310108184814 -0.48468026518821716 0.6385006904602051 
vn -0.6783445477485657 -0.4779243767261505 0.5580654144287109 
vn -0.7581949234008789 -0.015077553689479828 0.651853621006012 
vn -0.8640409111976624 -0.43284347653388977 0.25706008076667786 
vn -0.9459579586982727 -0.01508663222193718 0.3239381015300751 
vn -0.9197883605957031 -0.3365612328052521 -0.2017817199230194 
vn -0.9825465083122253 -0.022645285353064537 -0.18463370203971863 
vn -0.9119499921798706 0.2570495009422302 0.3198012113571167 
vn -0.5867214798927307 0.6467328667640686 0.48733407258987427 
vn -0.3783666789531708 0.8962041735649109 0.23163928091526031 
vn -0.3397832214832306 0.884462833404541 -0.3198012113571167 
vn -0.470114141702652 0.49951615929603577 -0.7276512384414673 
vn -0.5925078988075256 0.1933123618364334 -0.7820260524749756 
vn -0.2932495176792145 0.1424199938774109 -0.9453682899475098 
vn -0.7285857200622559 0.2803514301776886 0.6249527335166931 
vn -0.25115519762039185 0.36949634552001953 -0.8946471214294434 
vn -0.08668039739131927 0.8102597594261169 -0.5796254277229309 
vn -0.10552568733692169 0.9895606637001038 -0.0981530249118805 
vn -0.303809255361557 0.8959710001945496 0.3239381015300751 
vn -0.5245014429092407 0.6430094838142395 0.5580654144287109 
vn -0.6558219194412231 0.2823617160320282 0.7001210451126099 
vn -0.5772488117218018 0.27679404616355896 0.7682244777679443 
vn -0.25327491760253906 0.25992658734321594 0.931820809841156 
vn 0.24550479650497437 0.1950964778661728 0.949560284614563 
vn 0.5680053234100342 0.22099752724170685 0.7927988767623901 
vn 0.7097843289375305 0.25878652930259705 0.6551609039306641 
vn -0.44477522373199463 0.6448785066604614 0.6215357780456543 
vn -0.1784614771604538 0.6077839732170105 0.7737894654273987 
vn -0.20564256608486176 0.8961372375488281 0.3932546079158783 
vn 0.09981407970190048 0.9905745983123779 0.09380380809307098 
vn -1.0341130485562108e-13 0.999997615814209 -0.002184694167226553 
vn 0.20958489179611206 0.8843082189559937 -0.417220801115036 
vn 0.144060879945755 0.5559091567993164 -0.8186644315719604 
vn 0.18742135167121887 0.2194422036409378 -0.9574540853500366 
vn 0.5344319939613342 0.26276251673698425 -0.8033295273780823 
vn 0.2366679161787033 0.43253132700920105 0.8700028657913208 
vn 0.452472448348999 0.5363045334815979 0.7124928832054138 
vn 0.4258981943130493 0.6170200705528259 -0.661737859249115 
vn 0.31292229890823364 0.8897905945777893 -0.33219319581985474 
vn 0.4047411382198334 0.8846060633659363 -0.23163928091526031 
vn 0.5850260257720947 0.8097167015075684 0.04586252197623253 
vn 0.3411325216293335 0.8839433193206787 0.3198012113571167 
vn 0.08473872393369675 0.8375140428543091 0.5398051738739014 
vn 0.6087022423744202 0.556706964969635 0.5652954578399658 
vn 0.8190349340438843 0.1944020390510559 0.5398051738739014 
vn 0.963273286819458 0.14282850921154022 0.22738653421401978 
vn 0.755452036857605 0.4985404312610626 0.42514660954475403 
vn 0.9095081090927124 0.3680528998374939 0.19321508705615997 
vn 0.807619571685791 0.5541071891784668 -0.2017817199230194 
vn 0.9428300261497498 0.21713125705718994 -0.25283506512641907 
vn 0.7670639157295227 0.2595526874065399 -0.5867242813110352 
vn 0.659518837928772 0.2655118405818939 -0.7032341957092285 
vn 0.5344001650810242 0.6251205801963806 -0.5688942670822144 
vn 0.6347716450691223 0.6147421002388 -0.46814218163490295 
vn -0.5738991498947144 -0.3814791440963745 -0.7246471047401428 
vn -0.3290918171405792 -0.2596760094165802 -0.9078915119171143 
vn -0.44093388319015503 -0.7385253310203552 -0.5100564956665039 
vn -0.3489132821559906 -0.6194522976875305 -0.7032341957092285 
vn -0.16902263462543488 -0.953743577003479 -0.24860523641109467 
vn -0.01888883300125599 -0.8295819163322449 -0.5580654144287109 
vn -0.0018876121612265706 -0.9937974810600281 -0.1111890971660614 
vn -0.054720595479011536 -0.9972376227378845 -0.05022686347365379 
vn -0.2097192108631134 -0.9576071500778198 -0.1975002884864807 
vn -0.25023648142814636 -0.9557791948318481 -0.15449213981628418 
vn -0.5034824013710022 -0.7713642120361328 -0.3892335295677185 
vn -0.42931148409843445 -0.7989321351051331 -0.42118772864341736 
vn -0.6288721561431885 -0.48493289947509766 -0.607749879360199 
vn -0.7485639452934265 -0.4191077947616577 -0.5138099193572998 
vn -0.6723198294639587 -0.6910125613212585 -0.26549527049064636 
vn -0.5107128620147705 -0.8594154715538025 0.024029340595006943 
vn -0.10552956163883209 -0.9944137930870056 0.002184694167226553 
vn -0.33968988060951233 -0.9136870503425598 0.22312943637371063 
vn -0.8640409111976624 -0.43284347653388977 0.25706008076667786 
vn -0.6783445477485657 -0.4779243767261505 0.5580654144287109 
vn -0.26253172755241394 -0.9227033257484436 0.28230419754981995 
vn -0.5978310108184814 -0.48468026518821716 0.6385006904602051 
vn -0.5099518299102783 -0.481978178024292 0.7124928832054138 
vn -0.2022462636232376 -0.9151808023452759 0.34862664341926575 
vn -0.19878245890140533 -0.4344496428966522 0.8784868121147156 
vn 0.007547982037067413 -0.8601077795028687 0.5100564956665039 
vn 0.2603886127471924 -0.33857324719429016 0.9041935205459595 
vn 0.3094668686389923 -0.6891984343528748 0.6551609039306641 
vn 0.5654474496841431 -0.4154793322086334 0.7124928832054138 
vn 0.4232580065727234 -0.7733497619628906 0.4719987213611603 
vn 0.6484217047691345 -0.48508140444755554 0.5867242813110352 
vn 0.4479150176048279 -0.8009682297706604 0.3972681760787964 
vn 0.7614778876304626 -0.3852415680885315 0.5212872624397278 
vn 0.5411288738250732 -0.7390254139900208 0.401274174451828 
vn 0.9281830787658691 -0.26074594259262085 0.26549527049064636 
vn -0.9197883605957031 -0.3365612328052521 -0.2017817199230194 
vn 0.2097192108631134 -0.9576071500778198 0.1975002884864807 
vn 0.17452581226825714 -0.9559800028800964 0.23588760197162628 
vn 0.007548347115516663 -0.9947043061256409 0.10250037163496017 
vn 0.05095016211271286 -0.9974374175071716 0.05022686347365379 
vn 0.25753486156463623 -0.9538385272026062 0.15449213981628418 
vn 0.725653886795044 -0.6176570057868958 0.30319350957870483 
vn 0.5555052757263184 -0.8313723802566528 -0.0152922747656703 
vn 0.897788941860199 -0.38924869894981384 -0.2060592919588089 
vn 0.3664845824241638 -0.9032731056213379 -0.22312943637371063 
vn 0.7174682021141052 -0.4578239619731903 -0.5250110030174255 
vn 0.2808776795864105 -0.913328230381012 -0.2948545813560486 
vn 0.6021791100502014 -0.4702073931694031 -0.6452018022537231 
vn 0.47963252663612366 -0.45827716588974 -0.7482877969741821 
vn 0.1967693716287613 -0.903322696685791 -0.3811691105365753 
vn 0.14810770750045776 -0.3921698033809662 -0.9078915119171143 
vn 0.11303620040416718 -0.9935884475708008 -0.002184694167226553 
vn 0.050938479602336884 -0.9972087144851685 -0.05459024757146835 
vn 3.097898456858039e-13 -0.999997615814209 -0.002184694167226553 
vn -0.047178998589515686 -0.9976228475570679 0.05022686347365379 
vn -0.9995967149734497 -2.0673969535010134e-13 -0.028397228568792343 
vn -0.9995967149734497 -2.0673969535010134e-13 -0.028397228568792343 
vn -0.9995967149734497 -2.0673969535010134e-13 -0.028397228568792343 
vn -0.9995967149734497 -2.0673969535010134e-13 -0.028397228568792343 
vn -0.9995967149734497 -2.0673969535010134e-13 -0.028397228568792343 
vn -0.9995967149734497 -2.0673969535010134e-13 -0.028397228568792343 
vn -0.9995967149734497 -2.0673969535010134e-13 -0.028397228568792343 
vn -0.9995967149734497 -2.0673969535010134e-13 -0.028397228568792343 
vn -0.9995967149734497 -2.0673969535010134e-13 -0.028397228568792343 
vn -0.9995967149734497 -2.0673969535010134e-13 -0.028397228568792343 
vn -0.9995967149734497 -2.0673969535010134e-13 -0.028397228568792343 
vn -0.9995967149734497 -2.0673969535010134e-13 -0.028397228568792343 
vn -0.9995967149734497 -2.0673969535010134e-13 -0.028397228568792343 
vn -0.9995967149734497 -2.0673969535010134e-13 -0.028397228568792343 
vn -0.9995967149734497 -2.0673969535010134e-13 -0.028397228568792343 
vn -0.9995967149734497 -2.0673969535010134e-13 -0.028397228568792343 
vn 0.8115264177322388 0.5345857739448547 0.23588760197162628 
vn 0.9650846719741821 0.2611992359161377 0.01966099627315998 
vn 0.9495816826820374 0.22448022663593292 0.21886809170246124 
vn 0.9984372854232788 -0.0452716089785099 0.03276457265019417 
vn 0.9862713813781738 -0.045264776796102524 -0.15880759060382843 
vn 0.9711399674415588 0.19509702920913696 -0.1372016966342926 
vn 0.8740962147712708 0.14283905923366547 -0.4642767012119293 
vn 0.8075914978981018 0.3733446002006531 -0.456519216299057 
vn 0.8479732871055603 0.496841698884964 -0.18463370203971863 
vn 0.4656815230846405 0.8116220235824585 -0.3527185618877411 
vn 0.4754094183444977 0.5528497099876404 -0.6843559741973877 
vn 0.5376886129379272 0.2211829572916031 -0.8136147856712341 
vn 0.8972703814506531 -0.022646237164735794 -0.4409002661705017 
vn 0.9172452688217163 -0.3824893534183502 -0.1111890971660614 
vn 0.8746488690376282 -0.4846339225769043 0.010923261754214764 
vn 0.8942131996154785 -0.41686275601387024 0.16312000155448914 
vn 0.9689472317695618 -0.037739481776952744 0.24437066912651062 
vn 0.793430507183075 -0.3378388285636902 0.5062933564186096 
vn 0.8123692870140076 0.2017255574464798 0.5471406579017639 
vn 0.7537636160850525 0.4322831332683563 0.4949462115764618 
vn 0.831308901309967 0.5554628372192383 0.01966099627315998 
vn 0.8270410299301147 -0.022631708532571793 0.5616858005523682 
vn 0.4426046907901764 -0.015038038603961468 0.8965907096862793 
vn 0.4327484965324402 -0.4340807795524597 0.790128231048584 
vn 0.4248521029949188 0.25759270787239075 0.8678402304649353 
vn 0.3821909427642822 0.6067361235618591 0.6969945430755615 
vn 0.4221409261226654 0.8368133306503296 0.34862664341926575 
vn 0.46469545364379883 0.8854032158851624 0.010923261754214764 
vn 0.1429940164089203 0.9897211194038391 0.002184694167226553 
vn 0.14841870963573456 0.8851999044418335 -0.4409002661705017 
vn 0.16447339951992035 0.6186919212341309 -0.7682244777679443 
vn 0.1894969493150711 0.2601758539676666 -0.946783721446991 
vn 0.5634411573410034 -0.007564995903521776 -0.8261215686798096 
vn 0.1947706937789917 -0.015138776041567326 -0.9807319641113281 
vn 0.5331081748008728 -0.394792377948761 -0.7482877969741821 
vn 0.1861986666917801 -0.46063366532325745 -0.8678402304649353 
vn 0.05654801055788994 -0.4705379009246826 -0.8805659413337708 
vn 0.06372856348752975 -0.01510394737124443 -0.9978529810905457 
vn 0.06194540485739708 0.2689696252346039 -0.961154580116272 
vn 0.054721299558877945 0.6242629885673523 -0.7792953848838806 
vn 0.045306626707315445 0.8885592222213745 -0.456519216299057 
vn 0.03775046393275261 0.9992848038673401 0.002184694167226553 
vn 0.01885702833533287 0.8954225182533264 0.44481781125068665 
vn 0.10541711747646332 0.8970856666564941 0.42909738421440125 
vn 0.07894793152809143 0.6453844904899597 0.7597671151161194 
vn 0.07620438933372498 0.27834248542785645 0.9574540853500366 
vn 0.08159050345420837 -0.014806494116783142 0.9965559244155884 
vn 0.08989772945642471 -0.48091036081314087 0.872148871421814 
vn -0.025550030171871185 -0.016804520040750504 0.9995322823524475 
vn -0.02070370689034462 -0.4849834740161896 0.87427818775177 
vn 0.8725640773773193 -0.260498970746994 -0.41324591636657715 
vn -0.026294967159628868 0.27897119522094727 0.9599394202232361 
vn -0.007543531246483326 0.6434869170188904 0.7654199600219727 
vn 0.9172452688217163 -0.3824893534183502 -0.1111890971660614 
vn 0.8725640773773193 -0.260498970746994 -0.41324591636657715 
vn 0.6726090312004089 -0.7379817366600037 -0.05459024757146835 
vn 0.7433081269264221 -0.6193282604217529 -0.25283506512641907 
vn 0.2956036329269409 -0.9537496566772461 -0.05459024757146835 
vn 0.41009750962257385 -0.8285711407661438 -0.3811691105365753 
vn 0.07917039096355438 -0.993929922580719 -0.0763898640871048 
vn 0.5987265110015869 -0.8009505867958069 0.002184694167226553 
vn 0.8746488690376282 -0.4846339225769043 0.010923261754214764 
vn 0.6308971643447876 -0.7720966935157776 0.0763898640871048 
vn 0.8942131996154785 -0.41686275601387024 0.16312000155448914 
vn 0.6653589606285095 -0.6893613934516907 0.2864931523799896 
vn 0.793430507183075 -0.3378388285636902 0.5062933564186096 
vn 0.3406345844268799 -0.8630079030990601 0.37307560443878174 
vn 0.4327484965324402 -0.4340807795524597 0.790128231048584 
vn 0.08290650695562363 -0.9139499664306641 0.3972681760787964 
vn 0.08989772945642471 -0.48091036081314087 0.872148871421814 
vn 0.29027843475341797 -0.95691978931427 0.006554040592163801 
vn 0.2882351875305176 -0.9554641842842102 0.0633138045668602 
vn 0.07544711232185364 -0.9971474409103394 0.002184694167226553 
vn 0.07166734337806702 -0.9948241710662842 0.07203252613544464 
vn 3.097898456858039e-13 -0.999997615814209 -0.002184694167226553 
vn 0.003773982636630535 -0.9970709085464478 -0.0763898640871048 
vn 0.12611113488674164 -0.9036590456962585 -0.40926313400268555 
vn 0.032072607427835464 -0.9136331677436829 -0.405272513628006 
vn 0.0037752098869532347 -0.9973951578140259 0.07203252613544464 
vn -0.009432181715965271 -0.921090841293335 0.3892335295677185 
vn -0.02070370689034462 -0.4849834740161896 0.87427818775177 
vn 0.5331081748008728 -0.394792377948761 -0.7482877969741821 
vn 0.1861986666917801 -0.46063366532325745 -0.8678402304649353 
vn 0.05654801055788994 -0.4705379009246826 -0.8805659413337708 
vt 0.33277690410614014 0.8591027855873108 
vt 0.27390724420547485 0.8941887021064758 
vt 0.3408927023410797 0.9001760482788086 
vt 0.2714846432209015 0.951308012008667 
vt 0.18645066022872925 0.9298732876777649 
vt 0.2742706537246704 0.846768856048584 
vt 0.3390757143497467 0.8234182000160217 
vt 0.3731135427951813 0.8696405291557312 
vt 0.393705815076828 0.8456911444664001 
vt 0.3934635519981384 0.8953861594200134 
vt 0.3527635335922241 0.951308012008667 
vt 0.35869893431663513 0.9941774010658264 
vt 0.2592504024505615 0.9960933923721313 
vt 0.16089202463626862 0.9649591445922852 
vt 0.12237236648797989 0.8896383047103882 
vt 0.09402771294116974 0.9151443839073181 
vt 0.08179347962141037 0.8400630354881287 
vt 0.04787680134177208 0.858983039855957 
vt 0.04339495673775673 0.7085808515548706 
vt 0.00390625 0.7140892148017883 
vt 0.004390773829072714 0.5836846828460693 
vt 0.0456964448094368 0.5891930460929871 
vt 0.07428336143493652 0.4732779860496521 
vt 0.037580668926239014 0.457710862159729 
vt 0.1172848641872406 0.3291025757789612 
vt 0.14526613056659698 0.356045663356781 
vt 0.17639678716659546 0.2867121398448944 
vt 0.19723132252693176 0.31856486201286316 
vt 0.25392064452171326 0.2558174133300781 
vt 0.2695465385913849 0.29629191756248474 
vt 0.3570031225681305 0.25102755427360535 
vt 0.35724538564682007 0.29748937487602234 
vt 0.4525754749774933 0.2785693407058716 
vt 0.4357382655143738 0.3184451162815094 
vt 0.5185918807983398 0.3220375180244446 
vt 0.4919430613517761 0.35209402441978455 
vt 0.5305838584899902 0.3958016633987427 
vt 0.5653484463691711 0.3752051889896393 
vt 0.5723740458488464 0.530517041683197 
vt 0.614890992641449 0.5245296955108643 
vt 0.5721317529678345 0.6581673622131348 
vt 0.614890992641449 0.6637954711914062 
vt 0.5789151191711426 0.7983911037445068 
vt 0.5394263863563538 0.7816265225410461 
vt 0.49254870414733887 0.9298732876777649 
vt 0.4643251895904541 0.9010142683982849 
vt 0.4336790442466736 0.9691503047943115 
vt 0.4157516360282898 0.9333459734916687 
vt 0.43210434913635254 0.8711972832679749 
vt 0.4357382655143738 0.7436667084693909 
vt 0.36366531252861023 0.7242676615715027 
vt 0.2774200439453125 0.8072523474693298 
vt 0.21697567403316498 0.8387458324432373 
vt 0.2058316320180893 0.8795795440673828 
vt 0.15350303053855896 0.8574263453483582 
vt 0.49157965183258057 0.762706458568573 
vt 0.1779714971780777 0.8368298411369324 
vt 0.21746020019054413 0.8021032214164734 
vt 0.28892749547958374 0.709898054599762 
vt 0.3785644471645355 0.6327809691429138 
vt 0.45693618059158325 0.6430792212486267 
vt 0.519076406955719 0.6512219905853271 
vt 0.5212567448616028 0.5365043878555298 
vt 0.49182191491127014 0.41639813780784607 
vt 0.4605701267719269 0.38298875093460083 
vt 0.41114866733551025 0.3649069368839264 
vt 0.3447688817977905 0.35329148173332214 
vt 0.4623870849609375 0.5404560565948486 
vt 0.44809362292289734 0.43112704157829285 
vt 0.3877703845500946 0.5405758023262024 
vt 0.31182125210762024 0.5353069305419922 
vt 0.29970815777778625 0.6224827170372009 
vt 0.21600663661956787 0.7024737596511841 
vt 0.1640414297580719 0.8071326017379761 
vt 0.1212821900844574 0.8203047513961792 
vt 0.09124170243740082 0.7034317255020142 
vt 0.43428468704223633 0.40262725949287415 
vt 0.3927367627620697 0.402507483959198 
vt 0.14647743105888367 0.7007972598075867 
vt 0.2236378788948059 0.6125437617301941 
vt 0.2395060509443283 0.5235717296600342 
vt 0.2665182650089264 0.42765435576438904 
vt 0.32575130462646484 0.43819209933280945 
vt 0.3895873427391052 0.4385513365268707 
vt 0.3330191671848297 0.39915457367897034 
vt 0.2752396762371063 0.3499385714530945 
vt 0.21903491020202637 0.3578418791294098 
vt 0.2754819393157959 0.3922092616558075 
vt 0.23744681477546692 0.38406646251678467 
vt 0.21624889969825745 0.40909358859062195 
vt 0.17833489179611206 0.38526391983032227 
vt 0.1192229613661766 0.49052155017852783 
vt 0.09366431832313538 0.5954199433326721 
vt 0.15059588849544525 0.6029639840126038 
vt 0.17179381847381592 0.5072861313819885 
vt 0.879562258720398 0.9857951402664185 
vt 0.9334655404090881 0.9677133560180664 
vt 0.8828327655792236 0.9631629586219788 
vt 0.9222003817558289 0.9563373923301697 
vt 0.8909485340118408 0.9265203475952148 
vt 0.9418236017227173 0.9255623817443848 
vt 0.8988220691680908 0.808689296245575 
vt 0.8159684538841248 0.8103657960891724 
vt 0.8173009157180786 0.9304720163345337 
vt 0.7385657429695129 0.9316694736480713 
vt 0.7426842451095581 0.968431830406189 
vt 0.8142726421356201 0.9698687791824341 
vt 0.8068836331367493 0.9960933923721313 
vt 0.7357797622680664 0.9901060461997986 
vt 0.6990770697593689 0.9637616872787476 
vt 0.6803017258644104 0.9333459734916687 
vt 0.7305710911750793 0.8127607107162476 
vt 0.6651603579521179 0.8152754306793213 
vt 0.6496556401252747 0.9394530653953552 
vt 0.6308802962303162 0.8176703453063965 
vt 0.6611630320549011 0.7100178003311157 
vt 0.6265195608139038 0.7107362747192383 
vt 0.6265195608139038 0.6038022041320801 
vt 0.6607996821403503 0.6047601699829102 
vt 0.6403285264968872 0.4813010096549988 
vt 0.6710957884788513 0.48609089851379395 
vt 0.6731550097465515 0.44429919123649597 
vt 0.688538670539856 0.4550764262676239 
vt 0.7242723107337952 0.427175372838974 
vt 0.7319035530090332 0.4486100971698761 
vt 0.7950128316879272 0.4183140993118286 
vt 0.80349200963974 0.4441794455051422 
vt 0.8680548071861267 0.42549893260002136 
vt 0.8722943663597107 0.4480113685131073 
vt 0.9225637316703796 0.44142526388168335 
vt 0.68405681848526 0.9750179052352905 
vt 0.8080949783325195 0.48345646262168884 
vt 0.7294809222221375 0.4853724241256714 
vt 0.7263315320014954 0.6046404242515564 
vt 0.8117288947105408 0.6034429669380188 
vt 0.8818637132644653 0.48429471254348755 
vt 0.9119042158126831 0.4532802402973175 
vt 0.9327387809753418 0.4832169711589813 
vt 0.9599932432174683 0.4768703877925873 
vt 0.9558748006820679 0.5994912981987 
vt 0.9884589910507202 0.596976637840271 
vt 0.9625369906425476 0.7039107084274292 
vt 0.996090292930603 0.7031922340393066 
vt 0.9928197264671326 0.8096473217010498 
vt 0.9601143598556519 0.8084498047828674 
vt 0.9693202972412109 0.930831253528595 
vt 0.8945825099945068 0.6017665266990662 
vt 0.89930659532547 0.7051081657409668 
vt 0.8142726421356201 0.7069043517112732 
vt 0.7274217009544373 0.7087005972862244 
vt 0.4554826319217682 0.2276768833398819 
vt 0.46589988470077515 0.1785806119441986 
vt 0.48164692521095276 0.26922908425331116 
vt 0.5653484463691711 0.3097035586833954 
vt 0.491337388753891 0.118108369410038 
vt 0.550933837890625 0.057636138051748276 
vt 0.6616475582122803 0.015245700255036354 
vt 0.6845413446426392 0.3505373001098633 
vt 0.7923479080200195 0.021233050152659416 
vt 0.9035462141036987 0.09439846873283386 
vt 0.8071259260177612 0.38885635137557983 
vt 0.9716218113899231 0.1953451931476593 
vt 0.9856730103492737 0.2798865735530853 
vt 0.9706527590751648 0.34383147954940796 
vt 0.9023348689079285 0.4069381356239319 
vt 0.9496970772743225 0.38945508003234863 
vt 0.3927367627620697 0.402507483959198 
vt 0.3447688817977905 0.35329148173332214 
vt 0.41114866733551025 0.3649069368839264 
vt 0.35724538564682007 0.29748937487602234 
vt 0.2695465385913849 0.29629191756248474 
vt 0.2752396762371063 0.3499385714530945 
vt 0.21903491020202637 0.3578418791294098 
vt 0.23744681477546692 0.38406646251678467 
vt 0.2754819393157959 0.3922092616558075 
vt 0.2665182650089264 0.42765435576438904 
vt 0.21624889969825745 0.40909358859062195 
vt 0.17833489179611206 0.38526391983032227 
vt 0.19723132252693176 0.31856486201286316 
vt 0.25392064452171326 0.2558174133300781 
vt 0.3570031225681305 0.25102755427360535 
vt 0.4525754749774933 0.2785693407058716 
vt 0.4357382655143738 0.3184451162815094 
vt 0.5185918807983398 0.3220375180244446 
vt 0.4605701267719269 0.38298875093460083 
vt 0.43428468704223633 0.40262725949287415 
vt 0.3330191671848297 0.39915457367897034 
vt 0.4919430613517761 0.35209402441978455 
vt 0.5305838584899902 0.3958016633987427 
vt 0.5653484463691711 0.3752051889896393 
vt 0.49182191491127014 0.41639813780784607 
vt 0.44809362292289734 0.43112704157829285 
vt 0.3895873427391052 0.4385513365268707 
vt 0.32575130462646484 0.43819209933280945 
vt 0.31182125210762024 0.5353069305419922 
vt 0.2395060509443283 0.5235717296600342 
vt 0.17179381847381592 0.5072861313819885 
vt 0.1192229613661766 0.49052155017852783 
vt 0.14526613056659698 0.356045663356781 
vt 0.07428336143493652 0.4732779860496521 
vt 0.1172848641872406 0.3291025757789612 
vt 0.037580668926239014 0.457710862159729 
vt 0.004390773829072714 0.5836846828460693 
vt 0.0456964448094368 0.5891930460929871 
vt 0.09366431832313538 0.5954199433326721 
vt 0.15059588849544525 0.6029639840126038 
vt 0.2236378788948059 0.6125437617301941 
vt 0.29970815777778625 0.6224827170372009 
vt 0.3785644471645355 0.6327809691429138 
vt 0.3877703845500946 0.5405758023262024 
vt 0.4623870849609375 0.5404560565948486 
vt 0.5212567448616028 0.5365043878555298 
vt 0.5723740458488464 0.530517041683197 
vt 0.614890992641449 0.5245296955108643 
vt 0.5721317529678345 0.6581673622131348 
vt 0.614890992641449 0.6637954711914062 
vt 0.17639678716659546 0.2867121398448944 
vt 0.519076406955719 0.6512219905853271 
vt 0.45693618059158325 0.6430792212486267 
vt 0.8680548071861267 0.42549893260002136 
vt 0.9225637316703796 0.44142526388168335 
vt 0.8722943663597107 0.4480113685131073 
vt 0.9119042158126831 0.4532802402973175 
vt 0.8818637132644653 0.48429471254348755 
vt 0.9327387809753418 0.4832169711589813 
vt 0.8945825099945068 0.6017665266990662 
vt 0.80349200963974 0.4441794455051422 
vt 0.7950128316879272 0.4183140993118286 
vt 0.7319035530090332 0.4486100971698761 
vt 0.7242723107337952 0.427175372838974 
vt 0.688538670539856 0.4550764262676239 
vt 0.6731550097465515 0.44429919123649597 
vt 0.6710957884788513 0.48609089851379395 
vt 0.6403285264968872 0.4813010096549988 
vt 0.6607996821403503 0.6047601699829102 
vt 0.6265195608139038 0.6038022041320801 
vt 0.8080949783325195 0.48345646262168884 
vt 0.7294809222221375 0.4853724241256714 
vt 0.8117288947105408 0.6034429669380188 
vt 0.7263315320014954 0.6046404242515564 
vt 0.8142726421356201 0.7069043517112732 
vt 0.89930659532547 0.7051081657409668 
vt 0.9558748006820679 0.5994912981987 
vt 0.9625369906425476 0.7039107084274292 
vt 0.7274217009544373 0.7087005972862244 
vt 0.6611630320549011 0.7100178003311157 
vt 0.6265195608139038 0.7107362747192383 
vt 0.9599932432174683 0.4768703877925873 
vt 0.9884589910507202 0.596976637840271 
vt 0.996090292930603 0.7031922340393066 
s on 
f 1/1/1 2/2/2 3/3/3 
f 2/2/2 2/2/2 3/3/3 
f 3/3/3 2/2/2 4/4/4 
f 2/2/2 5/5/5 4/4/4 
f 4/4/4 5/5/5 5/5/5 
f 5/5/5 2/2/2 5/5/5 
f 5/5/5 2/2/2 2/2/2 
f 2/2/2 1/1/1 2/2/2 
f 2/2/2 1/1/1 6/6/6 
f 1/1/1 1/1/1 6/6/6 
f 6/6/6 1/1/1 7/7/7 
f 1/1/1 8/8/8 7/7/7 
f 7/7/7 8/8/8 9/9/9 
f 8/8/8 8/8/8 9/9/9 
f 9/9/9 8/8/8 10/10/10 
f 8/8/8 3/3/3 10/10/10 
f 10/10/10 3/3/3 11/11/11 
f 3/3/3 4/4/4 11/11/11 
f 11/11/11 4/4/4 12/12/12 
f 4/4/4 4/4/4 12/12/12 
f 12/12/12 4/4/4 13/13/13 
f 4/4/4 5/5/5 13/13/13 
f 13/13/13 5/5/5 14/14/14 
f 5/5/5 15/15/15 14/14/14 
f 14/14/14 15/15/15 16/16/16 
f 15/15/15 17/17/17 16/16/16 
f 16/16/16 17/17/17 18/18/18 
f 17/17/17 19/19/19 18/18/18 
f 18/18/18 19/19/19 20/20/20 
f 19/19/19 19/19/19 20/20/20 
f 20/20/20 19/19/19 21/21/21 
f 19/19/19 22/22/22 21/21/21 
f 21/21/21 22/22/22 21/21/21 
f 22/22/22 23/23/23 21/21/21 
f 21/21/21 23/23/23 24/24/24 
f 23/23/23 23/23/23 24/24/24 
f 24/24/24 23/23/23 25/25/25 
f 23/23/23 26/26/26 25/25/25 
f 25/25/25 26/26/26 27/27/27 
f 26/26/26 28/28/28 27/27/27 
f 27/27/27 28/28/28 29/29/29 
f 28/28/28 30/30/30 29/29/29 
f 29/29/29 30/30/30 31/31/31 
f 30/30/30 32/32/32 31/31/31 
f 31/31/31 32/32/32 33/33/33 
f 32/32/32 34/34/34 33/33/33 
f 33/33/33 34/34/34 35/35/35 
f 34/34/34 36/36/36 35/35/35 
f 35/35/35 36/36/36 35/35/35 
f 36/36/36 37/37/37 35/35/35 
f 35/35/35 37/37/37 38/38/38 
f 37/37/37 39/39/39 38/38/38 
f 38/38/38 39/39/39 40/40/40 
f 39/39/39 41/41/41 40/40/40 
f 40/40/40 41/41/41 42/42/42 
f 41/41/41 41/41/41 42/42/42 
f 42/42/42 41/41/41 43/43/43 
f 41/41/41 44/44/44 43/43/43 
f 43/43/43 44/44/44 45/45/45 
f 44/44/44 46/46/46 45/45/45 
f 45/45/45 46/46/46 47/47/47 
f 46/46/46 48/48/48 47/47/47 
f 47/47/47 48/48/48 11/11/11 
f 48/48/48 48/48/48 11/11/11 
f 11/11/11 48/48/48 10/10/10 
f 48/48/48 49/49/49 10/10/10 
f 10/10/10 49/49/49 9/9/9 
f 49/49/49 50/50/50 9/9/9 
f 9/9/9 50/50/50 9/9/9 
f 50/50/50 51/51/51 9/9/9 
f 9/9/9 51/51/51 7/7/7 
f 51/51/51 52/52/52 7/7/7 
f 7/7/7 52/52/52 6/6/6 
f 52/52/52 53/53/53 6/6/6 
f 6/6/6 53/53/53 6/6/6 
f 53/53/53 54/54/54 6/6/6 
f 6/6/6 54/54/54 2/2/2 
f 54/54/54 54/54/54 2/2/2 
f 2/2/2 54/54/54 5/5/5 
f 54/54/54 55/55/55 5/5/5 
f 5/5/5 55/55/55 15/15/15 
f 55/55/55 15/15/15 15/15/15 
f 15/15/15 15/15/15 8/8/8 
f 15/15/15 8/8/8 8/8/8 
f 8/8/8 8/8/8 3/3/3 
f 8/8/8 1/1/1 3/3/3 
f 3/3/3 1/1/1 1/1/1 
f 1/1/1 47/47/47 1/1/1 
f 1/1/1 47/47/47 47/47/47 
f 47/47/47 11/11/11 47/47/47 
f 47/47/47 11/11/11 12/12/12 
f 11/11/11 12/12/12 12/12/12 
f 12/12/12 12/12/12 48/48/48 
f 12/12/12 48/48/48 48/48/48 
f 48/48/48 48/48/48 49/49/49 
f 48/48/48 46/46/46 49/49/49 
f 49/49/49 46/46/46 56/56/56 
f 46/46/46 44/44/44 56/56/56 
f 56/56/56 44/44/44 44/44/44 
f 44/44/44 49/49/49 44/44/44 
f 44/44/44 49/49/49 49/49/49 
f 49/49/49 56/56/56 49/49/49 
f 49/49/49 56/56/56 50/50/50 
f 56/56/56 50/50/50 50/50/50 
f 50/50/50 50/50/50 55/55/55 
f 50/50/50 55/55/55 55/55/55 
f 55/55/55 55/55/55 57/57/57 
f 55/55/55 54/54/54 57/57/57 
f 57/57/57 54/54/54 57/57/57 
f 54/54/54 53/53/53 57/57/57 
f 57/57/57 53/53/53 58/58/58 
f 53/53/53 52/52/52 58/58/58 
f 58/58/58 52/52/52 59/59/59 
f 52/52/52 51/51/51 59/59/59 
f 59/59/59 51/51/51 60/60/60 
f 51/51/51 51/51/51 60/60/60 
f 60/60/60 51/51/51 61/61/61 
f 51/51/51 50/50/50 61/61/61 
f 61/61/61 50/50/50 62/62/62 
f 50/50/50 56/56/56 62/62/62 
f 62/62/62 56/56/56 62/62/62 
f 56/56/56 44/44/44 62/62/62 
f 62/62/62 44/44/44 62/62/62 
f 44/44/44 41/41/41 62/62/62 
f 62/62/62 41/41/41 62/62/62 
f 41/41/41 39/39/39 62/62/62 
f 62/62/62 39/39/39 63/63/63 
f 39/39/39 37/37/37 63/63/63 
f 63/63/63 37/37/37 64/64/64 
f 37/37/37 36/36/36 64/64/64 
f 64/64/64 36/36/36 65/65/65 
f 36/36/36 34/34/34 65/65/65 
f 65/65/65 34/34/34 66/66/66 
f 34/34/34 32/32/32 66/66/66 
f 66/66/66 32/32/32 67/67/67 
f 32/32/32 30/30/30 67/67/67 
f 67/67/67 30/30/30 30/30/30 
f 30/30/30 63/63/63 30/30/30 
f 30/30/30 63/63/63 63/63/63 
f 63/63/63 68/68/68 63/63/63 
f 63/63/63 68/68/68 62/62/62 
f 68/68/68 61/61/61 62/62/62 
f 62/62/62 61/61/61 61/61/61 
f 61/61/61 63/63/63 61/61/61 
f 61/61/61 63/63/63 63/63/63 
f 63/63/63 64/64/64 63/63/63 
f 63/63/63 64/64/64 68/68/68 
f 64/64/64 69/69/69 68/68/68 
f 68/68/68 69/69/69 68/68/68 
f 69/69/69 70/70/70 68/68/68 
f 68/68/68 70/70/70 61/61/61 
f 70/70/70 70/70/70 61/61/61 
f 61/61/61 70/70/70 60/60/60 
f 70/70/70 71/71/71 60/60/60 
f 60/60/60 71/71/71 60/60/60 
f 71/71/71 72/72/72 60/60/60 
f 60/60/60 72/72/72 59/59/59 
f 72/72/72 73/73/73 59/59/59 
f 59/59/59 73/73/73 58/58/58 
f 73/73/73 74/74/74 58/58/58 
f 58/58/58 74/74/74 57/57/57 
f 74/74/74 74/74/74 57/57/57 
f 57/57/57 74/74/74 55/55/55 
f 74/74/74 75/75/75 55/55/55 
f 55/55/55 75/75/75 15/15/15 
f 75/75/75 75/75/75 15/15/15 
f 15/15/15 75/75/75 17/17/17 
f 75/75/75 76/76/76 17/17/17 
f 17/17/17 76/76/76 19/19/19 
f 76/76/76 19/19/19 19/19/19 
f 19/19/19 19/19/19 64/64/64 
f 19/19/19 64/64/64 64/64/64 
f 64/64/64 64/64/64 69/69/69 
f 64/64/64 65/65/65 69/69/69 
f 69/69/69 65/65/65 77/77/77 
f 65/65/65 66/66/66 77/77/77 
f 77/77/77 66/66/66 78/78/78 
f 66/66/66 67/67/67 78/78/78 
f 78/78/78 67/67/67 67/67/67 
f 67/67/67 76/76/76 67/67/67 
f 67/67/67 76/76/76 76/76/76 
f 76/76/76 75/75/75 76/76/76 
f 76/76/76 75/75/75 79/79/79 
f 75/75/75 74/74/74 79/79/79 
f 79/79/79 74/74/74 79/79/79 
f 74/74/74 73/73/73 79/79/79 
f 79/79/79 73/73/73 80/80/80 
f 73/73/73 72/72/72 80/80/80 
f 80/80/80 72/72/72 81/81/81 
f 72/72/72 71/71/71 81/81/81 
f 81/81/81 71/71/71 82/82/82 
f 71/71/71 71/71/71 82/82/82 
f 82/82/82 71/71/71 83/83/83 
f 71/71/71 70/70/70 83/83/83 
f 83/83/83 70/70/70 84/84/84 
f 70/70/70 69/69/69 84/84/84 
f 84/84/84 69/69/69 84/84/84 
f 69/69/69 77/77/77 84/84/84 
f 84/84/84 77/77/77 84/84/84 
f 77/77/77 78/78/78 84/84/84 
f 84/84/84 78/78/78 85/85/85 
f 78/78/78 67/67/67 85/85/85 
f 85/85/85 67/67/67 86/86/86 
f 67/67/67 30/30/30 86/86/86 
f 86/86/86 30/30/30 87/87/87 
f 30/30/30 28/28/28 87/87/87 
f 87/87/87 28/28/28 28/28/28 
f 28/28/28 84/84/84 28/28/28 
f 28/28/28 84/84/84 84/84/84 
f 84/84/84 85/85/85 84/84/84 
f 84/84/84 85/85/85 83/83/83 
f 85/85/85 88/88/88 83/83/83 
f 83/83/83 88/88/88 82/82/82 
f 88/88/88 89/89/89 82/82/82 
f 82/82/82 89/89/89 90/90/90 
f 89/89/89 87/87/87 90/90/90 
f 90/90/90 87/87/87 91/91/91 
f 87/87/87 28/28/28 91/91/91 
f 91/91/91 28/28/28 91/91/91 
f 28/28/28 26/26/26 91/91/91 
f 91/91/91 26/26/26 92/92/92 
f 26/26/26 23/23/23 92/92/92 
f 92/92/92 23/23/23 93/93/93 
f 23/23/23 22/22/22 93/93/93 
f 93/93/93 22/22/22 93/93/93 
f 22/22/22 19/19/19 93/93/93 
f 93/93/93 19/19/19 93/93/93 
f 19/19/19 76/76/76 93/93/93 
f 93/93/93 76/76/76 94/94/94 
f 76/76/76 79/79/79 94/94/94 
f 94/94/94 79/79/79 94/94/94 
f 79/79/79 80/80/80 94/94/94 
f 94/94/94 80/80/80 94/94/94 
f 80/80/80 95/95/95 94/94/94 
f 94/94/94 95/95/95 92/92/92 
f 95/95/95 95/95/95 92/92/92 
f 92/92/92 95/95/95 91/91/91 
f 95/95/95 95/95/95 91/91/91 
f 91/91/91 95/95/95 90/90/90 
f 95/95/95 81/81/81 90/90/90 
f 90/90/90 81/81/81 82/82/82 
f 81/81/81 82/82/82 82/82/82 
f 82/82/82 82/82/82 85/85/85 
f 82/82/82 85/85/85 85/85/85 
f 85/85/85 85/85/85 88/88/88 
f 85/85/85 86/86/86 88/88/88 
f 88/88/88 86/86/86 89/89/89 
f 86/86/86 87/87/87 89/89/89 
f 89/89/89 87/87/87 87/87/87 
f 87/87/87 92/92/92 87/87/87 
f 87/87/87 92/92/92 92/92/92 
f 92/92/92 93/93/93 92/92/92 
f 92/92/92 93/93/93 94/94/94 
f 93/93/93 94/94/94 94/94/94 
f 94/94/94 94/94/94 80/80/80 
f 94/94/94 80/80/80 80/80/80 
f 80/80/80 80/80/80 95/95/95 
f 80/80/80 81/81/81 95/95/95 
f 95/95/95 81/81/81 81/81/81 
f 81/81/81 96/96/96 81/81/81 
f 81/81/81 96/96/96 96/96/96 
f 96/96/96 97/97/97 96/96/96 
f 96/96/96 97/97/97 98/98/98 
f 97/97/97 99/99/99 98/98/98 
f 98/98/98 99/99/99 100/100/100 
f 99/99/99 101/101/101 100/100/100 
f 100/100/100 101/101/101 100/100/100 
f 101/101/101 102/102/102 100/100/100 
f 100/100/100 102/102/102 100/100/100 
f 102/102/102 103/103/103 100/100/100 
f 100/100/100 103/103/103 104/104/104 
f 103/103/103 105/105/105 104/104/104 
f 104/104/104 105/105/105 104/104/104 
f 105/105/105 106/106/106 104/104/104 
f 104/104/104 106/106/106 107/107/107 
f 106/106/106 108/108/108 107/107/107 
f 107/107/107 108/108/108 107/107/107 
f 108/108/108 96/96/96 107/107/107 
f 107/107/107 96/96/96 107/107/107 
f 96/96/96 98/98/98 107/107/107 
f 107/107/107 98/98/98 104/104/104 
f 98/98/98 100/100/100 104/104/104 
f 104/104/104 100/100/100 100/100/100 
f 100/100/100 97/97/97 100/100/100 
f 100/100/100 97/97/97 97/97/97 
f 97/97/97 101/101/101 97/97/97 
f 97/97/97 101/101/101 99/99/99 
f 101/101/101 99/99/99 99/99/99 
f 99/99/99 99/99/99 108/108/108 
f 99/99/99 108/108/108 108/108/108 
f 108/108/108 108/108/108 109/109/109 
f 108/108/108 106/106/106 109/109/109 
f 109/109/109 106/106/106 110/110/110 
f 106/106/106 105/105/105 110/110/110 
f 110/110/110 105/105/105 111/111/111 
f 105/105/105 112/112/112 111/111/111 
f 111/111/111 112/112/112 111/111/111 
f 112/112/112 113/113/113 111/111/111 
f 111/111/111 113/113/113 114/114/114 
f 113/113/113 113/113/113 114/114/114 
f 114/114/114 113/113/113 115/115/115 
f 113/113/113 116/116/116 115/115/115 
f 115/115/115 116/116/116 117/117/117 
f 116/116/116 116/116/116 117/117/117 
f 117/117/117 116/116/116 118/118/118 
f 116/116/116 119/119/119 118/118/118 
f 118/118/118 119/119/119 120/120/120 
f 119/119/119 121/121/121 120/120/120 
f 120/120/120 121/121/121 122/122/122 
f 121/121/121 123/123/123 122/122/122 
f 122/122/122 123/123/123 124/124/124 
f 123/123/123 125/125/125 124/124/124 
f 124/124/124 125/125/125 126/126/126 
f 125/125/125 127/127/127 126/126/126 
f 126/126/126 127/127/127 128/128/128 
f 127/127/127 129/129/129 128/128/128 
f 128/128/128 129/129/129 130/130/130 
f 129/129/129 130/130/130 130/130/130 
f 130/130/130 130/130/130 109/109/109 
f 130/130/130 109/109/109 109/109/109 
f 109/109/109 109/109/109 131/131/131 
f 109/109/109 110/110/110 131/131/131 
f 131/131/131 110/110/110 131/131/131 
f 110/110/110 111/111/111 131/131/131 
f 131/131/131 111/111/111 114/114/114 
f 111/111/111 114/114/114 114/114/114 
f 114/114/114 114/114/114 105/105/105 
f 114/114/114 105/105/105 105/105/105 
f 105/105/105 105/105/105 112/112/112 
f 105/105/105 103/103/103 112/112/112 
f 112/112/112 103/103/103 103/103/103 
f 103/103/103 129/129/129 103/103/103 
f 103/103/103 129/129/129 129/129/129 
f 129/129/129 127/127/127 129/129/129 
f 129/129/129 127/127/127 132/132/132 
f 127/127/127 125/125/125 132/132/132 
f 132/132/132 125/125/125 133/133/133 
f 125/125/125 123/123/123 133/133/133 
f 133/133/133 123/123/123 133/133/133 
f 123/123/123 121/121/121 133/133/133 
f 133/133/133 121/121/121 134/134/134 
f 121/121/121 119/119/119 134/134/134 
f 134/134/134 119/119/119 119/119/119 
f 119/119/119 134/134/134 119/119/119 
f 119/119/119 134/134/134 134/134/134 
f 134/134/134 135/135/135 134/134/134 
f 134/134/134 135/135/135 133/133/133 
f 135/135/135 135/135/135 133/133/133 
f 133/133/133 135/135/135 132/132/132 
f 135/135/135 136/136/136 132/132/132 
f 132/132/132 136/136/136 129/129/129 
f 136/136/136 137/137/137 129/129/129 
f 129/129/129 137/137/137 130/130/130 
f 137/137/137 138/138/138 130/130/130 
f 130/130/130 138/138/138 139/139/139 
f 138/138/138 140/140/140 139/139/139 
f 139/139/139 140/140/140 141/141/141 
f 140/140/140 142/142/142 141/141/141 
f 141/141/141 142/142/142 143/143/143 
f 142/142/142 142/142/142 143/143/143 
f 143/143/143 142/142/142 144/144/144 
f 142/142/142 145/145/145 144/144/144 
f 144/144/144 145/145/145 146/146/146 
f 145/145/145 101/101/101 146/146/146 
f 146/146/146 101/101/101 97/97/97 
f 101/101/101 97/97/97 97/97/97 
f 97/97/97 97/97/97 137/137/137 
f 97/97/97 137/137/137 137/137/137 
f 137/137/137 137/137/137 138/138/138 
f 137/137/137 136/136/136 138/138/138 
f 138/138/138 136/136/136 147/147/147 
f 136/136/136 135/135/135 147/147/147 
f 147/147/147 135/135/135 135/135/135 
f 135/135/135 138/138/138 135/135/135 
f 135/135/135 138/138/138 138/138/138 
f 138/138/138 147/147/147 138/138/138 
f 138/138/138 147/147/147 140/140/140 
f 147/147/147 148/148/148 140/140/140 
f 140/140/140 148/148/148 142/142/142 
f 148/148/148 148/148/148 142/142/142 
f 142/142/142 148/148/148 145/145/145 
f 148/148/148 102/102/102 145/145/145 
f 145/145/145 102/102/102 101/101/101 
f 102/102/102 101/101/101 101/101/101 
f 101/101/101 101/101/101 147/147/147 
f 101/101/101 147/147/147 147/147/147 
f 147/147/147 147/147/147 148/148/148 
f 147/147/147 149/149/149 148/148/148 
f 148/148/148 149/149/149 102/102/102 
f 149/149/149 149/149/149 102/102/102 
f 102/102/102 149/149/149 103/103/103 
f 149/149/149 150/150/150 103/103/103 
f 103/103/103 150/150/150 112/112/112 
f 150/150/150 150/150/150 112/112/112 
f 112/112/112 150/150/150 113/113/113 
f 150/150/150 150/150/150 113/113/113 
f 113/113/113 150/150/150 116/116/116 
f 150/150/150 150/150/150 116/116/116 
f 116/116/116 150/150/150 119/119/119 
f 150/150/150 150/150/150 119/119/119 
f 119/119/119 150/150/150 134/134/134 
f 150/150/150 150/150/150 134/134/134 
f 134/134/134 150/150/150 135/135/135 
f 150/150/150 149/149/149 135/135/135 
f 135/135/135 149/149/149 147/147/147 
f 149/149/149 147/147/147 147/147/147 
f 147/147/147 147/147/147 151/151/151 
f 147/147/147 151/151/151 151/151/151 
f 151/151/151 151/151/151 152/152/152 
f 151/151/151 153/153/153 152/152/152 
f 152/152/152 153/153/153 152/152/152 
f 153/153/153 154/154/154 152/152/152 
f 152/152/152 154/154/154 155/155/155 
f 154/154/154 154/154/154 155/155/155 
f 155/155/155 154/154/154 156/156/156 
f 154/154/154 154/154/154 156/156/156 
f 156/156/156 154/154/154 157/157/157 
f 154/154/154 158/158/158 157/157/157 
f 157/157/157 158/158/158 159/159/159 
f 158/158/158 158/158/158 159/159/159 
f 159/159/159 158/158/158 160/160/160 
f 158/158/158 161/161/161 160/160/160 
f 160/160/160 161/161/161 162/162/162 
f 161/161/161 161/161/161 162/162/162 
f 162/162/162 161/161/161 163/163/163 
f 161/161/161 161/161/161 163/163/163 
f 163/163/163 161/161/161 164/164/164 
f 161/161/161 165/165/165 164/164/164 
f 164/164/164 165/165/165 166/166/166 
f 165/165/165 166/166/166 166/166/166 
f 166/166/166 166/166/166 167/167/167 
f 166/166/166 167/167/167 167/167/167 
f 167/167/167 167/167/167 168/168/168 
f 167/167/167 169/169/169 168/168/168 
f 168/168/168 169/169/169 168/168/168 
f 169/169/169 170/170/170 168/168/168 
f 168/168/168 170/170/170 168/168/168 
f 170/170/170 171/171/171 168/168/168 
f 168/168/168 171/171/171 172/172/172 
f 171/171/171 173/173/173 172/172/172 
f 172/172/172 173/173/173 172/172/172 
f 173/173/173 174/174/174 172/172/172 
f 172/172/172 174/174/174 175/175/175 
f 174/174/174 174/174/174 175/175/175 
f 175/175/175 174/174/174 176/176/176 
f 174/174/174 174/174/174 176/176/176 
f 176/176/176 174/174/174 177/177/177 
f 174/174/174 173/173/173 177/177/177 
f 177/177/177 173/173/173 178/178/178 
f 173/173/173 173/173/173 178/178/178 
f 178/178/178 173/173/173 179/179/179 
f 173/173/173 171/171/171 179/179/179 
f 179/179/179 171/171/171 180/180/180 
f 171/171/171 171/171/171 180/180/180 
f 180/180/180 171/171/171 181/181/181 
f 171/171/171 170/170/170 181/181/181 
f 181/181/181 170/170/170 182/182/182 
f 170/170/170 183/183/183 182/182/182 
f 182/182/182 183/183/183 184/184/184 
f 183/183/183 184/184/184 184/184/184 
f 184/184/184 184/184/184 170/170/170 
f 184/184/184 170/170/170 170/170/170 
f 170/170/170 170/170/170 183/183/183 
f 170/170/170 169/169/169 183/183/183 
f 183/183/183 169/169/169 185/185/185 
f 169/169/169 169/169/169 185/185/185 
f 185/185/185 169/169/169 186/186/186 
f 169/169/169 167/167/167 186/186/186 
f 186/186/186 167/167/167 167/167/167 
f 167/167/167 167/167/167 167/167/167 
f 167/167/167 167/167/167 167/167/167 
f 167/167/167 168/168/168 167/167/167 
f 167/167/167 168/168/168 187/187/187 
f 168/168/168 172/172/172 187/187/187 
f 187/187/187 172/172/172 175/175/175 
f 172/172/172 175/175/175 175/175/175 
f 175/175/175 175/175/175 185/185/185 
f 175/175/175 185/185/185 185/185/185 
f 185/185/185 185/185/185 183/183/183 
f 185/185/185 188/188/188 183/183/183 
f 183/183/183 188/188/188 184/184/184 
f 188/188/188 189/189/189 184/184/184 
f 184/184/184 189/189/189 190/190/190 
f 189/189/189 190/190/190 190/190/190 
f 190/190/190 190/190/190 189/189/189 
f 190/190/190 189/189/189 189/189/189 
f 189/189/189 189/189/189 191/191/191 
f 189/189/189 188/188/188 191/191/191 
f 191/191/191 188/188/188 191/191/191 
f 188/188/188 185/185/185 191/191/191 
f 191/191/191 185/185/185 192/192/192 
f 185/185/185 186/186/186 192/192/192 
f 192/192/192 186/186/186 193/193/193 
f 186/186/186 167/167/167 193/193/193 
f 193/193/193 167/167/167 193/193/193 
f 167/167/167 187/187/187 193/193/193 
f 193/193/193 187/187/187 194/194/194 
f 187/187/187 175/175/175 194/194/194 
f 194/194/194 175/175/175 194/194/194 
f 175/175/175 176/176/176 194/194/194 
f 194/194/194 176/176/176 195/195/195 
f 176/176/176 176/176/176 195/195/195 
f 195/195/195 176/176/176 196/196/196 
f 176/176/176 177/177/177 196/196/196 
f 196/196/196 177/177/177 197/197/197 
f 177/177/177 178/178/178 197/197/197 
f 197/197/197 178/178/178 198/198/198 
f 178/178/178 199/199/199 198/198/198 
f 198/198/198 199/199/199 200/200/200 
f 199/199/199 201/201/201 200/200/200 
f 200/200/200 201/201/201 200/200/200 
f 201/201/201 202/202/202 200/200/200 
f 200/200/200 202/202/202 200/200/200 
f 202/202/202 203/203/203 200/200/200 
f 200/200/200 203/203/203 200/200/200 
f 203/203/203 204/204/204 200/200/200 
f 200/200/200 204/204/204 200/200/200 
f 204/204/204 205/205/205 200/200/200 
f 200/200/200 205/205/205 198/198/198 
f 205/205/205 206/206/206 198/198/198 
f 198/198/198 206/206/206 197/197/197 
f 206/206/206 207/207/207 197/197/197 
f 197/197/197 207/207/207 196/196/196 
f 207/207/207 208/208/208 196/196/196 
f 196/196/196 208/208/208 195/195/195 
f 208/208/208 209/209/209 195/195/195 
f 195/195/195 209/209/209 195/195/195 
f 209/209/209 210/210/210 195/195/195 
f 195/195/195 210/210/210 194/194/194 
f 210/210/210 210/210/210 194/194/194 
f 194/194/194 210/210/210 193/193/193 
f 210/210/210 210/210/210 193/193/193 
f 193/193/193 210/210/210 192/192/192 
f 210/210/210 211/211/211 192/192/192 
f 192/192/192 211/211/211 191/191/191 
f 211/211/211 212/212/212 191/191/191 
f 191/191/191 212/212/212 189/189/189 
f 212/212/212 213/213/213 189/189/189 
f 189/189/189 213/213/213 190/190/190 
f 213/213/213 213/213/213 190/190/190 
f 190/190/190 213/213/213 214/214/214 
f 213/213/213 215/215/215 214/214/214 
f 214/214/214 215/215/215 216/216/216 
f 215/215/215 216/216/216 216/216/216 
f 216/216/216 216/216/216 178/178/178 
f 216/216/216 178/178/178 178/178/178 
f 178/178/178 178/178/178 199/199/199 
f 178/178/178 179/179/179 199/199/199 
f 199/199/199 179/179/179 217/217/217 
f 179/179/179 180/180/180 217/217/217 
f 217/217/217 180/180/180 180/180/180 
f 180/180/180 217/217/217 180/180/180 
f 180/180/180 217/217/217 217/217/217 
f 217/217/217 201/201/201 217/217/217 
f 217/217/217 201/201/201 199/199/199 
f 201/201/201 199/199/199 199/199/199 
f 199/199/199 199/199/199 215/215/215 
f 199/199/199 215/215/215 215/215/215 
f 215/215/215 215/215/215 218/218/218 
f 215/215/215 213/213/213 218/218/218 
f 218/218/218 213/213/213 218/218/218 
f 213/213/213 212/212/212 218/218/218 
f 218/218/218 212/212/212 218/218/218 
f 212/212/212 211/211/211 218/218/218 
f 218/218/218 211/211/211 219/219/219 
f 211/211/211 210/210/210 219/219/219 
f 219/219/219 210/210/210 209/209/209 
f 210/210/210 209/209/209 209/209/209 
f 209/209/209 209/209/209 220/220/220 
f 209/209/209 220/220/220 220/220/220 
f 220/220/220 220/220/220 221/221/221 
f 220/220/220 222/222/222 221/221/221 
f 221/221/221 222/222/222 223/223/223 
f 222/222/222 224/224/224 223/223/223 
f 223/223/223 224/224/224 225/225/225 
f 224/224/224 226/226/226 225/225/225 
f 225/225/225 226/226/226 226/226/226 
f 226/226/226 221/221/221 226/226/226 
f 226/226/226 221/221/221 221/221/221 
f 221/221/221 223/223/223 221/221/221 
f 221/221/221 223/223/223 225/225/225 
f 223/223/223 225/225/225 225/225/225 
f 225/225/225 225/225/225 222/222/222 
f 225/225/225 222/222/222 222/222/222 
f 222/222/222 222/222/222 227/227/227 
f 222/222/222 220/220/220 227/227/227 
f 227/227/227 220/220/220 227/227/227 
f 220/220/220 228/228/228 227/227/227 
f 227/227/227 228/228/228 229/229/229 
f 228/228/228 230/230/230 229/229/229 
f 229/229/229 230/230/230 231/231/231 
f 230/230/230 232/232/232 231/231/231 
f 231/231/231 232/232/232 233/233/233 
f 232/232/232 234/234/234 233/233/233 
f 233/233/233 234/234/234 235/235/235 
f 234/234/234 236/236/236 235/235/235 
f 235/235/235 236/236/236 236/236/236 
f 236/236/236 227/227/227 236/236/236 
f 236/236/236 227/227/227 227/227/227 
f 227/227/227 237/237/237 227/227/227 
f 227/227/227 237/237/237 222/222/222 
f 237/237/237 224/224/224 222/222/222 
f 222/222/222 224/224/224 224/224/224 
f 224/224/224 227/227/227 224/224/224 
f 224/224/224 227/227/227 227/227/227 
f 227/227/227 229/229/229 227/227/227 
f 227/227/227 229/229/229 237/237/237 
f 229/229/229 238/238/238 237/237/237 
f 237/237/237 238/238/238 239/239/239 
f 238/238/238 238/238/238 239/239/239 
f 239/239/239 238/238/238 240/240/240 
f 238/238/238 233/233/233 240/240/240 
f 240/240/240 233/233/233 235/235/235 
f 233/233/233 235/235/235 235/235/235 
f 235/235/235 235/235/235 229/229/229 
f 235/235/235 229/229/229 229/229/229 
f 229/229/229 229/229/229 238/238/238 
f 229/229/229 231/231/231 238/238/238 
f 238/238/238 231/231/231 233/233/233 
f 231/231/231 233/233/233 233/233/233 
f 233/233/233 233/233/233 237/237/237 
f 233/233/233 237/237/237 237/237/237 
f 237/237/237 237/237/237 224/224/224 
f 237/237/237 239/239/239 224/224/224 
f 224/224/224 239/239/239 226/226/226 
f 239/239/239 241/241/241 226/226/226 
f 226/226/226 241/241/241 226/226/226 
f 241/241/241 242/242/242 226/226/226 
f 226/226/226 242/242/242 243/243/243 
f 242/242/242 244/244/244 243/243/243 
f 243/243/243 244/244/244 244/244/244 
f 244/244/244 241/241/241 244/244/244 
f 244/244/244 241/241/241 241/241/241 
f 241/241/241 239/239/239 241/241/241 
f 241/241/241 239/239/239 245/245/245 
f 239/239/239 240/240/240 245/245/245 
f 245/245/245 240/240/240 245/245/245 
f 240/240/240 235/235/235 245/245/245 
f 245/245/245 235/235/235 246/246/246 
f 235/235/235 236/236/236 246/246/246 
f 246/246/246 236/236/236 247/247/247 
f 236/236/236 247/247/247 247/247/247 
f 247/247/247 247/247/247 226/226/226 
f 247/247/247 226/226/226 226/226/226 
f 226/226/226 226/226/226 225/225/225 
f 226/226/226 243/243/243 225/225/225 
f 225/225/225 243/243/243 248/248/248 
f 243/243/243 243/243/243 248/248/248 
f 248/248/248 243/243/243 249/249/249 
f 243/243/243 244/244/244 249/249/249 
f 249/249/249 244/244/244 250/250/250 
f 244/244/244 250/250/250 250/250/250 
f 250/250/250 250/250/250 221/221/221 
f 250/250/250 221/221/221 221/221/221 
f 221/221/221 221/221/221 248/248/248 
f 221/221/221 225/225/225 248/248/248 

