# Blender 5.1.0
# www.blender.org
mtllib model_0.mtl
o model_0
v 0.054221 0.014940 -0.086135
v 0.056208 0.056831 -0.097865
v 0.103658 0.055152 -0.094123
v 0.100016 0.091452 -0.077558
v 0.146857 0.085816 -0.056661
v 0.151559 0.052347 -0.069768
v 0.152350 0.050115 -0.055484
v 0.144531 0.013642 -0.060593
v 0.145372 0.016500 -0.048256
v 0.175907 0.046343 -0.038155
v 0.165892 0.014053 -0.023423
v 0.189859 0.042500 -0.003821
v 0.183924 0.017942 -0.000099
v 0.183319 0.022489 0.005798
v 0.187338 0.042156 0.004063
v 0.207169 0.039382 0.028122
v 0.203085 0.018827 0.031213
v 0.214832 0.019246 0.072225
v 0.216660 0.033531 0.077194
v 0.201651 0.016777 0.081594
v 0.201855 0.030781 0.091875
v 0.184670 0.018662 0.086319
v 0.184292 0.030962 0.097317
v 0.177963 0.021615 0.085999
v 0.176404 0.033238 0.091102
v 0.185772 0.045358 0.095342
v 0.202092 0.046227 0.092218
v 0.214967 0.048018 0.078906
v 0.203997 0.056199 0.033549
v 0.183319 0.060172 0.009717
v 0.185101 0.064368 0.003970
v 0.178217 0.074151 0.016318
v 0.198815 0.071546 0.040713
v 0.211381 0.061910 0.078522
v 0.201902 0.062545 0.086118
v 0.098899 0.013429 -0.074219
v 0.047138 0.013447 -0.095926
v 0.188941 0.074047 0.050609
v 0.169798 0.077753 0.027386
v 0.178584 0.080020 0.012768
v 0.187288 0.059578 0.089846
v 0.175880 0.069491 0.062421
v 0.157137 0.073072 0.043664
v 0.168184 0.083552 0.027773
v 0.179167 0.051306 0.090382
v 0.166336 0.057014 0.070101
v 0.147555 0.059966 0.054782
v 0.154044 0.077439 0.047374
v 0.147659 0.094288 0.015945
v 0.159325 0.091517 -0.005720
v 0.169260 0.073586 -0.025254
v 0.147289 0.079831 -0.044165
v 0.138112 0.111309 -0.036073
v 0.138409 0.102211 -0.027589
v 0.125292 0.105689 -0.000323
v 0.123213 0.114688 -0.002634
v 0.095006 0.118354 -0.050280
v 0.054998 0.092659 -0.083290
v 0.048166 0.098176 -0.092589
v 0.049427 0.059177 -0.109969
v 0.000218 0.010866 -0.098529
v 0.000126 0.060727 -0.131404
v -0.049014 0.059176 -0.109964
v -0.046805 0.013418 -0.095646
v -0.055884 0.056830 -0.097850
v -0.053889 0.014967 -0.086394
v -0.103316 0.055173 -0.094326
v -0.098577 0.013442 -0.074340
v -0.151395 0.052356 -0.069854
v -0.144177 0.013638 -0.060557
v -0.152047 0.050127 -0.055601
v -0.145122 0.016538 -0.048616
v -0.175634 0.046360 -0.038314
v -0.165806 0.014063 -0.023521
v -0.189830 0.042504 -0.003860
v -0.183556 0.017950 -0.000178
v -0.182891 0.022513 0.005566
v -0.187179 0.042161 0.004014
v -0.206859 0.039381 0.028132
v -0.202636 0.018844 0.031041
v -0.214884 0.019261 0.072082
v -0.216191 0.033528 0.077223
v -0.201187 0.016789 0.081482
v -0.201578 0.030807 0.091631
v -0.184252 0.018674 0.086210
v -0.184206 0.030979 0.097156
v -0.177731 0.021622 0.085931
v -0.175982 0.033244 0.091044
v -0.185438 0.045362 0.095303
v -0.201591 0.046228 0.092208
v -0.214749 0.048033 0.078763
v -0.203589 0.056215 0.033397
v -0.183142 0.060171 0.009720
v -0.184667 0.064369 0.003962
v -0.168881 0.073580 -0.025189
v -0.146764 0.079845 -0.044302
v -0.146601 0.085816 -0.056665
v -0.099577 0.091438 -0.077425
v 0.052844 0.121043 -0.057850
v -0.137713 0.111339 -0.036361
v -0.138262 0.102230 -0.027776
v -0.159146 0.091522 -0.005777
v -0.178379 0.080011 0.012852
v -0.178073 0.074172 0.016117
v -0.198427 0.071564 0.040541
v -0.211126 0.061909 0.078532
v -0.201610 0.062527 0.086291
v -0.186805 0.059588 0.089746
v -0.178987 0.051325 0.090202
v -0.162173 0.034789 0.071625
v -0.165270 0.020354 0.066795
v -0.146907 0.021514 0.051723
v -0.143372 0.036319 0.057567
v -0.143014 0.018039 0.057063
v -0.139214 0.035248 0.063949
v -0.119163 0.014424 0.058527
v -0.114992 0.034876 0.068174
v -0.093038 0.012601 0.059078
v -0.088071 0.035563 0.071360
v -0.087159 0.008586 0.067003
v -0.082165 0.034829 0.081680
v -0.062806 0.007773 0.068286
v -0.059318 0.035147 0.084498
v -0.041388 0.007183 0.072006
v -0.039830 0.035547 0.089790
v -0.036700 0.004404 0.079791
v -0.035459 0.035282 0.099522
v 0.000021 0.003951 0.080229
v -0.000008 0.034746 0.100105
v 0.035852 0.035262 0.099719
v 0.036899 0.004391 0.079917
v 0.040211 0.035551 0.089753
v 0.041537 0.007180 0.072030
v 0.059559 0.035128 0.084687
v 0.063109 0.007757 0.068444
v 0.082243 0.034827 0.081698
v 0.087592 0.008586 0.067001
v 0.088294 0.035541 0.071572
v 0.093076 0.012595 0.059139
v 0.115383 0.034872 0.068216
v 0.119690 0.014419 0.058569
v 0.139494 0.035211 0.064298
v 0.143234 0.018054 0.056915
v 0.143643 0.036302 0.057734
v 0.146974 0.021519 0.051676
v 0.162317 0.034795 0.071570
v 0.165582 0.020333 0.066994
v 0.143815 0.061942 0.060586
v 0.131765 0.086252 0.043585
v 0.120350 0.067150 0.062739
v 0.093895 0.073204 0.063285
v 0.088411 0.077054 0.071965
v 0.063332 0.079261 0.073591
v 0.041244 0.082100 0.076977
v 0.036434 0.085644 0.085338
v 0.000151 0.085123 0.085775
v -0.036146 0.085649 0.085294
v 0.000199 0.116577 0.042531
v 0.039115 0.116999 0.042382
v 0.044496 0.110759 0.038405
v 0.072659 0.106501 0.038867
v 0.103389 0.102870 0.041141
v 0.107328 0.095692 0.037036
v 0.085377 0.119315 -0.009910
v 0.049075 0.124414 -0.016501
v 0.042936 0.131998 -0.018260
v 0.046635 0.129088 -0.064698
v 0.000260 0.107120 -0.104163
v -0.047986 0.098182 -0.092654
v -0.054633 0.092646 -0.083163
v -0.094415 0.118361 -0.050350
v -0.052555 0.121082 -0.058232
v -0.046210 0.129094 -0.064753
v 0.000189 0.138858 -0.068543
v 0.000197 0.133044 -0.018523
v -0.038889 0.116979 0.042581
v -0.042449 0.132012 -0.018396
v -0.048942 0.124419 -0.016546
v -0.084970 0.119349 -0.010234
v -0.122849 0.114709 -0.002829
v -0.124924 0.105700 -0.000427
v -0.147240 0.094291 0.015910
v -0.107107 0.095705 0.036913
v -0.102990 0.102877 0.041070
v -0.072330 0.106492 0.038962
v -0.044196 0.110774 0.038258
v -0.040834 0.082113 0.076851
v -0.063178 0.079291 0.073300
v -0.088206 0.077052 0.071987
v -0.093661 0.073213 0.063195
v -0.119945 0.067157 0.062666
v -0.131679 0.086267 0.043440
v -0.154083 0.077447 0.047298
v -0.168092 0.083547 0.027818
v -0.169361 0.077754 0.027369
v -0.188883 0.074053 0.050549
v -0.175660 0.069508 0.062261
v -0.156758 0.073093 0.043465
v -0.147344 0.059969 0.054747
v -0.166210 0.057014 0.070105
v -0.143623 0.061954 0.060470
v 0.000021 0.003951 0.080229
v 0.036899 0.004391 0.079917
v 0.000222 -0.005054 0.044077
v 0.039138 -0.004698 0.043921
v 0.041537 0.007180 0.072030
v 0.044333 -0.001275 0.039736
v 0.063109 0.007757 0.068444
v 0.070272 -0.000488 0.039347
v 0.087592 0.008586 0.067001
v 0.098779 0.000523 0.040727
v 0.093076 0.012595 0.059139
v 0.103472 0.005778 0.037206
v 0.119690 0.014419 0.058569
v 0.128290 0.007743 0.041809
v 0.143234 0.018054 0.056915
v 0.151136 0.012293 0.045067
v 0.146974 0.021519 0.051676
v 0.154309 0.017105 0.041890
v 0.165582 0.020333 0.066994
v 0.173117 0.015286 0.059381
v 0.184670 0.018662 0.086319
v 0.201651 0.016777 0.081594
v 0.188690 0.013703 0.044568
v 0.214832 0.019246 0.072225
v 0.203085 0.018827 0.031213
v 0.169467 0.016358 0.021658
v 0.183319 0.022489 0.005798
v 0.167853 0.011073 0.020892
v 0.147329 0.006897 0.007513
v 0.125148 0.005680 -0.008856
v 0.122553 0.000429 -0.013203
v 0.085312 -0.000264 -0.020900
v 0.049605 -0.000687 -0.027931
v 0.177963 0.021615 0.085999
v 0.098899 0.013429 -0.074219
v 0.144531 0.013642 -0.060593
v 0.145372 0.016500 -0.048256
v 0.165892 0.014053 -0.023423
v 0.183924 0.017942 -0.000099
v 0.054221 0.014940 -0.086135
v 0.043466 -0.003783 -0.030801
v 0.047138 0.013447 -0.095926
v 0.000218 0.010866 -0.098529
v 0.000052 -0.004043 -0.030913
v -0.038787 -0.004675 0.043703
v -0.036700 0.004404 0.079791
v -0.041388 0.007183 0.072006
v -0.043936 -0.001255 0.039539
v -0.062806 0.007773 0.068286
v -0.069889 -0.000459 0.039066
v -0.087159 0.008586 0.067003
v -0.098526 0.000517 0.040789
v -0.093038 0.012601 0.059078
v -0.103330 0.005780 0.037186
v -0.119163 0.014424 0.058527
v -0.127944 0.007743 0.041816
v -0.143014 0.018039 0.057063
v -0.150800 0.012294 0.045062
v -0.146907 0.021514 0.051723
v -0.154069 0.017089 0.042047
v -0.165270 0.020354 0.066795
v -0.172656 0.015289 0.059344
v -0.184252 0.018674 0.086210
v -0.201187 0.016789 0.081482
v -0.188539 0.013695 0.044641
v -0.214884 0.019261 0.072082
v -0.202636 0.018844 0.031041
v -0.169096 0.016346 0.021773
v -0.182891 0.022513 0.005566
v -0.177731 0.021622 0.085931
v -0.167575 0.011079 0.020835
v -0.183556 0.017950 -0.000178
v -0.146975 0.006887 0.007610
v -0.165806 0.014063 -0.023521
v -0.124896 0.005672 -0.008777
v -0.145122 0.016538 -0.048616
v -0.122491 0.000441 -0.013317
v -0.144177 0.013638 -0.060557
v -0.098577 0.013442 -0.074340
v -0.084863 -0.000250 -0.021040
v -0.049431 -0.000674 -0.028058
v -0.053889 0.014967 -0.086394
v -0.043189 -0.003785 -0.030785
v -0.046805 0.013418 -0.095646
vn -0.3362 -0.9341 0.1199
vn -0.0342 -0.9893 0.1420
vn -0.2630 -0.9595 -0.1007
vn -0.2496 -0.9610 -0.1194
vn -0.3352 -0.9302 0.1494
vn 0.0009 -0.9935 -0.1135
vn 0.0014 -0.7731 -0.6342
vn -0.4103 -0.6407 -0.6489
vn -0.4361 -0.7174 -0.5433
vn -0.1901 -0.7665 -0.6135
vn -0.0419 -0.9925 -0.1149
vn -0.4564 -0.8295 0.3220
vn -0.5311 -0.6811 0.5040
vn -0.4444 -0.7477 0.4934
vn -0.5397 -0.7855 0.3028
vn -0.1485 -0.9889 -0.0082
vn -0.0969 -0.9630 0.2514
vn -0.4733 -0.8713 0.1300
vn -0.4966 -0.7937 0.3513
vn -0.4309 -0.8997 0.0694
vn -0.6226 -0.6435 -0.4452
vn -0.7458 -0.6407 -0.1824
vn -0.5106 -0.7833 -0.3545
vn -0.7858 -0.6141 -0.0730
vn -0.8580 -0.5130 0.0260
vn -0.5301 -0.8004 0.2801
vn -0.0855 -0.9944 -0.0621
vn 0.1894 -0.9704 0.1498
vn 0.5302 -0.7086 0.4656
vn 0.5585 -0.6268 0.5433
vn 0.1187 -0.8404 0.5287
vn 0.0014 -0.9935 0.1140
vn 0.0012 -0.8149 0.5796
vn -0.4557 -0.6941 0.5573
vn 0.3361 -0.9338 0.1227
vn 0.3347 -0.9300 0.1520
vn 0.2481 -0.9619 -0.1148
vn 0.2614 -0.9597 -0.1033
vn -0.6303 -0.6867 -0.3623
vn -0.7754 -0.6033 0.1865
vn -0.2958 -0.8284 0.4758
vn -0.4015 -0.4815 0.7791
vn -0.4785 -0.4879 0.7300
vn -0.0988 -0.7122 0.6950
vn -0.5941 -0.4732 0.6505
vn -0.4556 -0.6231 0.6357
vn -0.0864 -0.7908 0.6060
vn -0.5578 -0.6762 0.4814
vn 0.4068 -0.6417 -0.6502
vn 0.4350 -0.7155 -0.5467
vn 0.1874 -0.7655 -0.6156
vn 0.7855 -0.6150 -0.0698
vn 0.8601 -0.5094 0.0263
vn 0.5390 -0.7855 0.3042
vn 0.1486 -0.9888 -0.0122
vn 0.5109 -0.7827 -0.3553
vn 0.4737 -0.8711 0.1295
vn 0.7469 -0.6391 -0.1836
vn 0.4326 -0.8990 0.0686
vn 0.6242 -0.6408 -0.4470
vn 0.0410 -0.9926 -0.1147
vn 0.0846 -0.9946 -0.0598
vn 0.4470 -0.7476 0.4912
vn 0.5284 -0.8015 0.2801
vn -0.1863 -0.9710 0.1495
vn -0.1220 -0.8394 0.5296
vn -0.5577 -0.6302 0.5402
vn -0.5335 -0.7089 0.4612
vn 0.0307 -0.9896 0.1404
vn 0.4603 -0.8271 0.3226
vn 0.4985 -0.7928 0.3507
vn 0.0938 -0.9632 0.2519
vn 0.5288 -0.6795 0.5086
vn 0.6315 -0.6847 -0.3639
vn 0.7740 -0.6053 0.1859
vn 0.2923 -0.8297 0.4755
vn 0.3970 -0.4837 0.7800
vn 0.4791 -0.4869 0.7304
vn 0.0986 -0.7139 0.6933
vn 0.5938 -0.4710 0.6523
vn 0.4545 -0.6253 0.6344
vn 0.0897 -0.7899 0.6067
vn 0.5563 -0.6762 0.4830
vn 0.4516 -0.6974 0.5565
vn -0.4841 0.2286 0.8446
vn -0.2880 -0.1214 0.9499
vn -0.4772 -0.1059 0.8724
vn -0.1210 -0.1364 0.9832
vn -0.6227 -0.0959 0.7766
vn -0.6148 0.2423 0.7506
vn -0.1343 0.4192 0.8979
vn -0.1871 0.7826 0.5938
vn -0.5328 0.4859 0.6928
vn -0.3327 0.2674 0.9043
vn 0.6018 0.4766 0.6409
vn 0.7191 -0.1124 0.6857
vn 0.6039 0.3504 0.7159
vn 0.1911 0.6561 0.7301
vn 0.2451 0.8745 0.4184
vn -0.4483 0.5645 0.6931
vn -0.6206 0.6344 0.4608
vn -0.6055 0.6753 0.4211
vn -0.1319 0.9779 0.1624
vn -0.0962 0.8826 0.4602
vn -0.5010 0.6638 0.5553
vn -0.4765 0.3764 0.7945
vn -0.1442 0.5305 0.8353
vn -0.5392 0.7435 0.3956
vn -0.6518 0.4145 0.6351
vn -0.3033 0.6890 0.6583
vn -0.7534 0.5820 0.3060
vn -0.6203 0.7576 -0.2030
vn -0.8446 0.5216 0.1208
vn -0.8040 0.5871 0.0945
vn -0.3228 0.9124 0.2516
vn -0.6040 0.5408 0.5854
vn -0.4652 -0.1253 0.8763
vn -0.1810 -0.1466 0.9725
vn -0.7073 -0.0956 0.7005
vn -0.4743 0.4873 0.7332
vn -0.4301 0.8028 0.4129
vn -0.4795 0.8688 0.1239
vn -0.1054 0.9839 0.1440
vn -0.5428 0.7835 0.3024
vn -0.6652 0.6555 0.3574
vn -0.4094 0.9066 0.1023
vn -0.0001 0.9907 0.1363
vn -0.5743 0.8092 -0.1238
vn -0.8432 0.5291 0.0949
vn -0.6760 0.7261 -0.1254
vn -0.1884 0.9039 -0.3840
vn -0.5790 0.7520 -0.3150
vn -0.5291 0.7867 -0.3179
vn 0.4351 -0.7153 -0.5468
vn 0.5803 0.0389 -0.8135
vn 0.2845 0.0087 -0.9586
vn 0.2440 0.5643 -0.7887
vn 0.0026 0.9528 -0.3035
vn 0.7942 0.4354 -0.4240
vn 0.8003 0.0017 -0.5996
vn 0.9121 0.0274 -0.4091
vn 0.6242 -0.6407 -0.4470
vn -0.0036 0.9011 0.4336
vn 0.7471 -0.6388 -0.1839
vn 0.7927 0.0103 -0.6095
vn 0.5110 -0.7827 -0.3553
vn 0.9931 -0.0260 -0.1145
vn 0.7855 -0.6149 -0.0698
vn 0.8603 -0.5091 0.0261
vn 0.9916 0.0134 -0.1284
vn 0.4309 0.8008 0.4160
vn 0.8952 0.0387 -0.4439
vn 0.4098 0.9063 0.1032
vn 0.7739 -0.6054 0.1858
vn 0.9463 -0.0926 0.3098
vn 0.4652 -0.2927 0.8354
vn -0.1218 -0.8392 0.5300
vn -0.1662 -0.2572 0.9519
vn -0.5578 -0.6299 0.5404
vn 0.5311 0.7851 -0.3187
vn -0.7163 -0.1022 0.6903
vn -0.1533 0.1991 0.9679
vn 0.4443 0.1437 0.8843
vn 0.9392 0.1606 0.3035
vn 0.0027 0.5989 -0.8009
vn 0.8518 0.3596 -0.3809
vn 0.9457 0.3078 -0.1043
vn 0.9430 0.3324 -0.0157
vn -0.5952 0.4512 -0.6649
vn 0.8425 0.5245 0.1225
vn 0.6191 0.7588 -0.2022
vn 0.7558 0.5796 0.3046
vn 0.3034 0.6908 0.6563
vn -0.5672 0.4597 -0.6833
vn 0.1931 0.9033 -0.3832
vn 0.5788 0.7530 -0.3130
vn 0.4771 0.8696 0.1273
vn 0.1085 0.9840 0.1414
vn 0.5443 0.7825 0.3025
vn -0.2462 0.5669 -0.7861
vn -0.5801 0.0399 -0.8136
vn -0.6026 0.0177 -0.7979
vn 0.0004 -0.0169 -0.9999
vn 0.6038 0.0146 -0.7970
vn 0.5992 0.4468 -0.6643
vn 0.1307 0.9781 0.1617
vn 0.6087 0.6746 0.4177
vn 0.8042 0.5871 0.0929
vn 0.5388 0.7427 0.3977
vn -0.1904 0.6590 0.7276
vn 0.0983 0.8814 0.4621
vn -0.2428 0.8751 0.4186
vn 0.4509 0.5635 0.6922
vn 0.6194 0.6360 0.4602
vn 0.5010 0.6622 0.5573
vn 0.6029 0.5394 0.5878
vn -0.6036 0.3516 0.7156
vn 0.6611 0.6571 0.3621
vn 0.3232 0.9119 0.2529
vn 0.1857 0.7830 0.5937
vn 0.1378 0.4235 0.8954
vn -0.6057 0.4728 0.6400
vn 0.6155 0.2426 0.7499
vn 0.3290 0.2636 0.9068
vn 0.5317 0.4890 0.6915
vn 0.5725 0.8105 -0.1235
vn 0.7218 0.5443 -0.4275
vn 0.4776 0.3718 0.7960
vn 0.8957 0.3848 -0.2227
vn 0.6766 0.7254 -0.1263
vn 0.1414 0.5278 0.8375
vn 0.6508 0.4126 0.6374
vn 0.8433 0.5283 0.0985
vn 0.5679 0.4622 -0.6810
vn 0.4706 0.4879 0.7352
vn 0.0014 -0.7731 -0.6343
vn 0.0020 0.5711 0.8209
vn -0.4362 -0.7173 -0.5434
vn -0.2874 0.0091 -0.9578
vn -0.8013 0.0060 -0.5982
vn -0.6226 -0.6435 -0.4453
vn -0.9125 0.0273 -0.4083
vn -0.7460 -0.6404 -0.1826
vn -0.7903 0.0078 -0.6127
vn -0.9929 -0.0297 -0.1152
vn -0.8582 -0.5127 0.0259
vn -0.9912 0.0174 -0.1312
vn 0.4865 0.2247 0.8443
vn -0.8959 0.0422 -0.4423
vn -0.6304 -0.6866 -0.3622
vn -0.4884 -0.1169 0.8647
vn -0.7753 -0.6035 0.1865
vn -0.9472 -0.0926 0.3069
vn -0.2958 -0.8283 0.4758
vn -0.4647 -0.2940 0.8352
vn 0.1185 -0.8402 0.5292
vn 0.1654 -0.2596 0.9514
vn 0.5587 -0.6265 0.5435
vn 0.7153 -0.1060 0.6907
vn 0.0019 -0.1520 0.9884
vn 0.1553 0.2036 0.9666
vn -0.4440 0.1443 0.8843
vn -0.9397 0.1568 0.3039
vn 0.4870 -0.1164 0.8656
vn -0.8524 0.3574 -0.3817
vn -0.9442 0.3121 -0.1054
vn 0.7080 -0.0997 0.6992
vn -0.9422 0.3345 -0.0165
vn -0.7176 0.5491 -0.4285
vn -0.8974 0.3812 -0.2223
vn 0.1802 -0.1465 0.9727
vn -0.7919 0.4388 -0.4247
vn 0.4641 -0.1214 0.8774
vn 0.6215 -0.0957 0.7775
vn 0.1233 -0.1363 0.9830
vn 0.4786 -0.1058 0.8716
vn 0.2856 -0.1253 0.9501
vn -0.7222 -0.1090 0.6831
vn -0.5338 -0.7086 0.4614
vn 0.3967 -0.4835 0.7803
vn 0.4792 -0.4864 0.7306
vn 0.5305 -0.7083 0.4658
vn 0.0987 -0.7136 0.6936
vn -0.4013 -0.4813 0.7793
vn -0.4787 -0.4874 0.7303
vn -0.0989 -0.7118 0.6953
vn -0.5939 -0.4730 0.6508
vn -0.4557 -0.6229 0.6359
vn -0.0865 -0.7905 0.6063
vn -0.5579 -0.6758 0.4817
vn -0.4558 -0.6939 0.5575
vn 0.0013 -0.8146 0.5800
vn 0.4517 -0.6972 0.5567
vn 0.5563 -0.6760 0.4833
vn 0.0897 -0.7896 0.6070
vn 0.4546 -0.6249 0.6347
vn 0.5936 -0.4709 0.6526
vt 0.750679 0.692882
vt 0.752496 0.738334
vt 0.870841 0.702044
vt 0.875202 0.689506
vt 0.743653 0.681428
vt 0.875202 0.613672
vt 0.996090 0.613672
vt 0.993547 0.700116
vt 0.977073 0.714221
vt 0.951999 0.791864
vt 0.857638 0.764134
vt 0.751406 0.787041
vt 0.743411 0.881442
vt 0.743532 0.892413
vt 0.783990 0.909172
vt 0.806278 0.874208
vt 0.748498 0.843224
vt 0.835228 0.836834
vt 0.754555 0.800303
vt 0.843708 0.828274
vt 0.923291 0.871436
vt 0.901608 0.875173
vt 0.855942 0.906158
vt 0.818028 0.937022
vt 0.806520 0.941242
vt 0.779871 0.917129
vt 0.742926 0.950284
vt 0.717731 0.927377
vt 0.703680 0.915923
vt 0.675699 0.937504
vt 0.676910 0.948596
vt 0.742684 0.613672
vt 0.676789 0.613672
vt 0.678121 0.680464
vt 0.750679 0.534462
vt 0.743653 0.546036
vt 0.875202 0.537838
vt 0.870841 0.525420
vt 0.765215 0.972588
vt 0.702711 0.995013
vt 0.686601 0.974517
vt 0.724030 0.882768
vt 0.720517 0.870712
vt 0.717610 0.830926
vt 0.713492 0.787283
vt 0.703438 0.771609
vt 0.699198 0.729051
vt 0.691325 0.692038
vt 0.993547 0.527228
vt 0.977073 0.513122
vt 0.951999 0.435480
vt 0.818028 0.290322
vt 0.806520 0.286102
vt 0.783990 0.318172
vt 0.806278 0.353135
vt 0.855942 0.321186
vt 0.835228 0.390510
vt 0.901608 0.352171
vt 0.843708 0.399070
vt 0.923291 0.355908
vt 0.857638 0.463209
vt 0.742926 0.277060
vt 0.743532 0.334930
vt 0.779871 0.310215
vt 0.717731 0.299967
vt 0.676910 0.278748
vt 0.675699 0.289840
vt 0.703680 0.311541
vt 0.752496 0.489010
vt 0.751406 0.440302
vt 0.754555 0.427040
vt 0.748498 0.384120
vt 0.743411 0.345901
vt 0.765215 0.254756
vt 0.702711 0.232331
vt 0.686601 0.252827
vt 0.724030 0.344575
vt 0.720517 0.356632
vt 0.717610 0.396417
vt 0.713492 0.440061
vt 0.703438 0.455734
vt 0.699198 0.498414
vt 0.691325 0.535306
vt 0.678121 0.546880
vt 0.203772 0.281882
vt 0.153988 0.254515
vt 0.147204 0.270429
vt 0.129640 0.318292
vt 0.113045 0.372184
vt 0.191417 0.381950
vt 0.195293 0.329505
vt 0.250408 0.321909
vt 0.248349 0.277060
vt 0.208497 0.267777
vt 0.212736 0.219551
vt 0.173611 0.207495
vt 0.213584 0.186879
vt 0.225213 0.186155
vt 0.239627 0.219310
vt 0.250408 0.265124
vt 0.291229 0.263677
vt 0.289533 0.253309
vt 0.263248 0.212318
vt 0.259735 0.436685
vt 0.259129 0.385205
vt 0.187662 0.401240
vt 0.182574 0.446451
vt 0.261673 0.482982
vt 0.179788 0.485996
vt 0.237326 0.180610
vt 0.247016 0.177113
vt 0.279358 0.203396
vt 0.313759 0.241132
vt 0.318968 0.251018
vt 0.305644 0.305874
vt 0.258766 0.369773
vt 0.106868 0.395573
vt 0.095966 0.438855
vt 0.090030 0.478400
vt 0.176276 0.502151
vt 0.259977 0.497208
vt 0.351916 0.478641
vt 0.342346 0.421615
vt 0.335078 0.362419
vt 0.328295 0.350001
vt 0.355550 0.492506
vt 0.355065 0.557489
vt 0.344406 0.290442
vt 0.374567 0.332639
vt 0.386075 0.347107
vt 0.403154 0.408474
vt 0.417932 0.473216
vt 0.423019 0.489974
vt 0.645658 0.697825
vt 0.551903 0.666237
vt 0.520167 0.750149
vt 0.463356 0.723143
vt 0.423625 0.556404
vt 0.431135 0.792346
vt 0.475469 0.821643
vt 0.460449 0.841054
vt 0.522468 0.877825
vt 0.259008 0.558936
vt 0.501876 0.891570
vt 0.423989 0.878669
vt 0.447851 0.934008
vt 0.376869 0.915441
vt 0.394917 0.955709
vt 0.381229 0.954745
vt 0.364998 0.922916
vt 0.261794 0.620664
vt 0.321269 0.951489
vt 0.330233 0.982474
vt 0.357488 0.622352
vt 0.263369 0.995615
vt 0.259614 0.971985
vt 0.229694 0.996098
vt 0.233328 0.966801
vt 0.197958 0.975964
vt 0.216007 0.954865
vt 0.190569 0.962099
vt 0.425079 0.622955
vt 0.207406 0.945341
vt 0.225939 0.943291
vt 0.240596 0.951128
vt 0.258887 0.954142
vt 0.488915 0.555440
vt 0.306855 0.931114
vt 0.343436 0.896754
vt 0.350341 0.887350
vt 0.483100 0.479606
vt 0.323450 0.874932
vt 0.290139 0.913753
vt 0.258766 0.941000
vt 0.248833 0.937866
vt 0.478982 0.459472
vt 0.407636 0.704938
vt 0.420597 0.639834
vt 0.354338 0.636458
vt 0.346586 0.693726
vt 0.597327 0.801509
vt 0.341135 0.753163
vt 0.458147 0.388701
vt 0.548390 0.442713
vt 0.653290 0.671060
vt 0.552145 0.467791
vt 0.564501 0.554234
vt 0.554810 0.641040
vt 0.485402 0.631515
vt 0.273786 0.905314
vt 0.298860 0.863599
vt 0.328416 0.864925
vt 0.263975 0.634891
vt 0.236599 0.932682
vt 0.263369 0.681187
vt 0.250044 0.899044
vt 0.259493 0.852989
vt 0.300314 0.853110
vt 0.264459 0.732668
vt 0.264580 0.747979
vt 0.224970 0.932320
vt 0.334715 0.765702
vt 0.313396 0.810551
vt 0.257676 0.796204
vt 0.202319 0.790176
vt 0.223153 0.899647
vt 0.196868 0.737972
vt 0.217339 0.851663
vt 0.256949 0.841054
vt 0.352642 0.824778
vt 0.389587 0.847926
vt 0.192628 0.718803
vt 0.418780 0.808502
vt 0.392494 0.766787
vt 0.185966 0.673833
vt 0.182090 0.634288
vt 0.381472 0.781737
vt 0.481889 0.651649
vt 0.178093 0.618374
vt 0.665887 0.552788
vt 0.173490 0.560262
vt 0.649656 0.434877
vt 0.641176 0.408353
vt 0.514231 0.359766
vt 0.589696 0.306236
vt 0.467232 0.289719
vt 0.512535 0.232211
vt 0.451728 0.270791
vt 0.491580 0.219190
vt 0.414177 0.234260
vt 0.436344 0.178319
vt 0.365967 0.198935
vt 0.382683 0.158305
vt 0.369116 0.159632
vt 0.353733 0.191942
vt 0.212373 0.837557
vt 0.309278 0.164695
vt 0.317272 0.133469
vt 0.088819 0.499378
vt 0.249923 0.122378
vt 0.247016 0.146129
vt 0.216370 0.122980
vt 0.220852 0.152036
vt 0.185239 0.144079
vt 0.203894 0.164575
vt 0.178335 0.158185
vt 0.195657 0.174340
vt 0.084822 0.561589
vt 0.214190 0.175787
vt 0.228604 0.167589
vt 0.246774 0.164092
vt 0.090757 0.623679
vt 0.295469 0.185553
vt 0.333019 0.218828
vt 0.092574 0.644657
vt 0.340287 0.227870
vt 0.380745 0.266089
vt 0.411028 0.304669
vt 0.099721 0.683960
vt 0.423989 0.320463
vt 0.111955 0.726880
vt 0.118860 0.750149
vt 0.137150 0.803438
vt 0.156168 0.850819
vt 0.163436 0.866492
vt 0.184391 0.912909
vt 0.157743 0.929547
vt 0.132669 0.885541
vt 0.124068 0.873726
vt 0.146477 0.191701
vt 0.098267 0.830926
vt 0.122736 0.236430
vt 0.114499 0.248487
vt 0.090030 0.292010
vt 0.066289 0.341079
vt 0.056598 0.360007
vt 0.035643 0.409438
vt 0.022924 0.454529
vt 0.020138 0.474060
vt 0.003906 0.562915
vt 0.022924 0.651167
vt 0.026194 0.670578
vt 0.040367 0.715186
vt 0.062776 0.764014
vt 0.073072 0.782581
s 1
usemtl Material
f 249/1/1 251/2/2 282/3/3
f 284/4/4 249/1/1 282/3/3
f 246/5/5 249/1/1 284/4/4
f 245/6/6 246/5/5 284/4/4
f 244/7/7 245/6/6 284/4/4
f 285/8/8 244/7/7 284/4/4
f 283/9/9 285/8/8 284/4/4
f 282/3/3 283/9/9 284/4/4
f 280/10/10 283/9/9 282/3/3
f 281/11/11 280/10/10 282/3/3
f 251/2/2 281/11/11 282/3/3
f 253/12/12 281/11/11 251/2/2
f 259/13/13 261/14/14 272/15/15
f 274/16/16 259/13/13 272/15/15
f 257/17/17 259/13/13 274/16/16
f 276/18/18 257/17/17 274/16/16
f 255/19/19 257/17/17 276/18/18
f 278/20/20 255/19/19 276/18/18
f 253/12/12 255/19/19 278/20/20
f 281/11/11 253/12/12 278/20/20
f 280/10/10 281/11/11 278/20/20
f 279/21/21 280/10/10 278/20/20
f 277/22/22 279/21/21 278/20/20
f 276/18/18 277/22/22 278/20/20
f 275/23/23 277/22/22 276/18/18
f 274/16/16 275/23/23 276/18/18
f 273/24/24 275/23/23 274/16/16
f 272/15/15 273/24/24 274/16/16
f 270/25/25 273/24/24 272/15/15
f 269/26/26 270/25/25 272/15/15
f 261/14/14 269/26/26 272/15/15
f 266/27/27 269/26/26 261/14/14
f 263/28/28 266/27/27 261/14/14
f 262/29/29 271/30/30 264/31/31
f 204/32/32 202/33/33 247/34/34
f 207/35/35 205/36/36 242/37/37
f 234/38/38 207/35/35 242/37/37
f 268/39/39 270/25/25 269/26/26
f 266/27/27 268/39/39 269/26/26
f 267/40/40 268/39/39 266/27/27
f 265/41/41 267/40/40 266/27/27
f 263/28/28 265/41/41 266/27/27
f 264/31/31 265/41/41 263/28/28
f 262/29/29 264/31/31 263/28/28
f 261/14/14 262/29/29 263/28/28
f 260/42/42 262/29/29 261/14/14
f 259/13/13 260/42/42 261/14/14
f 258/43/43 260/42/42 259/13/13
f 257/17/17 258/43/43 259/13/13
f 256/44/44 258/43/43 257/17/17
f 255/19/19 256/44/44 257/17/17
f 254/45/45 256/44/44 255/19/19
f 253/12/12 254/45/45 255/19/19
f 252/46/46 254/45/45 253/12/12
f 251/2/2 252/46/46 253/12/12
f 250/47/47 252/46/46 251/2/2
f 249/1/1 250/47/47 251/2/2
f 248/48/48 250/47/47 249/1/1
f 246/5/5 248/48/48 249/1/1
f 247/34/34 248/48/48 246/5/5
f 204/32/32 247/34/34 246/5/5
f 245/6/6 204/32/32 246/5/5
f 205/36/36 204/32/32 245/6/6
f 242/37/37 205/36/36 245/6/6
f 244/7/7 242/37/37 245/6/6
f 243/49/49 242/37/37 244/7/7
f 241/50/50 242/37/37 243/49/49
f 234/38/38 242/37/37 241/50/50
f 236/51/51 234/38/38 241/50/50
f 240/52/52 228/53/53 229/54/54
f 230/55/55 240/52/52 229/54/54
f 239/56/56 240/52/52 230/55/55
f 231/57/57 239/56/56 230/55/55
f 238/58/58 239/56/56 231/57/57
f 232/59/59 238/58/58 231/57/57
f 237/60/60 238/58/58 232/59/59
f 236/51/51 237/60/60 232/59/59
f 233/61/61 236/51/51 232/59/59
f 234/38/38 236/51/51 233/61/61
f 224/62/62 219/63/63 227/64/64
f 221/65/65 219/63/63 224/62/62
f 222/66/66 235/67/67 220/68/68
f 209/69/69 207/35/35 234/38/38
f 233/61/61 209/69/69 234/38/38
f 211/70/70 209/69/69 233/61/61
f 232/59/59 211/70/70 233/61/61
f 213/71/71 211/70/70 232/59/59
f 231/57/57 213/71/71 232/59/59
f 215/72/72 213/71/71 231/57/57
f 230/55/55 215/72/72 231/57/57
f 217/73/73 215/72/72 230/55/55
f 229/54/54 217/73/73 230/55/55
f 219/63/63 217/73/73 229/54/54
f 227/64/64 219/63/63 229/54/54
f 228/53/53 227/64/64 229/54/54
f 226/74/74 227/64/64 228/53/53
f 224/62/62 227/64/64 226/74/74
f 225/75/75 224/62/62 226/74/74
f 223/76/76 224/62/62 225/75/75
f 221/65/65 224/62/62 223/76/76
f 222/66/66 221/65/65 223/76/76
f 220/68/68 221/65/65 222/66/66
f 219/63/63 221/65/65 220/68/68
f 218/77/77 219/63/63 220/68/68
f 217/73/73 219/63/63 218/77/77
f 216/78/78 217/73/73 218/77/77
f 215/72/72 217/73/73 216/78/78
f 214/79/79 215/72/72 216/78/78
f 213/71/71 215/72/72 214/79/79
f 212/80/80 213/71/71 214/79/79
f 211/70/70 213/71/71 212/80/80
f 210/81/81 211/70/70 212/80/80
f 209/69/69 211/70/70 210/81/81
f 208/82/82 209/69/69 210/81/81
f 207/35/35 209/69/69 208/82/82
f 206/83/83 207/35/35 208/82/82
f 205/36/36 207/35/35 206/83/83
f 203/84/84 205/36/36 206/83/83
f 204/32/32 205/36/36 203/84/84
f 202/33/33 204/32/32 203/84/84
f 201/85/85 113/86/86 115/87/87
f 117/88/88 119/89/89 190/90/90
f 191/91/91 117/88/88 190/90/90
f 115/87/87 117/88/88 191/91/91
f 201/85/85 115/87/87 191/91/91
f 192/92/92 201/85/85 191/91/91
f 193/93/93 201/85/85 192/92/92
f 199/94/94 201/85/85 193/93/93
f 113/86/86 201/85/85 199/94/94
f 200/95/95 113/86/86 199/94/94
f 110/96/96 113/86/86 200/95/95
f 109/97/97 110/96/96 200/95/95
f 108/98/98 109/97/97 200/95/95
f 197/99/99 108/98/98 200/95/95
f 199/94/94 197/99/99 200/95/95
f 198/100/100 197/99/99 199/94/94
f 193/93/93 198/100/100 199/94/94
f 194/101/101 198/100/100 193/93/93
f 195/102/102 198/100/100 194/101/101
f 196/103/103 198/100/100 195/102/102
f 197/99/99 198/100/100 196/103/103
f 185/104/104 184/105/105 189/106/106
f 188/107/107 185/104/104 189/106/106
f 186/108/108 185/104/104 188/107/107
f 187/109/109 186/108/108 188/107/107
f 107/110/110 108/98/98 197/99/99
f 196/103/103 107/110/110 197/99/99
f 106/111/111 107/110/110 196/103/103
f 105/112/112 106/111/111 196/103/103
f 195/102/102 105/112/112 196/103/103
f 104/113/113 105/112/112 195/102/102
f 103/114/114 104/113/113 195/102/102
f 194/101/101 103/114/114 195/102/102
f 182/115/115 103/114/114 194/101/101
f 193/93/93 182/115/115 194/101/101
f 192/92/92 182/115/115 193/93/93
f 183/116/116 182/115/115 192/92/92
f 191/91/91 183/116/116 192/92/92
f 190/90/90 183/116/116 191/91/91
f 184/105/105 183/116/116 190/90/90
f 189/106/106 184/105/105 190/90/90
f 119/89/89 189/106/106 190/90/90
f 121/117/117 189/106/106 119/89/89
f 188/107/107 189/106/106 121/117/117
f 123/118/118 188/107/107 121/117/117
f 187/109/109 188/107/107 123/118/118
f 125/119/119 187/109/109 123/118/118
f 157/120/120 187/109/109 125/119/119
f 176/121/121 187/109/109 157/120/120
f 186/108/108 187/109/109 176/121/121
f 178/122/122 186/108/108 176/121/121
f 185/104/104 186/108/108 178/122/122
f 179/123/123 185/104/104 178/122/122
f 184/105/105 185/104/104 179/123/123
f 180/124/124 184/105/105 179/123/123
f 183/116/116 184/105/105 180/124/124
f 181/125/125 183/116/116 180/124/124
f 182/115/115 183/116/116 181/125/125
f 177/126/126 178/122/122 176/121/121
f 175/127/127 177/126/126 176/121/121
f 102/128/128 103/114/114 182/115/115
f 181/125/125 102/128/128 182/115/115
f 101/129/129 102/128/128 181/125/125
f 180/124/124 101/129/129 181/125/125
f 100/130/130 101/129/129 180/124/124
f 171/131/131 100/130/130 180/124/124
f 179/123/123 171/131/131 180/124/124
f 178/122/122 171/131/131 179/123/123
f 172/132/132 171/131/131 178/122/122
f 177/126/126 172/132/132 178/122/122
f 173/133/133 172/132/132 177/126/126
f 175/127/127 173/133/133 177/126/126
f 1/134/134 2/135/135 3/136/136
f 2/135/135 4/137/137 3/136/136
f 174/138/138 173/133/133 175/127/127
f 4/137/137 5/139/139 3/136/136
f 3/136/136 5/139/139 6/140/140
f 5/139/139 7/141/141 6/140/140
f 6/140/140 7/141/141 8/142/142
f 158/143/143 176/121/121 157/120/120
f 8/142/142 7/141/141 9/144/144
f 7/141/141 10/145/145 9/144/144
f 9/144/144 10/145/145 11/146/146
f 10/145/145 12/147/147 11/146/146
f 11/146/146 12/147/147 13/148/148
f 175/127/127 176/121/121 158/143/143
f 13/148/148 12/147/147 14/149/149
f 12/147/147 15/150/150 14/149/149
f 159/151/151 175/127/127 158/143/143
f 15/150/150 16/152/152 14/149/149
f 14/149/149 16/152/152 17/153/74
f 166/154/153 175/127/127 159/151/151
f 17/153/74 16/152/152 18/155/154
f 16/152/152 19/156/155 18/155/154
f 18/155/154 19/156/155 20/157/76
f 19/156/155 21/158/156 20/157/76
f 20/157/76 21/158/156 22/159/157
f 21/158/156 23/160/158 22/159/157
f 22/159/157 23/160/158 24/161/159
f 167/162/160 175/127/127 166/154/153
f 24/161/159 23/160/158 25/163/161
f 174/138/138 175/127/127 167/162/160
f 25/163/161 23/160/158 26/164/162
f 23/160/158 21/158/156 26/164/162
f 26/164/162 21/158/156 27/165/163
f 21/158/156 19/156/155 27/165/163
f 27/165/163 19/156/155 28/166/164
f 168/167/165 174/138/138 167/162/160
f 28/166/164 19/156/155 29/168/166
f 19/156/155 16/152/152 29/168/166
f 173/133/133 174/138/138 168/167/165
f 16/152/152 15/150/150 29/168/166
f 29/168/166 15/150/150 30/169/167
f 15/150/150 31/170/168 30/169/167
f 169/171/169 173/133/133 168/167/165
f 31/170/168 32/172/170 30/169/167
f 30/169/167 32/172/170 29/168/166
f 32/172/170 33/173/171 29/168/166
f 172/132/132 173/133/133 169/171/169
f 33/173/171 34/174/172 29/168/166
f 29/168/166 34/174/172 28/166/164
f 34/174/172 35/175/173 28/166/164
f 28/166/164 35/175/173 27/165/163
f 170/176/174 172/132/132 169/171/169
f 171/131/131 172/132/132 170/176/174
f 57/177/175 99/178/176 165/179/177
f 164/180/178 57/177/175 165/179/177
f 8/142/142 36/181/51 6/140/140
f 6/140/140 36/181/51 3/136/136
f 36/181/51 1/134/134 3/136/136
f 56/182/179 57/177/175 164/180/178
f 98/183/180 100/130/130 171/131/131
f 170/176/174 98/183/180 171/131/131
f 65/184/181 98/183/180 170/176/174
f 2/135/135 1/134/134 37/185/49
f 169/171/169 65/184/181 170/176/174
f 63/186/182 65/184/181 169/171/169
f 168/167/165 63/186/182 169/171/169
f 62/187/183 63/186/182 168/167/165
f 15/150/150 12/147/147 31/170/168
f 60/188/184 62/187/183 168/167/165
f 59/189/185 60/188/184 168/167/165
f 167/162/160 59/189/185 168/167/165
f 99/178/176 59/189/185 167/162/160
f 35/175/173 34/174/172 38/190/186
f 34/174/172 33/173/171 38/190/186
f 38/190/186 33/173/171 39/191/187
f 33/173/171 32/172/170 39/191/187
f 39/191/187 32/172/170 40/192/188
f 32/172/170 31/170/168 40/192/188
f 166/154/153 99/178/176 167/162/160
f 165/179/177 99/178/176 166/154/153
f 159/151/151 165/179/177 166/154/153
f 160/193/189 165/179/177 159/151/151
f 27/165/163 35/175/173 41/194/190
f 161/195/191 165/179/177 160/193/189
f 41/194/190 35/175/173 42/196/192
f 35/175/173 38/190/186 42/196/192
f 42/196/192 38/190/186 43/197/193
f 38/190/186 39/191/187 43/197/193
f 43/197/193 39/191/187 44/198/194
f 39/191/187 40/192/188 44/198/194
f 164/180/178 165/179/177 161/195/191
f 162/199/195 164/180/178 161/195/191
f 56/182/179 164/180/178 162/199/195
f 163/200/196 56/182/179 162/199/195
f 27/165/163 41/194/190 26/164/162
f 41/194/190 45/201/197 26/164/162
f 26/164/162 45/201/197 25/163/161
f 55/202/198 56/182/179 163/200/196
f 49/203/199 55/202/198 163/200/196
f 149/204/200 49/203/199 163/200/196
f 150/205/201 149/204/200 163/200/196
f 45/201/197 41/194/190 46/206/202
f 151/207/203 150/205/201 163/200/196
f 41/194/190 42/196/192 46/206/202
f 46/206/202 42/196/192 47/208/204
f 42/196/192 43/197/193 47/208/204
f 47/208/204 43/197/193 48/209/205
f 43/197/193 44/198/194 48/209/205
f 48/209/205 44/198/194 49/203/199
f 44/198/194 40/192/188 49/203/199
f 49/203/199 40/192/188 50/210/206
f 40/192/188 31/170/168 50/210/206
f 50/210/206 31/170/168 51/211/207
f 31/170/168 12/147/147 51/211/207
f 162/199/195 151/207/203 163/200/196
f 12/147/147 10/145/145 51/211/207
f 152/212/208 151/207/203 162/199/195
f 10/145/145 7/141/141 51/211/207
f 51/211/207 7/141/141 52/213/209
f 7/141/141 5/139/139 52/213/209
f 52/213/209 5/139/139 53/214/210
f 5/139/139 4/137/137 53/214/210
f 161/195/191 152/212/208 162/199/195
f 153/215/211 152/212/208 161/195/191
f 160/193/189 153/215/211 161/195/191
f 154/216/212 153/215/211 160/193/189
f 51/211/207 52/213/209 50/210/206
f 52/213/209 54/217/213 50/210/206
f 50/210/206 54/217/213 55/202/198
f 159/151/151 154/216/212 160/193/189
f 55/202/198 54/217/213 56/182/179
f 54/217/213 53/214/210 56/182/179
f 56/182/179 53/214/210 57/177/175
f 53/214/210 4/137/137 57/177/175
f 57/177/175 4/137/137 58/218/214
f 4/137/137 2/135/135 58/218/214
f 58/218/214 2/135/135 59/189/185
f 155/219/215 154/216/212 159/151/151
f 59/189/185 2/135/135 60/188/184
f 2/135/135 37/185/49 60/188/184
f 158/143/143 155/219/215 159/151/151
f 37/185/49 61/220/216 60/188/184
f 60/188/184 61/220/216 62/187/183
f 156/221/217 155/219/215 158/143/143
f 62/187/183 61/220/216 63/186/182
f 61/220/216 64/222/8 63/186/182
f 63/186/182 64/222/8 65/184/181
f 64/222/8 66/223/218 65/184/181
f 65/184/181 66/223/218 67/224/219
f 66/223/218 68/225/10 67/224/219
f 67/224/219 68/225/10 69/226/220
f 68/225/10 70/227/221 69/226/220
f 69/226/220 70/227/221 71/228/222
f 70/227/221 72/229/223 71/228/222
f 71/228/222 72/229/223 73/230/224
f 72/229/223 74/231/23 73/230/224
f 73/230/224 74/231/23 75/232/225
f 74/231/23 76/233/24 75/232/225
f 157/120/120 156/221/217 158/143/143
f 76/233/24 77/234/226 75/232/225
f 75/232/225 77/234/226 78/235/227
f 148/236/228 149/204/200 150/205/201
f 78/235/227 77/234/226 79/237/229
f 77/234/226 80/238/230 79/237/229
f 127/239/231 157/120/120 125/119/119
f 80/238/230 81/240/232 79/237/229
f 79/237/229 81/240/232 82/241/233
f 81/240/232 83/242/234 82/241/233
f 82/241/233 83/242/234 84/243/235
f 83/242/234 85/244/236 84/243/235
f 84/243/235 85/244/236 86/245/237
f 85/244/236 87/246/238 86/245/237
f 156/221/217 157/120/120 127/239/231
f 87/246/238 88/247/239 86/245/237
f 129/248/240 156/221/217 127/239/231
f 88/247/239 89/249/241 86/245/237
f 86/245/237 89/249/241 84/243/235
f 89/249/241 90/250/242 84/243/235
f 84/243/235 90/250/242 82/241/233
f 90/250/242 91/251/243 82/241/233
f 130/252/244 156/221/217 129/248/240
f 91/251/243 92/253/245 82/241/233
f 82/241/233 92/253/245 79/237/229
f 155/219/215 156/221/217 130/252/244
f 79/237/229 92/253/245 78/235/227
f 92/253/245 93/254/246 78/235/227
f 132/255/247 155/219/215 130/252/244
f 93/254/246 94/256/248 78/235/227
f 78/235/227 94/256/248 75/232/225
f 94/256/248 95/257/249 75/232/225
f 75/232/225 95/257/249 73/230/224
f 154/216/212 155/219/215 132/255/247
f 73/230/224 95/257/249 71/228/222
f 95/257/249 96/258/250 71/228/222
f 134/259/251 154/216/212 132/255/247
f 96/258/250 97/260/252 71/228/222
f 71/228/222 97/260/252 69/226/220
f 153/215/211 154/216/212 134/259/251
f 69/226/220 97/260/252 67/224/219
f 97/260/252 98/183/180 67/224/219
f 67/224/219 98/183/180 65/184/181
f 136/261/253 153/215/211 134/259/251
f 152/212/208 153/215/211 136/261/253
f 138/262/254 152/212/208 136/261/253
f 151/207/203 152/212/208 138/262/254
f 53/214/210 54/217/213 52/213/209
f 140/263/255 151/207/203 138/262/254
f 150/205/201 151/207/203 140/263/255
f 142/264/256 150/205/201 140/263/255
f 148/236/228 150/205/201 142/264/256
f 55/202/198 49/203/199 50/210/206
f 144/265/257 148/236/228 142/264/256
f 48/209/205 49/203/199 149/204/200
f 148/236/228 48/209/205 149/204/200
f 47/208/204 48/209/205 148/236/228
f 57/177/175 58/218/214 99/178/176
f 99/178/176 58/218/214 59/189/185
f 144/265/257 47/208/204 148/236/228
f 46/206/202 47/208/204 144/265/257
f 146/266/258 46/206/202 144/265/257
f 45/201/197 46/206/202 146/266/258
f 98/183/180 97/260/252 100/130/130
f 25/163/161 45/201/197 146/266/258
f 97/260/252 96/258/250 100/130/130
f 100/130/130 96/258/250 101/129/129
f 24/161/159 25/163/161 146/266/258
f 101/129/129 96/258/250 102/128/128
f 96/258/250 95/257/249 102/128/128
f 147/267/259 24/161/159 146/266/258
f 95/257/249 94/256/248 102/128/128
f 102/128/128 94/256/248 103/114/114
f 145/268/260 147/267/259 146/266/258
f 103/114/114 94/256/248 104/113/113
f 94/256/248 93/254/246 104/113/113
f 144/265/257 145/268/260 146/266/258
f 93/254/246 92/253/245 104/113/113
f 104/113/113 92/253/245 105/112/112
f 143/269/261 145/268/260 144/265/257
f 105/112/112 92/253/245 106/111/111
f 92/253/245 91/251/243 106/111/111
f 106/111/111 91/251/243 107/110/110
f 91/251/243 90/250/242 107/110/110
f 107/110/110 90/250/242 108/98/98
f 90/250/242 89/249/241 108/98/98
f 108/98/98 89/249/241 109/97/97
f 89/249/241 88/247/239 109/97/97
f 109/97/97 88/247/239 110/96/96
f 88/247/239 87/246/238 110/96/96
f 142/264/256 143/269/261 144/265/257
f 87/246/238 111/270/262 110/96/96
f 141/271/263 143/269/261 142/264/256
f 111/270/262 112/272/264 110/96/96
f 110/96/96 112/272/264 113/86/86
f 112/272/264 114/273/265 113/86/86
f 113/86/86 114/273/265 115/87/87
f 114/273/265 116/274/266 115/87/87
f 115/87/87 116/274/266 117/88/88
f 116/274/266 118/275/267 117/88/88
f 117/88/88 118/275/267 119/89/89
f 118/275/267 120/276/268 119/89/89
f 119/89/89 120/276/268 121/117/117
f 120/276/268 122/277/269 121/117/117
f 121/117/117 122/277/269 123/118/118
f 122/277/269 124/278/270 123/118/118
f 123/118/118 124/278/270 125/119/119
f 124/278/270 126/279/271 125/119/119
f 125/119/119 126/279/271 127/239/231
f 126/279/271 128/280/272 127/239/231
f 127/239/231 128/280/272 129/248/240
f 140/263/255 141/271/263 142/264/256
f 129/248/240 128/280/272 130/252/244
f 128/280/272 131/281/273 130/252/244
f 130/252/244 131/281/273 132/255/247
f 131/281/273 133/282/274 132/255/247
f 132/255/247 133/282/274 134/259/251
f 133/282/274 135/283/275 134/259/251
f 134/259/251 135/283/275 136/261/253
f 135/283/275 137/284/276 136/261/253
f 136/261/253 137/284/276 138/262/254
f 137/284/276 139/285/277 138/262/254
f 138/262/254 139/285/277 140/263/255
f 139/285/277 141/271/263 140/263/255
